<svg width="62" height="38" viewBox="0 0 62 38" fill="none" xmlns="http://www.w3.org/2000/svg">
<path d="M0.290974 1.00951C0.496958 1.11421 0.953268 1.36502 1.45916 1.8785C1.47428 1.89362 1.48942 1.90878 1.50529 1.92579C1.74945 2.17978 2.07785 2.57101 2.40104 3.13227C2.87477 3.95492 3.27873 5.04946 3.40198 6.29356C3.51612 7.44583 3.36787 8.52313 2.98859 9.39696C2.77543 9.88947 2.50533 10.2834 2.21003 10.5951C1.78964 11.0389 1.34455 11.2881 1.0197 11.4325C0.891029 11.4905 0.790445 11.5971 0.740115 11.7289C0.689786 11.8608 0.693859 12.0072 0.751188 12.1361C0.808518 12.265 0.914404 12.3659 1.046 12.4168C1.1776 12.4678 1.32417 12.4646 1.45339 12.4078C1.8654 12.2245 2.4408 11.9037 2.9849 11.3294C3.36686 10.9262 3.70632 10.4267 3.96854 9.82072C4.43059 8.75293 4.59316 7.48864 4.46428 6.18814C4.32481 4.78235 3.86958 3.54337 3.32608 2.59962C2.95304 1.95173 2.56909 1.49205 2.27486 1.18599C2.25596 1.16709 2.23711 1.14791 2.21972 1.12901C1.60736 0.507655 1.04643 0.195741 0.774949 0.0577123C0.648791 -0.00623185 0.502473 -0.0175645 0.368022 0.0263393C0.233571 0.070243 0.122091 0.165783 0.0579826 0.291857C-0.00612595 0.417931 -0.0175802 0.564275 0.0261482 0.698783C0.0698766 0.833291 0.164983 0.945242 0.290974 1.00951Z" fill="white"/>
<path d="M1.38692 12.6499C1.53772 12.7146 1.89616 12.8761 2.32026 13.1923C2.56669 13.376 2.92937 13.6811 3.31636 14.1526C3.80286 14.7454 4.26797 15.5307 4.58904 16.4844C4.88914 17.3756 5.01625 18.2765 4.98397 19.1015C4.93862 20.265 4.59011 21.028 4.35559 21.4337C4.28604 21.5551 4.26728 21.6991 4.30369 21.8342C4.34009 21.9693 4.42869 22.0843 4.54983 22.1544C4.67097 22.2244 4.81483 22.2435 4.95006 22.2077C5.0853 22.1718 5.2007 22.0838 5.27118 21.9629C5.57354 21.44 5.98722 20.5111 6.04074 19.1428C6.07853 18.1829 5.93054 17.1538 5.5916 16.1469C5.22876 15.0686 4.69982 14.1708 4.13413 13.4816C3.68206 12.9307 3.2527 12.5682 2.95234 12.3443C2.43636 11.9596 1.99531 11.76 1.80353 11.6778C1.67484 11.6239 1.53008 11.6229 1.40076 11.6753C1.27144 11.7277 1.16804 11.8292 1.1131 11.9574C1.05815 12.0857 1.05602 12.2305 1.10733 12.3602C1.15864 12.49 1.25912 12.594 1.38692 12.6499Z" fill="white"/>
<path d="M5.05256 22.7415C5.3228 22.7188 5.9746 22.6805 6.85905 22.8109C7.37193 22.8865 8.15834 23.0467 9.12113 23.4227C10.33 23.8947 11.6795 24.6562 12.9431 25.7635C14.1259 26.8 15.0543 27.985 15.6679 29.1995C16.0153 29.8873 16.239 30.5382 16.3729 31.1347C16.5634 31.9826 16.5602 32.6667 16.5266 33.1174C16.517 33.2567 16.5627 33.3942 16.6541 33.4997C16.7455 33.6051 16.8751 33.6701 17.0142 33.6805C17.1534 33.6909 17.2909 33.6458 17.3969 33.555C17.5029 33.4643 17.5689 33.3352 17.5801 33.1961C17.6194 32.6671 17.6219 31.8751 17.4038 30.9031C17.2508 30.2211 16.9975 29.4881 16.611 28.7231C15.9303 27.3759 14.9136 26.0853 13.6395 24.9687C12.2781 23.7757 10.8214 22.9524 9.50568 22.4386C8.45441 22.0281 7.58817 21.8505 7.01337 21.7657C6.02219 21.6194 5.28451 21.6634 4.96998 21.688C4.83055 21.6993 4.7013 21.7653 4.61057 21.8718C4.51984 21.9783 4.47504 22.1162 4.486 22.2557C4.49696 22.3951 4.56269 22.5245 4.66893 22.6155C4.77518 22.7065 4.91308 22.7521 5.05256 22.7415Z" fill="white"/>
<path d="M0.477925 1.16001C1.1949 1.27377 2.72282 1.55271 4.58341 2.3215C5.36914 2.64616 6.41188 3.1382 7.60376 3.88669C9.50947 5.08348 11.4952 6.74624 13.4435 9.01434C17.92 14.2252 20.1609 20.2136 21.0049 22.7629C21.05 22.8949 21.1452 23.0037 21.2702 23.0658C21.3951 23.1278 21.5394 23.138 21.6718 23.0941C21.8042 23.0503 21.914 22.956 21.9772 22.8316C22.0404 22.7073 22.0521 22.5631 22.0095 22.4302C21.1494 19.8327 18.8557 13.6909 14.2458 8.32506C12.2318 5.98061 10.1663 4.24703 8.16616 2.99072C6.91506 2.20503 5.81747 1.68674 4.98711 1.34363C3.02119 0.531337 1.40108 0.235161 0.643326 0.11501C0.574692 0.104116 0.504672 0.106654 0.437094 0.122853C0.369516 0.139053 0.305782 0.168533 0.249548 0.20936C0.193313 0.250187 0.145622 0.30168 0.109292 0.360919C0.0729619 0.420159 0.0486744 0.486061 0.0377799 0.554694C0.0268853 0.623327 0.0296543 0.693348 0.0458538 0.760926C0.0620533 0.828503 0.0913023 0.892237 0.13213 0.948472C0.172957 1.00471 0.224449 1.0524 0.283689 1.08873C0.342929 1.12506 0.409292 1.14911 0.477925 1.16001Z" fill="white"/>
<path d="M21.9458 23.4978C21.9761 23.4789 22.048 23.4292 22.1636 23.3702C22.1863 23.3589 22.2124 23.3477 22.2393 23.3326C22.2895 23.3099 22.3587 23.2784 22.4423 23.247C22.6124 23.1835 22.8281 23.1219 23.0409 23.1061C23.1339 23.0985 23.2167 23.1023 23.2877 23.1137C23.3607 23.125 23.4147 23.1439 23.4547 23.1628C23.4982 23.1855 23.5287 23.2108 23.5526 23.2392C23.5904 23.2823 23.6131 23.3363 23.6301 23.3914C23.6699 23.5201 23.7592 23.6276 23.8783 23.6904C23.9974 23.7532 24.1367 23.7663 24.2654 23.7266C24.3941 23.6869 24.5016 23.5977 24.5646 23.4786C24.6275 23.3596 24.6406 23.2205 24.601 23.0918C24.5617 22.9648 24.4862 22.7712 24.332 22.587C24.2217 22.4551 24.0823 22.341 23.9115 22.2549C23.7615 22.1796 23.6007 22.1323 23.4361 22.1081C23.2769 22.0855 23.1174 22.0818 22.9639 22.0931C22.6229 22.1196 22.3086 22.2125 22.0859 22.2957C21.9721 22.3384 21.8777 22.3799 21.8081 22.4124C21.7703 22.4313 21.7355 22.4465 21.7022 22.4643C21.5371 22.5486 21.4252 22.6219 21.3719 22.6585C21.2613 22.7349 21.1853 22.8519 21.1608 22.984C21.1363 23.1162 21.1654 23.2528 21.2413 23.3637C21.3173 23.4747 21.434 23.551 21.5661 23.576C21.6982 23.601 21.8346 23.5733 21.9458 23.4978Z" fill="white"/>
<path d="M24.8953 22.8546C24.8726 22.7881 24.8218 22.6316 24.7806 22.4214C24.7693 22.365 24.758 22.2936 24.7467 22.2112C24.7202 22.0192 24.7074 21.7821 24.7354 21.5408C24.7618 21.3216 24.8165 21.1364 24.8966 20.9867C25.0055 20.7834 25.1439 20.6767 25.2376 20.6181C25.2938 20.5831 25.3428 20.5375 25.3813 20.4836C25.4198 20.4297 25.4473 20.3687 25.4623 20.3041C25.4773 20.2396 25.4793 20.1727 25.4685 20.1074C25.4577 20.042 25.4341 19.9795 25.3991 19.9233C25.364 19.8671 25.3182 19.8183 25.2643 19.7798C25.2105 19.7413 25.1496 19.7136 25.0851 19.6986C25.0206 19.6836 24.9537 19.6815 24.8883 19.6924C24.823 19.7032 24.7605 19.7268 24.7042 19.7618C24.5085 19.8839 24.2226 20.1081 24.0071 20.5104C23.8559 20.7927 23.7701 21.1051 23.7331 21.4246C23.6926 21.7731 23.7144 22.0977 23.7446 22.3429C23.7597 22.4499 23.7748 22.5427 23.7891 22.6149C23.842 22.8859 23.9078 23.0888 23.9377 23.1766C23.9815 23.302 24.0728 23.4048 24.1921 23.4631C24.3114 23.5215 24.449 23.5304 24.5748 23.488C24.7007 23.4457 24.8049 23.3555 24.8646 23.2368C24.9243 23.1182 24.9362 22.9809 24.8953 22.8546Z" fill="white"/>
<path d="M25.2744 19.7561C25.2712 19.7486 25.2631 19.7297 25.2518 19.6945C25.2405 19.6681 25.2291 19.6379 25.214 19.5956C25.2064 19.5767 25.1989 19.554 25.1914 19.5305C25.1725 19.4803 25.1489 19.4137 25.1175 19.3234C25.0529 19.1378 24.9747 18.8991 24.8878 18.6131C24.805 18.3406 24.7332 18.0886 24.6818 17.8943C24.6478 17.7654 24.6253 17.6729 24.6117 17.6117C24.6091 17.6004 24.6078 17.589 24.604 17.5815C24.5965 17.5512 24.5926 17.5266 24.5888 17.507C24.5813 17.4669 24.5812 17.4453 24.5812 17.4378C24.5679 17.3177 24.5078 17.2078 24.4137 17.1319C24.3197 17.056 24.1995 17.0203 24.0792 17.0327C23.959 17.045 23.8486 17.1044 23.772 17.1978C23.6953 17.2913 23.6586 17.4113 23.67 17.5316C23.6724 17.5543 23.6776 17.5943 23.6889 17.6525C23.6927 17.679 23.7001 17.7122 23.7039 17.7496C23.7022 17.7383 23.7115 17.7977 23.7115 17.7875C23.7229 17.8627 23.7417 17.9644 23.7708 18.1065C23.8139 18.3204 23.8723 18.582 23.9434 18.8722C24.0156 19.1681 24.0865 19.4341 24.1436 19.632C24.1738 19.7307 24.1957 19.8081 24.2142 19.8659C24.2217 19.8924 24.2332 19.9197 24.2407 19.9439C24.2596 19.9949 24.2748 20.0375 24.2892 20.0738C24.3118 20.1278 24.3277 20.1646 24.339 20.1891C24.3674 20.2508 24.4075 20.3063 24.4573 20.3525C24.5071 20.3986 24.5657 20.4343 24.6294 20.4579C24.6931 20.4814 24.7607 20.4923 24.8285 20.4897C24.8963 20.4871 24.9629 20.471 25.0246 20.4426C25.0863 20.4143 25.1418 20.3741 25.1879 20.3243C25.234 20.2745 25.27 20.2161 25.2936 20.1524C25.3171 20.0888 25.3278 20.021 25.3252 19.9531C25.3225 19.8853 25.3067 19.8187 25.2783 19.7571L25.2744 19.7561Z" fill="white"/>
<path d="M24.1407 18.2438C24.18 18.2664 24.2532 18.3049 24.3901 18.3771C24.4826 18.4262 24.5953 18.4853 24.7287 18.5552C24.9381 18.6648 25.2336 18.8183 25.6037 19.0092C25.9121 19.1683 26.215 19.3232 26.4694 19.4528C26.61 19.5242 26.7256 19.5828 26.8182 19.6292C26.9498 19.6954 27.0247 19.732 27.0685 19.7536C27.1899 19.8118 27.3294 19.8196 27.4565 19.7753C27.5837 19.731 27.6879 19.6382 27.7467 19.5171C27.8056 19.3961 27.8141 19.2565 27.7705 19.1291C27.7268 19.0018 27.6347 18.897 27.514 18.8375C27.475 18.8186 27.404 18.7837 27.2754 18.7187C27.1847 18.673 27.0705 18.6156 26.931 18.5446C26.6786 18.4161 26.3776 18.2619 26.0704 18.1035C25.7018 17.9134 25.4082 17.7605 25.2101 17.6571C25.0684 17.5831 24.9573 17.5245 24.8662 17.4765C24.7324 17.4058 24.6629 17.3681 24.6281 17.3492C24.5095 17.2845 24.3702 17.2697 24.2406 17.3079C24.111 17.346 24.0019 17.434 23.9372 17.5526C23.8726 17.6712 23.8576 17.8106 23.8957 17.9402C23.9338 18.0698 24.0221 18.1791 24.1407 18.2438Z" fill="white"/>
<path d="M27.1642 19.8689C27.2798 19.8575 27.5392 19.817 27.8073 19.7766C27.9302 19.7577 28.0447 19.7426 28.1566 19.7309C28.2367 19.7234 28.3267 19.7158 28.4182 19.712C28.6064 19.7082 28.77 19.7234 28.9072 19.7658C29.0781 19.8187 29.1807 19.9105 29.2344 19.9695C29.3239 20.0665 29.4483 20.124 29.5801 20.1298C29.712 20.1356 29.8407 20.0892 29.9384 20.0004C30.0361 19.9116 30.0947 19.7876 30.1015 19.6557C30.1083 19.5239 30.0627 19.3949 29.9746 19.2966C29.8299 19.1374 29.5885 18.9296 29.203 18.8103C28.9252 18.7241 28.6432 18.706 28.3924 18.712C28.2676 18.7152 28.1512 18.7233 28.0549 18.7346C27.9199 18.7497 27.7873 18.7685 27.6574 18.7863C27.3717 18.8297 27.1498 18.8635 27.0622 18.8726C26.9311 18.8871 26.8111 18.9529 26.7282 19.0555C26.6453 19.1581 26.6064 19.2892 26.6198 19.4204C26.6332 19.5517 26.6978 19.6723 26.7997 19.7561C26.9016 19.8398 27.0328 19.8812 27.1642 19.8689Z" fill="white"/>
<path d="M29.9585 19.9446C29.9699 19.937 29.9963 19.9217 30.039 19.8975C30.0693 19.8787 30.1118 19.8588 30.1643 19.8327C30.2546 19.7877 30.3687 19.7337 30.5078 19.6717C30.5305 19.6604 30.5539 19.6528 30.5777 19.6415C30.7727 19.5557 31.0537 19.4368 31.4017 19.3008C31.7229 19.1753 32.039 19.0593 32.3048 18.9697C32.4507 18.9206 32.5679 18.8843 32.6594 18.8579C32.7138 18.8427 32.7565 18.8315 32.7902 18.8239C32.8348 18.8126 32.8602 18.8088 32.8734 18.805C33.0049 18.7821 33.1221 18.708 33.1992 18.599C33.2763 18.4901 33.3071 18.3551 33.285 18.2235C33.2629 18.0918 33.1895 17.9741 33.0811 17.8964C32.9726 17.8186 32.8377 17.7869 32.706 17.8082C32.6663 17.8158 32.6159 17.8233 32.5505 17.8422C32.5021 17.8535 32.4459 17.8687 32.3805 17.8876C32.2712 17.9178 32.1393 17.9602 31.9828 18.0131C31.6982 18.1087 31.3663 18.2307 31.0337 18.3607C30.6724 18.5021 30.3785 18.6261 30.1705 18.7176C30.1441 18.7289 30.1201 18.7402 30.0955 18.7515C29.9466 18.818 29.819 18.8782 29.7126 18.9314C29.6506 18.9617 29.598 18.9901 29.5534 19.0143C29.4903 19.0483 29.4462 19.0755 29.4148 19.0959C29.3026 19.1684 29.2236 19.2824 29.1952 19.4129C29.1668 19.5434 29.1911 19.68 29.263 19.7926C29.3349 19.9052 29.4484 19.9845 29.5788 20.0136C29.7092 20.0427 29.8456 20.0159 29.9585 19.9446Z" fill="white"/>
<path d="M32.6799 18.1311C32.6149 18.1942 32.1804 18.5945 31.9357 18.8596C31.8276 18.9767 31.6976 19.1275 31.571 19.2976C31.39 19.5403 31.238 19.7911 31.1223 20.0545C31.0373 20.2484 30.9874 20.4132 30.9542 20.5422C30.9065 20.7262 30.8851 20.8718 30.8771 20.9449C30.8658 21.0585 30.8999 21.1717 30.9717 21.2603C31.0435 21.3489 31.1473 21.4056 31.2607 21.4181C31.3741 21.4305 31.4879 21.3979 31.5772 21.327C31.6666 21.256 31.7244 21.1526 31.738 21.0393C31.7418 20.9921 31.7532 20.8934 31.7895 20.7717C31.8159 20.687 31.8581 20.5749 31.9295 20.4441C32.0278 20.2638 32.1585 20.085 32.321 19.899C32.4359 19.7675 32.5534 19.6478 32.6543 19.5465C32.8301 19.3697 33.3397 18.8759 33.372 18.8446C33.4665 18.7528 33.5208 18.6273 33.5228 18.4955C33.5248 18.3638 33.4746 18.2367 33.3828 18.1421C33.2911 18.0476 33.1653 17.9933 33.0336 17.9913C32.9018 17.9893 32.7745 18.0393 32.6799 18.1311Z" fill="white"/>
<path d="M30.6039 21.154C30.6341 21.1975 30.6976 21.3003 30.7672 21.4749C30.7936 21.538 30.8246 21.6276 30.8548 21.7383C30.9089 21.9368 30.9499 22.1861 30.9386 22.4401C30.9272 22.6744 30.8751 22.8609 30.7965 22.996C30.753 23.0709 30.7039 23.1269 30.6532 23.17C30.5803 23.2319 30.5033 23.2678 30.4417 23.2901C30.3206 23.3338 30.2219 23.4237 30.1672 23.5402C30.1124 23.6567 30.1062 23.7901 30.1499 23.9111C30.1935 24.0322 30.2835 24.1309 30.3999 24.1857C30.5164 24.2404 30.6498 24.2466 30.7709 24.203C30.902 24.1557 31.0928 24.07 31.2816 23.9098C31.415 23.7964 31.5362 23.6553 31.6359 23.4842C31.8117 23.1822 31.8927 22.8342 31.9086 22.4837C31.9237 22.1045 31.8644 21.7524 31.7919 21.4844C31.7503 21.3309 31.7054 21.2062 31.6692 21.1155C31.569 20.8645 31.4662 20.6987 31.4163 20.6227C31.3458 20.5151 31.2353 20.4398 31.1093 20.4135C30.9833 20.3873 30.8522 20.4122 30.7446 20.4827C30.6369 20.5532 30.5616 20.6635 30.5353 20.7895C30.5091 20.9155 30.5333 21.0464 30.6039 21.154Z" fill="white"/>
<path d="M31.5859 23.5729C31.4706 23.5881 31.2943 23.6108 31.1395 23.6232C31.0877 23.627 31.0412 23.6308 31.0022 23.6308C30.9682 23.6319 30.9449 23.6316 30.9317 23.6308C30.9241 23.6305 30.9271 23.6304 30.9317 23.6308C30.934 23.6312 30.9437 23.6328 30.9626 23.6382C30.9777 23.642 31.0151 23.6533 31.0608 23.6809C31.0835 23.696 31.1142 23.715 31.146 23.746C31.1762 23.7762 31.2121 23.8182 31.2401 23.8749C31.2665 23.9312 31.2858 23.9946 31.2892 24.0622C31.2925 24.1272 31.2817 24.1855 31.2666 24.2339C31.2515 24.28 31.2325 24.3164 31.214 24.3432C31.1951 24.3697 31.1801 24.3893 31.1665 24.4036C31.14 24.4301 31.1193 24.4467 31.1091 24.4539C31.0977 24.4615 31.0901 24.4652 31.0901 24.4652C31.0864 24.4673 31.0975 24.462 31.1164 24.4539C31.1353 24.4464 31.1603 24.435 31.1939 24.4237C31.2574 24.401 31.3426 24.3765 31.4495 24.3485C31.6491 24.296 31.9136 24.238 32.2166 24.1877C32.511 24.139 32.8288 24.0998 33.1411 24.0798C33.4669 24.0609 33.7637 24.0607 34.0159 24.0871C34.1505 24.1023 34.2654 24.1212 34.3622 24.1469C34.4684 24.1733 34.5458 24.2052 34.6014 24.2343C34.6649 24.2683 34.6954 24.2963 34.7116 24.3148C34.7305 24.3375 34.7383 24.3537 34.7421 24.37C34.7715 24.4965 34.8498 24.6062 34.9601 24.6749C35.0703 24.7436 35.2033 24.7657 35.3299 24.7363C35.4564 24.7069 35.5661 24.6285 35.6348 24.5183C35.7036 24.408 35.7256 24.275 35.6962 24.1485C35.6622 24.0068 35.5949 23.8358 35.4528 23.6724C35.3485 23.5526 35.2169 23.4506 35.0591 23.3674C34.9241 23.2964 34.7731 23.2408 34.6076 23.1981C34.4568 23.1592 34.2934 23.1313 34.1204 23.1132C33.7988 23.0792 33.4444 23.079 33.0807 23.1017C32.73 23.1243 32.379 23.1676 32.0576 23.2209C31.7273 23.2757 31.4327 23.3398 31.2018 23.4006C31.0778 23.4346 30.9699 23.4654 30.8795 23.4964C30.8315 23.5115 30.7869 23.5305 30.7457 23.546C30.7038 23.5649 30.6604 23.5836 30.6195 23.6055C30.5969 23.6168 30.5734 23.632 30.548 23.6498C30.5216 23.6687 30.4894 23.6937 30.4558 23.7296C30.4369 23.7485 30.4173 23.773 30.3976 23.8036C30.3787 23.8339 30.3553 23.8754 30.339 23.9257C30.3201 23.9782 30.3125 24.0403 30.3125 24.1091C30.3162 24.1809 30.3352 24.2482 30.3646 24.3079C30.3949 24.368 30.432 24.4137 30.4664 24.447C30.5004 24.481 30.5364 24.5047 30.5639 24.5213C30.6203 24.5553 30.672 24.5713 30.7026 24.5797C30.7404 24.591 30.7721 24.5948 30.7967 24.5986C30.8269 24.6023 30.8529 24.6059 30.8756 24.6059C30.9293 24.609 30.983 24.6089 31.0336 24.6073C31.0933 24.6056 31.1565 24.5998 31.2189 24.596C31.4018 24.5809 31.6 24.5558 31.7185 24.54C31.8472 24.5225 31.9635 24.4548 32.0422 24.3515C32.1208 24.2482 32.1555 24.118 32.1381 23.9893C32.1208 23.8607 32.0531 23.7442 31.9499 23.6655C31.8467 23.5867 31.7164 23.552 31.5877 23.5693L31.5859 23.5729Z" fill="white"/>
<path d="M35.7787 24.4044C36.253 23.6821 37.2641 22.2171 38.8638 20.6202C40.4147 19.0723 42.942 16.9715 46.6644 15.3422C52.4252 12.8207 57.7017 12.8562 60.5269 13.1149C60.6628 13.1271 60.7981 13.0849 60.9029 12.9975C61.0078 12.9101 61.0736 12.7848 61.0861 12.6489C61.0986 12.513 61.0566 12.3777 60.9694 12.2727C60.8822 12.1677 60.7569 12.1015 60.621 12.0888C57.6933 11.8205 52.226 11.7834 46.2517 14.3982C42.3853 16.0904 39.755 18.2753 38.1363 19.891C36.4677 21.5564 35.4128 23.0848 34.9178 23.8385C34.8444 23.9527 34.819 24.0912 34.8472 24.224C34.8754 24.3567 34.9549 24.4729 35.0684 24.5474C35.1818 24.6219 35.3201 24.6488 35.4532 24.6219C35.5862 24.595 35.703 24.517 35.7787 24.4044Z" fill="white"/>
<path d="M60.3488 12.4231C60.0733 12.5338 59.5623 12.7613 59.0164 13.1823C58.8947 13.276 58.7728 13.3782 58.6519 13.4893C58.455 13.67 58.2269 13.9059 57.9917 14.2093C57.4799 14.8692 57.0482 15.7024 56.7232 16.7602C56.4355 17.6967 56.2739 18.6701 56.1739 19.5632C56.0529 20.6437 56.003 21.8803 55.9887 22.1884C55.9835 22.3244 56.0322 22.457 56.1243 22.5573C56.2164 22.6575 56.3445 22.7173 56.4805 22.7236C56.6165 22.7299 56.7495 22.682 56.8505 22.5907C56.9515 22.4994 57.0122 22.3721 57.0196 22.2362C57.0347 21.9157 57.0831 20.7173 57.1995 19.6779C57.2955 18.8201 57.4479 17.916 57.7098 17.0633C58.0038 16.1064 58.3828 15.3889 58.8072 14.8416C59.0026 14.5895 59.1906 14.3959 59.3504 14.249C59.4491 14.1582 59.548 14.0756 59.6466 13.9996C60.0892 13.6583 60.5051 13.4728 60.7341 13.3807C60.861 13.3296 60.9625 13.23 61.0162 13.1041C61.0698 12.9782 61.0714 12.8361 61.0203 12.7091C60.9692 12.5822 60.8697 12.4807 60.7437 12.427C60.6178 12.3734 60.4758 12.372 60.3488 12.4231Z" fill="white"/>
<path d="M56.4153 21.721C56.0661 21.6798 55.4109 21.6295 54.6356 21.7898C54.4425 21.8298 54.2451 21.8817 54.0446 21.9482C53.7668 22.0405 53.4381 22.1745 53.0787 22.3769C52.2489 22.8439 51.4331 23.5735 50.6828 24.6355C50.0184 25.576 49.5084 26.6322 49.1273 27.6394C48.6114 29.0029 48.3791 30.1303 48.2784 30.6679C48.2531 30.803 48.2824 30.9426 48.3601 31.0561C48.4377 31.1696 48.5573 31.2476 48.6925 31.273C48.8276 31.2983 48.9673 31.2687 49.0807 31.1911C49.1942 31.1134 49.2723 30.9938 49.2976 30.8586C49.3921 30.3543 49.6128 29.286 50.0971 28.0065C50.4566 27.0565 50.9293 26.0838 51.5299 25.2336C52.2043 24.2791 52.9097 23.6621 53.5874 23.2807C53.8814 23.1151 54.1482 23.0063 54.3708 22.9326C54.5318 22.8793 54.6904 22.8371 54.8453 22.805C55.468 22.6765 55.9996 22.7156 56.2935 22.7503C56.4297 22.7657 56.5666 22.7266 56.6739 22.6414C56.7813 22.5563 56.8505 22.432 56.8665 22.2959C56.8826 22.1598 56.8443 22.0228 56.7597 21.915C56.6752 21.8072 56.5513 21.7378 56.4153 21.721Z" fill="white"/>
<path d="M48.8559 30.7546C48.6408 30.5558 48.2213 30.2081 47.5414 29.9308C47.4281 29.8847 47.309 29.8408 47.1839 29.8C46.888 29.7036 46.5051 29.6065 46.024 29.5442C45.0991 29.424 44.0178 29.4576 42.7912 29.6602C41.701 29.8401 40.6757 30.1244 39.8657 30.3908C39.4101 30.5408 39.0283 30.6829 38.7399 30.7972C38.3344 30.9579 38.078 31.0773 37.9545 31.137C37.8282 31.1982 37.7315 31.307 37.6855 31.4395C37.6395 31.572 37.6481 31.7174 37.7092 31.8436C37.7704 31.9698 37.8791 32.0666 38.0117 32.1126C38.1442 32.1586 38.2896 32.15 38.4158 32.0888C38.5167 32.0401 38.7496 31.9312 39.1298 31.7804C39.4008 31.6731 39.7624 31.5383 40.196 31.3956C40.9697 31.1413 41.9408 30.8727 42.9635 30.7038C44.1142 30.5137 45.0885 30.4891 45.8874 30.5931C46.2998 30.6468 46.6186 30.7283 46.8563 30.8058C46.9572 30.8398 47.0525 30.8734 47.1417 30.91C47.67 31.1255 47.9845 31.3893 48.1378 31.531C48.2408 31.6263 48.3773 31.6766 48.5175 31.6711C48.6576 31.6656 48.7897 31.6047 48.885 31.5017C48.9802 31.3988 49.0307 31.2622 49.0252 31.122C49.0197 30.9819 48.9589 30.8498 48.8559 30.7546Z" fill="white"/>
<path d="M38.0482 31.1701C38.0085 31.1965 37.9374 31.2457 37.8304 31.3292C37.7892 31.3632 37.7417 31.3996 37.6876 31.4446C37.6574 31.4672 37.6258 31.4963 37.588 31.5288C37.4553 31.6421 37.2708 31.8058 37.0233 32.039C36.6604 32.3811 36.206 32.8313 35.7093 33.3514C35.2429 33.8399 34.8082 34.3178 34.4592 34.7242C34.2604 34.9555 34.1012 35.1503 33.9757 35.3115C33.9001 35.409 33.8383 35.4918 33.7877 35.5632C33.7193 35.6592 33.6723 35.7321 33.6387 35.7877C33.5695 35.9027 33.549 36.0408 33.5815 36.1711C33.6139 36.3013 33.6968 36.4133 33.8119 36.4825C33.927 36.5516 34.0648 36.5722 34.1951 36.5397C34.3254 36.5072 34.4373 36.4243 34.5065 36.3092C34.5254 36.279 34.558 36.2268 34.6128 36.1494C34.654 36.0915 34.707 36.0203 34.775 35.933C34.888 35.7875 35.0364 35.6057 35.2272 35.3837C35.5624 34.9933 35.9849 34.5286 36.4415 34.0504C36.9276 33.5413 37.3691 33.1041 37.7174 32.7758C37.9544 32.5528 38.1263 32.4 38.2454 32.2983C38.2794 32.2681 38.3092 32.2442 38.3338 32.2238C38.381 32.1845 38.4212 32.1525 38.4544 32.1265C38.5391 32.0603 38.5894 32.0263 38.6094 32.0127C38.7212 31.9383 38.7988 31.8224 38.8251 31.6907C38.8515 31.559 38.8246 31.4223 38.7502 31.3105C38.6757 31.1988 38.5598 31.1212 38.4281 31.0948C38.2965 31.0685 38.16 31.0956 38.0482 31.1701Z" fill="white"/>
<path d="M34.3819 35.5538C34.3517 35.5274 34.3022 35.4855 34.2315 35.43C34.1816 35.3906 34.1218 35.3453 34.05 35.292C33.9294 35.2028 33.7828 35.0985 33.6101 34.9794C33.3406 34.7939 32.9571 34.5374 32.471 34.2281C32.0662 33.9707 31.6642 33.7236 31.3205 33.5222C31.1304 33.4107 30.9712 33.321 30.8405 33.25C30.7622 33.2077 30.6959 33.1729 30.6396 33.1446C30.5636 33.1064 30.5067 33.08 30.464 33.0615C30.3372 33.0067 30.1939 33.0042 30.0654 33.0548C29.9368 33.1055 29.8335 33.2051 29.7782 33.3317C29.7228 33.4582 29.7198 33.6017 29.7699 33.7305C29.82 33.8593 29.9192 33.963 30.0455 34.0189C30.0682 34.0302 30.1087 34.049 30.1699 34.0781C30.2156 34.1008 30.2727 34.1311 30.3434 34.1693C30.4617 34.2331 30.6101 34.317 30.7925 34.4239C31.1228 34.6175 31.5141 34.8577 31.9106 35.11C32.3863 35.4127 32.7591 35.6621 33.0068 35.8327C33.1833 35.9544 33.3201 36.052 33.4295 36.1328C33.4945 36.1808 33.5459 36.2201 33.5863 36.2519C33.6434 36.2969 33.6763 36.3247 33.694 36.3402C33.7983 36.4316 33.9343 36.4778 34.0726 36.4687C34.2109 36.4596 34.34 36.396 34.4313 36.2918C34.5226 36.1876 34.5687 36.0513 34.5596 35.913C34.5505 35.7747 34.4862 35.6452 34.3819 35.5538Z" fill="white"/>
<path d="M17.6776 34.307C17.7336 34.2805 17.8591 34.2268 18.1182 34.13C18.2449 34.0828 18.3952 34.0288 18.5718 33.9672C18.6349 33.9445 18.7064 33.9203 18.7865 33.8931C19.1954 33.7536 19.776 33.5631 20.4864 33.3441C21.1009 33.1547 21.6999 32.9789 22.2011 32.841C22.48 32.7642 22.7072 32.705 22.8876 32.6608C23.1435 32.5981 23.2813 32.5707 23.3525 32.5586C23.4202 32.5469 23.4849 32.522 23.543 32.4852C23.6011 32.4485 23.6513 32.4007 23.6909 32.3445C23.7305 32.2883 23.7586 32.2247 23.7737 32.1577C23.7888 32.0906 23.7905 32.0212 23.7788 31.9535C23.767 31.8858 23.7419 31.821 23.7052 31.763C23.6684 31.7049 23.6206 31.6547 23.5645 31.6151C23.5083 31.5755 23.4449 31.5474 23.3778 31.5323C23.3108 31.5172 23.2414 31.5155 23.1737 31.5272C23.0724 31.5461 22.9102 31.5775 22.6378 31.6444C22.4458 31.6916 22.2092 31.7532 21.9231 31.8322C21.4097 31.9735 20.8005 32.1525 20.1782 32.3443C19.4583 32.5662 18.8675 32.7596 18.4481 32.9028C18.3657 32.9292 18.2925 32.9565 18.2271 32.9791C18.0449 33.0426 17.8873 33.0993 17.7524 33.1496C17.4753 33.2528 17.3268 33.3168 17.2444 33.3542C17.118 33.4117 17.0196 33.5168 16.9708 33.6467C16.9221 33.7767 16.927 33.9208 16.9844 34.0472C17.0419 34.1736 17.1472 34.272 17.2772 34.3208C17.4071 34.3695 17.5513 34.3644 17.6776 34.307Z" fill="white"/>
<path d="M23.3086 31.9259C23.2973 31.9689 23.2783 32.0494 23.2371 32.1994C23.2069 32.3057 23.1732 32.4368 23.1301 32.5941C23.0708 32.8115 23.0048 33.0495 22.9398 33.283C22.9425 33.2716 22.8539 33.5899 22.8565 33.5801C22.7628 33.9134 22.6641 34.2616 22.5772 34.5642C22.5318 34.7222 22.494 34.8521 22.463 34.9566C22.4195 35.104 22.3954 35.1837 22.3818 35.2272C22.3423 35.3558 22.3554 35.4948 22.4182 35.6138C22.481 35.7328 22.5885 35.8221 22.7169 35.862C22.8454 35.902 22.9844 35.8893 23.1036 35.827C23.2228 35.7646 23.3123 35.6575 23.3527 35.5291C23.3678 35.4796 23.3939 35.3946 23.4385 35.2438C23.4688 35.1368 23.5086 35.0049 23.5543 34.8454C23.6424 34.54 23.7414 34.1899 23.8355 33.8551C23.8382 33.8437 23.9164 33.5658 23.919 33.5563C23.9844 33.3216 24.0509 33.0821 24.111 32.8627C24.1544 32.7039 24.1903 32.571 24.2194 32.4622C24.2606 32.3087 24.2825 32.2229 24.2946 32.1734C24.3274 32.0426 24.3069 31.9041 24.2376 31.7884C24.1683 31.6727 24.0561 31.5891 23.9253 31.5563C23.7945 31.5235 23.656 31.544 23.5403 31.6133C23.4246 31.6825 23.3415 31.7951 23.3086 31.9259Z" fill="white"/>
<path d="M23.5725 35.7055C23.5801 35.6979 23.5991 35.6865 23.632 35.6619C23.6585 35.643 23.6902 35.6228 23.7333 35.5959C23.8078 35.5491 23.9034 35.4922 24.0217 35.4257C24.0636 35.403 24.107 35.378 24.152 35.3535C24.31 35.2673 24.5267 35.1532 24.7896 35.0236C25.0663 34.8871 25.3419 34.7587 25.576 34.6582C25.7034 34.6034 25.8062 34.5621 25.8867 34.5322C25.9344 34.5133 25.972 34.5022 26.0007 34.4923C26.0396 34.481 26.0612 34.4734 26.0717 34.4734C26.202 34.4419 26.3147 34.3599 26.3845 34.2455C26.4544 34.1311 26.476 33.9938 26.4445 33.8635C26.4131 33.7332 26.331 33.6205 26.2166 33.5507C26.1022 33.4808 25.9647 33.4592 25.8344 33.4907C25.7966 33.4983 25.749 33.5134 25.6886 33.5327C25.6436 33.5478 25.5927 33.5667 25.5333 33.5871C25.4343 33.6249 25.316 33.6718 25.1769 33.7315C24.9229 33.8408 24.6304 33.9767 24.3416 34.1195C24.0661 34.2556 23.8375 34.376 23.6678 34.4686C23.6194 34.495 23.5721 34.5211 23.5264 34.5468C23.3979 34.619 23.2872 34.6842 23.1953 34.7417C23.1417 34.7757 23.0962 34.8053 23.0576 34.8321C23.0028 34.8699 22.9644 34.8993 22.9361 34.9223C22.8324 35.0069 22.7664 35.1293 22.7527 35.2623C22.7389 35.3954 22.7787 35.5284 22.8629 35.6324C22.9472 35.7363 23.0692 35.8026 23.2023 35.8167C23.3353 35.8308 23.4684 35.7895 23.5725 35.7055Z" fill="white"/>
<path d="M26.1806 34.6095C26.1995 34.6126 26.2416 34.6172 26.3164 34.6323C26.3697 34.6399 26.4354 34.6511 26.5144 34.6662C26.6459 34.6889 26.7918 34.714 26.9303 34.7382C26.9289 34.7379 27.0105 34.7532 27.009 34.7532C27.1734 34.7834 27.3483 34.8136 27.501 34.8416C27.5796 34.8567 27.6443 34.868 27.6957 34.8794C27.7686 34.8945 27.8068 34.9021 27.8265 34.9059C27.9553 34.9316 28.0889 34.9054 28.1984 34.8328C28.3078 34.7602 28.3842 34.6473 28.4106 34.5186C28.437 34.3899 28.4111 34.2561 28.3391 34.1463C28.267 34.0365 28.1546 33.9594 28.026 33.9324C27.9996 33.9286 27.9564 33.9173 27.88 33.9022C27.826 33.8909 27.7594 33.8797 27.6793 33.8646C27.524 33.8344 27.3469 33.8044 27.181 33.7749C27.1796 33.7746 27.1027 33.7599 27.1012 33.7599C26.9614 33.7372 26.8137 33.7094 26.68 33.6867C26.5995 33.6716 26.5319 33.6604 26.4763 33.6528C26.3981 33.6415 26.353 33.634 26.3266 33.6302C26.1965 33.6112 26.064 33.6446 25.9584 33.723C25.8528 33.8014 25.7827 33.9184 25.7633 34.0485C25.7439 34.1785 25.7767 34.311 25.8548 34.4169C25.9329 34.5227 26.0505 34.5897 26.1806 34.6095Z" fill="white"/>
<path d="M27.7668 35.0627L27.7705 35.065C27.7705 35.065 27.7819 35.0726 27.7971 35.0839C27.8197 35.1028 27.85 35.1375 27.8882 35.1965C27.892 35.2041 27.8994 35.2116 27.9032 35.2191C27.9765 35.3382 28.0505 35.5025 28.1507 35.7854C28.1885 35.8909 28.2298 36.0149 28.2672 36.1204C28.3069 36.2326 28.3483 36.3444 28.3941 36.445C28.4167 36.499 28.4456 36.5523 28.475 36.603C28.5091 36.6578 28.5458 36.7142 28.5927 36.7663C28.6475 36.8275 28.7177 36.8869 28.8031 36.9296C28.8549 36.9561 28.9091 36.9738 28.9639 36.9848C29.0319 36.9999 29.0933 36.9999 29.1447 36.9924C29.2756 36.9787 29.3958 36.9136 29.4787 36.8115C29.5617 36.7094 29.6008 36.5786 29.5874 36.4477C29.574 36.3168 29.5094 36.1967 29.4075 36.1135C29.3056 36.0303 29.1748 35.9908 29.0439 36.0039C29.0741 36.0007 29.1135 36.0007 29.1551 36.0076C29.1891 36.0152 29.2203 36.0265 29.2483 36.0378C29.2952 36.0605 29.3221 36.0881 29.3323 36.0994C29.3398 36.107 29.3399 36.1108 29.3313 36.0957C29.3238 36.0844 29.3123 36.0616 29.2972 36.0314C29.2707 35.9709 29.2393 35.8919 29.2019 35.7857C29.1607 35.6693 29.1264 35.5667 29.0852 35.4503C28.9771 35.1456 28.8755 34.903 28.747 34.6945C28.7357 34.6794 28.728 34.6642 28.7205 34.6502C28.6457 34.5353 28.56 34.4296 28.4598 34.34C28.3929 34.2799 28.324 34.2313 28.254 34.1923C28.1539 34.1364 28.0643 34.1079 28.0001 34.092C27.8721 34.0611 27.7371 34.0823 27.6247 34.1508C27.5124 34.2194 27.4318 34.3297 27.4007 34.4576C27.3697 34.5855 27.3907 34.7207 27.4591 34.8332C27.5275 34.9457 27.6376 35.0263 27.7655 35.0576L27.7668 35.0627Z" fill="white"/>
<path d="M29.354 33.4754C29.32 33.5881 29.283 33.7563 29.2633 34.0007C29.252 34.1292 29.2481 34.2638 29.2481 34.4076C29.2482 34.4416 29.2488 34.4814 29.2495 34.5223C29.2533 34.7895 29.2797 35.1609 29.2797 35.52C29.2797 35.8454 29.2531 36.1135 29.184 36.3371C29.1462 36.4576 29.0989 36.5537 29.0467 36.6323C28.973 36.7435 28.8903 36.8185 28.8253 36.8688C28.7193 36.9504 28.6503 37.0709 28.6331 37.2035C28.6159 37.3361 28.6521 37.4699 28.7337 37.5758C28.8153 37.6817 28.9358 37.751 29.0684 37.7682C29.201 37.7854 29.3348 37.7493 29.4407 37.6676C29.5658 37.5713 29.7357 37.418 29.8876 37.1892C29.9949 37.0274 30.0817 36.8451 30.1464 36.6388C30.2609 36.2726 30.288 35.8864 30.288 35.5204C30.2881 35.1043 30.2616 34.7416 30.2578 34.5043C30.2572 34.4665 30.257 34.4352 30.2569 34.4046C30.2564 34.281 30.2599 34.1754 30.2682 34.0817C30.2833 33.9101 30.3075 33.8081 30.3226 33.7548C30.3584 33.6267 30.342 33.4896 30.2772 33.3735C30.2123 33.2573 30.1042 33.1717 29.9764 33.1349C29.8486 33.0981 29.7115 33.1133 29.5948 33.1771C29.4782 33.241 29.3918 33.3479 29.354 33.4754Z" fill="white"/>
</svg>
