<svg width="100" height="95" viewBox="0 0 100 95" fill="none" xmlns="http://www.w3.org/2000/svg">
<path d="M27.8389 52.3038C27.2534 53.3604 26.6241 54.3915 26.0008 55.4259C25.1256 56.8166 24.2249 58.1913 23.2872 59.5407C22.0484 61.2191 20.678 62.7936 19.2904 64.3492C17.9474 65.816 16.5113 67.1915 15.1136 68.6048C13.8061 69.9282 12.47 71.22 11.0576 72.4312C9.7636 73.58 8.36596 74.6004 6.92643 75.5571C5.32335 76.5454 3.84686 77.7126 2.34992 78.8496C1.78601 79.3887 0.780149 79.8202 0.334176 80.466C0.212776 80.6417 0.133645 80.9383 0.0690975 81.1466C-0.0886369 81.2449 0.0519681 81.468 0.20842 81.3696C0.470028 81.3825 0.716883 81.4193 0.976781 81.3398C1.31106 81.2346 1.65046 80.9601 1.92177 80.7629C2.52112 80.3274 2.51229 80.3263 3.11724 79.8563C4.5872 78.7287 6.05499 77.5969 7.63165 76.6183C9.11337 75.6312 10.5523 74.5794 11.8776 73.387C13.3134 72.1497 14.6813 70.8409 16.0108 69.49C17.4177 68.0545 18.8742 66.6667 20.1978 65.1512C21.5977 63.5454 23.0029 61.9397 24.2262 60.1918C25.1734 58.8146 26.1048 57.4247 26.9573 55.9863C27.5626 54.9158 28.1828 53.8528 28.7489 52.7608C29.0708 52.1173 28.1606 51.6604 27.8389 52.3038Z" fill="#BBBBBB"/>
<path d="M31.9426 49.3967C32.3256 48.5121 32.6865 47.6184 33.0747 46.7361C33.4094 45.7935 33.9815 44.9424 34.2696 43.9854C34.3354 43.7345 34.2567 43.4748 34.2952 43.2225C34.308 43.131 34.3517 43.0459 34.38 42.9578C34.4445 42.8351 34.2714 42.7433 34.2065 42.8664C34.15 42.9386 34.1054 43.0228 34.0366 43.0831C33.8378 43.2558 33.5631 43.3281 33.394 43.5421C32.7855 44.3623 32.5054 45.377 32.0561 46.2863C31.6628 47.1718 31.29 48.0644 30.9525 48.9727C30.6524 49.6727 31.6425 50.0969 31.9426 49.3967Z" fill="#BBBBBB"/>
<path d="M53.9143 21.4404C54.8129 21.272 55.726 21.202 56.6327 21.0895C57.4238 20.9433 58.2185 21.0207 59.0139 21.0467C59.7242 20.8561 58.9607 21.1092 59.6852 20.6851C59.7656 20.6385 59.8627 20.6308 59.9516 20.6039C60.1393 20.591 60.1179 20.3234 59.9302 20.3384C59.8456 20.3256 59.7498 20.3384 59.6745 20.2999C58.4687 19.6354 60.2848 20.3948 59.0797 19.9203C58.2184 19.8502 57.3555 19.8695 56.4991 19.9926C55.557 20.1067 54.6117 20.202 53.6772 20.3696C52.9206 20.5376 53.1579 21.6085 53.9143 21.4404Z" fill="#BBBBBB"/>
<path d="M62.4636 21.0129C63.3311 20.8308 64.2389 20.8688 65.1224 20.8616C66.3974 20.9171 67.6715 20.9893 68.947 21.0321C70.3869 21.0449 71.8241 21.1339 73.2626 21.1899C74.6946 21.2929 76.1259 21.3882 77.5613 21.4361C79.2392 21.4972 80.9184 21.419 82.5933 21.3241C84.3156 21.2314 86.0371 21.13 87.7584 21.0206C89.2413 20.9197 90.7276 20.8996 92.2131 20.8919C93.3258 20.909 94.4352 20.8919 95.5454 20.8163C96.4205 20.7496 97.2981 20.7345 98.1753 20.72C98.5292 20.6815 98.9439 20.7821 99.2846 20.6385C99.4591 20.565 99.7089 20.3344 99.8539 20.2105C100.025 20.1891 99.9945 19.9468 99.8239 19.9686C99.641 19.8682 99.4776 19.7275 99.282 19.6557C98.9285 19.5257 98.5231 19.6095 98.1591 19.589C97.2618 19.6018 96.3647 19.6399 95.4689 19.6954C94.381 19.7745 93.2947 19.8339 92.2029 19.8121C90.6979 19.8334 89.1927 19.8664 87.6893 19.9455C85.9717 20.0588 84.256 20.1964 82.5367 20.2861C80.8919 20.3733 79.2429 20.4393 77.5957 20.3824C76.164 20.3384 74.734 20.2584 73.3057 20.1481C71.8637 20.0857 70.4231 19.9886 68.9794 19.9848C67.691 19.9506 66.4051 19.8729 65.1177 19.8139C64.1365 19.8139 63.1339 19.7685 62.1711 19.9865C61.4457 20.1938 61.738 21.2202 62.4636 21.0129Z" fill="#BBBBBB"/>
<path d="M98.2423 20.5857C97.3758 21.236 96.6272 22.0102 95.9273 22.8329C94.8597 24.081 94.0388 25.5012 93.2426 26.9297C92.4621 28.3464 91.6646 29.753 90.9321 31.1955C90.1621 32.6719 89.6635 34.2568 89.2132 35.8528C88.7242 37.5742 88.4138 39.3374 88.1396 41.1033C87.8545 42.9893 87.8003 44.8961 87.6888 46.7968C87.6041 48.8838 87.5173 50.9708 87.3728 53.0548C87.2407 54.7203 87.0916 56.3861 86.8753 58.0433C86.7099 59.5561 86.4027 61.0484 86.0741 62.5331C85.7479 64.0906 85.1626 65.5614 84.5052 67.003C83.7429 68.6332 82.8337 70.1875 81.9346 71.7444C81.091 73.1198 80.2896 74.52 79.4406 75.8922C78.4657 77.3614 77.5566 78.872 76.6244 80.3679C75.7378 81.9573 74.7372 83.4652 73.5916 84.878C72.4741 86.1788 71.2175 87.3461 69.9846 88.5346C68.8803 89.599 67.7182 90.5956 66.5298 91.5639C66.1279 91.8854 65.739 92.223 65.3335 92.54C64.9753 92.82 64.9218 92.6777 64.9004 93.1214C64.9898 93.1971 65.0781 93.2735 65.1671 93.3492C64.8721 93.2722 64.7631 93.689 65.0572 93.766C65.2167 93.8609 65.3767 93.9548 65.5362 94.0493C65.6324 94.0664 65.7289 94.1241 65.8251 94.1049C65.8896 94.092 66.3296 93.719 66.3377 93.7117C66.7195 93.3804 67.081 93.0254 67.4794 92.7133C68.6828 91.7035 69.8778 90.6859 71.0045 89.5897C72.2742 88.3575 73.5409 87.1197 74.7 85.7809C75.89 84.3256 76.9184 82.7651 77.8397 81.1258C78.7747 79.6277 79.6983 78.1229 80.6736 76.6503C81.5226 75.2609 82.3423 73.8542 83.1637 72.4484C84.0739 70.8467 85.0033 69.2534 85.7764 67.5788C85.9691 67.1513 86.3023 66.4259 86.4719 65.9915C86.8729 64.9649 87.1591 63.8966 87.4284 62.8297C87.7601 61.3056 88.056 59.7733 88.2289 58.2216C88.4546 56.5362 88.5661 54.8379 88.6818 53.1421C88.8173 51.0522 88.9157 48.9599 89.017 46.8683C89.1098 45.0099 89.1559 43.1455 89.4337 41.3018C89.694 39.5876 89.984 37.8732 90.4499 36.2008C90.877 34.6828 91.3612 33.1802 92.085 31.7732C92.7941 30.3385 93.5727 28.9406 94.3377 27.5353C95.0857 26.1736 95.8471 24.8131 96.8546 23.6206C97.4885 22.873 98.151 22.1482 98.9249 21.5416C99.6012 21.0585 98.9126 20.1027 98.2423 20.5857Z" fill="#BBBBBB"/>
<path d="M1.1648 81.9268C1.90076 81.9268 2.63672 81.9776 3.365 82.0815C4.11678 82.182 4.85011 82.3735 5.60146 82.4778C6.25561 82.5244 6.88972 82.6958 7.53528 82.7984C8.51191 82.865 9.46256 83.0173 10.407 83.2722C11.844 83.5688 13.2441 83.9961 14.6319 84.4667C16.0171 84.9769 17.4413 85.3652 18.8661 85.7467C20.1832 86.0964 21.5128 86.3979 22.8394 86.7098C24.0253 86.9996 25.2237 87.231 26.4179 87.4826C27.7085 87.8101 29.0279 87.9935 30.343 88.1897C31.7283 88.3461 33.0947 88.6277 34.471 88.8445C35.914 89.095 37.3498 89.3721 38.7973 89.5975C40.2308 89.8176 41.6745 89.9609 43.109 90.1731C44.4572 90.3791 45.7904 90.6658 47.1272 90.9341C48.4458 91.1872 49.7727 91.3903 51.0976 91.6075C52.4474 91.8734 53.8135 92.0333 55.1659 92.2853C56.359 92.5324 57.545 92.7939 58.6974 93.1924C59.6159 93.5395 60.5717 93.7439 61.5298 93.941C62.224 94.0744 62.924 94.1697 63.629 94.218C64.0501 94.2436 64.4724 94.248 64.8942 94.248C65.1699 94.248 65.4456 94.2486 65.7215 94.248C65.9609 94.2651 65.9235 93.9303 65.9294 93.7759C66.2646 93.7759 66.2586 93.2975 65.9167 93.3018C65.9167 93.1466 65.955 92.8119 65.7113 92.8308C65.436 92.8308 65.1605 92.8435 64.885 92.8435C64.4922 92.8435 64.0993 92.8564 63.7068 92.8308C63.0608 92.7966 62.4172 92.7264 61.7821 92.6012C60.8743 92.4366 59.9764 92.2507 59.1084 91.927C57.8908 91.5423 56.6454 91.2728 55.3949 91.0188C54.032 90.7653 52.6574 90.5926 51.2943 90.3408C49.9841 90.1352 48.6734 89.9331 47.3706 89.6839C46.0115 89.4129 44.653 89.1389 43.284 88.9211C41.8515 88.7172 40.4086 88.5958 38.9786 88.3692C37.5325 88.1512 36.0931 87.9043 34.6547 87.6386C33.2773 87.4198 31.9044 87.1727 30.5217 86.9881C29.232 86.782 27.9343 86.6103 26.6673 86.2855C25.4791 86.0273 24.2847 85.7973 23.1029 85.5101C21.7879 85.2254 20.4713 84.9449 19.1724 84.5926C17.7745 84.2079 16.3687 83.845 15.0083 83.3386C13.598 82.8579 12.1751 82.4208 10.7178 82.1028C9.73462 81.8339 8.74523 81.6426 7.72757 81.5655C7.07132 81.4582 6.42193 81.3012 5.75722 81.2508C5.00364 81.1559 4.26164 80.9944 3.50849 80.8969C2.72867 80.8075 1.94335 80.737 1.15775 80.7627C0.335437 80.7627 0.335437 81.9256 1.15775 81.9256L1.1648 81.9268Z" fill="#BBBBBB"/>
<path d="M8.21778 76.1991C9.42238 76.5496 10.6431 76.8336 11.865 77.1161C13.7048 77.5543 15.5772 77.8283 17.4483 78.0892C19.3003 78.3666 21.1548 78.6301 23.0037 78.9272C24.4333 79.1952 25.8769 79.347 27.3206 79.5085C28.5412 79.6637 29.7579 79.8277 30.9701 80.0387C31.8898 80.1665 32.8042 80.3246 33.7182 80.4877C34.5324 80.6091 35.3318 80.8177 36.1243 81.0377C36.9408 81.2847 37.7495 81.5537 38.5784 81.7577C38.9447 81.8142 39.3469 81.9711 39.7195 81.845C40.4493 81.5979 39.7025 81.6715 40.2648 81.6428C40.4286 81.6685 40.4667 81.4385 40.3035 81.4115C39.6403 81.1657 40.5676 81.542 39.7963 81.0863C39.491 80.9059 39.1134 80.9606 38.7842 80.8695C37.9632 80.6921 37.1557 80.4609 36.3406 80.259C35.5283 80.0337 34.7111 79.8206 33.8826 79.6636C32.9683 79.4623 32.048 79.3071 31.1209 79.1766C29.8915 78.9612 28.6572 78.7821 27.4213 78.6068C25.9901 78.4478 24.5626 78.2691 23.1389 78.0515C21.2822 77.777 19.4242 77.5167 17.5649 77.2637C15.7189 77.0016 13.8674 76.743 12.0518 76.3126C10.8674 76.0356 9.68632 75.7451 8.52695 75.3754C7.94457 75.157 7.6357 75.9807 8.21778 76.1991Z" fill="#BBBBBB"/>
<path d="M51.4771 83.9786C52.539 84.1175 53.5774 84.3757 54.622 84.6052C56.3053 85.0138 57.9851 85.4371 59.67 85.8386C61.2026 86.1682 62.72 86.561 64.2395 86.9444C65.2936 87.2018 66.3549 87.4215 67.423 87.6114C68.1177 87.7705 68.8209 87.8858 69.5134 88.0534C69.9246 88.1607 70.3358 88.2513 70.7608 88.2787C71.0254 88.2915 71.071 88.0419 71.2392 87.8923C71.4316 87.9308 71.4848 87.6572 71.2925 87.6201C71.2416 87.5705 71.1826 87.5273 71.1398 87.47C70.897 87.1469 71.1227 87.2623 70.8252 87.1631C70.4644 87.146 70.1037 87.1245 69.7524 87.0326C69.0386 86.8715 68.3137 86.769 67.6002 86.6047C66.552 86.4231 65.5094 86.2157 64.4717 85.9814C62.9423 85.6309 61.4091 85.2986 59.873 84.9792C58.1846 84.5851 56.4803 84.2634 54.7989 83.8383C53.7363 83.5813 52.6767 83.3134 51.5982 83.1316C50.9992 83.0457 50.8781 83.8931 51.4771 83.9786Z" fill="#BBBBBB"/>
<path d="M15.2287 70.1716C16.316 70.4418 17.4263 70.5824 18.5362 70.7221C19.8757 70.9158 21.2293 70.9367 22.5779 71.0124C23.6475 71.1475 24.7277 71.2227 25.7852 71.4382C26.5142 71.6169 27.2589 71.7062 27.995 71.8464C28.5143 71.9357 29.037 72.013 29.545 72.1558C30.0538 72.302 30.5681 72.4278 31.0784 72.5671C31.4584 72.677 31.8559 72.7017 32.2256 72.8415C32.4183 72.9295 32.48 72.7406 32.5548 72.5987C32.7104 72.7085 32.8656 72.4879 32.7095 72.3785C32.7266 72.1857 32.7878 71.9908 32.5642 71.9188C32.165 71.7756 31.7439 71.7264 31.3361 71.6114C30.8254 71.4746 30.3108 71.3537 29.8041 71.2015C29.2677 71.0601 28.7189 70.9723 28.1709 70.889C27.438 70.759 26.6982 70.6711 25.9727 70.5001C24.8702 70.2834 23.745 70.2226 22.6293 70.1021C21.2992 70.0252 19.9647 70.0209 18.6385 69.8798C17.5706 69.7546 16.4979 69.6404 15.4461 69.4125C14.9083 69.2586 14.6912 70.018 15.2287 70.1716Z" fill="#BBBBBB"/>
<path d="M56.4792 76.4124C57.4531 76.5633 58.4279 76.7108 59.3908 76.9215C60.723 77.2353 62.0522 77.5386 63.4064 77.7417C64.8515 77.9606 66.2912 78.2127 67.7322 78.4574C68.7996 78.6326 69.8668 78.8073 70.9343 78.9827C71.8778 79.1729 72.8384 79.1631 73.794 79.2127C74.6685 79.2558 75.5322 79.3973 76.4005 79.4999C76.9803 79.5256 77.55 79.627 78.1222 79.715C78.1231 79.7151 78.3978 79.7692 78.4243 79.7534C78.4585 79.732 78.4416 79.6765 78.4587 79.6415C78.5673 79.444 78.5512 79.5885 78.5555 79.4577C78.6325 79.6222 78.865 79.5141 78.7885 79.3491C78.6979 78.999 78.7152 78.7747 78.2797 78.7599C77.6926 78.656 77.1051 78.5638 76.5082 78.5381C75.6281 78.4453 74.7526 78.311 73.8692 78.2486C72.95 78.1546 72.024 78.1157 71.1119 77.9593C70.0465 77.7631 68.9833 77.5579 67.9086 77.4162C66.4604 77.17 65.0097 76.9397 63.5549 76.7355C62.2193 76.5402 60.9087 76.2302 59.579 76.0013C58.5872 75.8107 57.5897 75.653 56.596 75.4734C55.9328 75.3909 55.8158 76.3295 56.4792 76.4124Z" fill="#BBBBBB"/>
<path d="M22.2817 63.2896C23.1093 63.4397 23.9458 63.529 24.7789 63.6418C25.7168 63.7483 26.6568 63.8358 27.5964 63.9282C28.3806 63.9803 29.1592 64.0821 29.938 64.1843C30.2415 64.2612 30.3558 64.0517 30.537 63.8546C30.7336 63.876 30.7649 63.5982 30.567 63.5764C30.4366 63.3459 30.3742 63.1156 30.0645 63.1206C29.2775 63.0346 28.4916 62.9388 27.7002 62.9034C26.7728 62.805 25.8445 62.7264 24.9174 62.6268C24.0805 62.5101 23.2375 62.4217 22.413 62.231C21.6646 62.137 21.5331 63.1961 22.2817 63.2896Z" fill="#BBBBBB"/>
<path d="M57.7608 67.6067C58.7174 67.5725 59.672 67.6281 60.6245 67.7131C61.912 67.8657 63.2031 67.9975 64.4848 68.1958C65.7343 68.3736 66.9695 68.6309 68.21 68.8593C69.3765 69.0816 70.5337 69.3497 71.7037 69.553C72.8286 69.6924 73.9455 69.8839 75.0647 70.0592C76.0661 70.2387 77.0745 70.3673 78.081 70.5122C78.9002 70.587 79.7057 70.7572 80.5212 70.8564C81.0704 70.9107 81.6192 70.9697 82.1699 71.0043C82.5161 71.0043 82.7296 71.1591 82.8712 70.7863C82.884 70.7367 82.8967 70.688 82.9096 70.638C83.06 70.638 83.0579 70.4234 82.9096 70.4247C82.8967 70.376 82.8839 70.3263 82.8668 70.2772C82.7261 69.9117 82.528 70.0669 82.1913 70.0562C81.6681 70.069 81.1436 70.0732 80.623 70.0074C79.8127 69.9112 79.0102 69.7723 78.2031 69.6535C77.207 69.5137 76.2109 69.3787 75.2241 69.1788C74.1124 68.9492 72.9958 68.7649 71.8686 68.6268C70.7035 68.4135 69.5543 68.1205 68.3861 67.9213C67.1349 67.6815 65.886 67.4276 64.622 67.2601C63.3222 67.0788 62.0158 66.9437 60.714 66.7786C59.7312 66.679 58.7481 66.6426 57.7605 66.6567C57.0889 66.6567 57.0892 67.6067 57.7608 67.6067Z" fill="#BBBBBB"/>
<path d="M57.5474 60.4254C58.3659 60.5024 59.1701 60.6746 59.9712 60.8534C61.347 61.1099 62.7219 61.3705 64.1041 61.5917C65.6914 61.8575 67.2876 62.0506 68.8873 62.2224C70.4436 62.3699 71.9875 62.6177 73.5423 62.778C74.7723 62.8913 75.9905 63.085 77.1997 63.3338C78.2628 63.5399 79.3187 63.7782 80.3905 63.9346C81.3798 64.0675 82.3779 64.1235 83.3753 64.1405H85.0628C85.3535 64.1405 85.6442 64.1535 85.935 64.1535C86.1692 64.0902 86.0422 63.8269 86.0174 63.6534C86.1183 63.8364 86.3771 63.6962 86.2762 63.5111C86.2185 63.2884 86.18 62.9869 85.9329 62.8976C85.6409 62.8976 85.3495 62.9104 85.0576 62.9104C84.5051 62.9232 83.9528 62.9233 83.4006 62.8976C82.4563 62.8762 81.5102 62.8536 80.5732 62.7228C79.5233 62.5587 78.4925 62.2953 77.4465 62.1084C76.195 61.86 74.9359 61.6633 73.6636 61.5567C72.1116 61.4075 70.5715 61.1652 69.0196 61.0154C67.4375 60.8368 65.8532 60.6731 64.2802 60.4235C62.9103 60.2285 61.5526 59.9653 60.1906 59.7221C59.3157 59.5755 58.4329 59.4713 57.5471 59.4204C56.8372 59.4204 56.8374 60.4254 57.5474 60.4254Z" fill="#BBBBBB"/>
<path d="M58.3604 50.6362C59.2008 50.602 60.0388 50.6234 60.8742 50.7208C62.1141 50.8572 63.3375 51.1081 64.5618 51.3406C65.9575 51.6168 67.3492 51.9125 68.7462 52.1816C70.0193 52.4539 71.3152 52.5962 72.5916 52.848C73.7236 53.0886 74.8767 53.1972 76.0168 53.3879C76.9613 53.5653 77.9145 53.6761 78.8739 53.7223C79.8003 53.7663 80.7241 53.85 81.6507 53.8962C82.4932 53.9261 83.3302 54.0361 84.1708 54.0972C84.7936 54.1412 85.418 54.1569 86.0423 54.1492C86.3992 54.1621 86.7562 54.1492 87.1133 54.1492C87.4347 54.1706 87.3728 54.104 87.4506 53.7488C87.6113 53.8971 87.8206 53.6697 87.6599 53.5218C87.6599 52.984 87.6729 52.9387 87.1109 52.9415C86.7578 52.9415 86.405 52.9404 86.0519 52.9415C85.4527 52.9244 84.8528 52.9202 84.2543 52.8839C83.4074 52.8274 82.5641 52.7257 81.716 52.691C80.7863 52.6355 79.8588 52.5388 78.9274 52.52C78.0112 52.4816 77.0958 52.4192 76.1905 52.2658C75.0595 52.1008 73.9221 51.9742 72.7996 51.7552C71.5167 51.5154 70.2251 51.3298 68.9382 51.1132C67.5385 50.8756 66.148 50.5878 64.7551 50.3137C63.5032 50.0756 62.2462 49.8772 60.9796 49.7337C60.1067 49.6431 59.2364 49.6704 58.3601 49.6567C57.6729 49.6567 57.6729 50.6286 58.3601 50.6286L58.3604 50.6362Z" fill="#BBBBBB"/>
<path d="M52.4185 40.762C53.2745 40.6714 54.1281 40.6885 54.9861 40.7278C55.8551 40.806 56.7201 40.921 57.5896 40.994C57.8598 40.9684 58.5184 41.1407 58.7608 41.0241C58.9211 40.9463 59.0249 40.7843 59.1574 40.6654C59.3121 40.6666 59.3134 40.4478 59.1574 40.4469C59.0296 40.3264 58.9326 40.1649 58.7783 40.0802C58.5475 39.9537 57.9196 40.0931 57.6559 40.0247C56.7754 39.9759 55.8993 39.8861 55.0213 39.8058C54.1169 39.7758 53.204 39.7322 52.3089 39.8985C51.6984 39.9742 51.8087 40.8382 52.4185 40.762Z" fill="#BBBBBB"/>
<path d="M61.9504 41.5742C62.8701 41.6546 63.7971 41.6589 64.7202 41.6816C65.9535 41.7115 67.1702 41.9183 68.3908 42.0774C69.8463 42.2607 71.3109 42.3432 72.7716 42.4688C74.1846 42.5787 75.5901 42.7583 77.0043 42.8507C78.3576 42.8973 79.7073 42.9977 81.0582 43.0854C82.0587 43.1452 83.061 43.1657 84.063 43.1768C84.7492 43.1939 85.4351 43.1768 86.1213 43.1775C86.6307 43.1946 87.137 43.1265 87.6455 43.1197C87.7891 43.1026 87.9264 43.1988 87.9682 43.0406C88.6628 43.0405 88.6628 42.0582 87.9682 42.0583C87.9255 41.8993 87.7886 41.9938 87.645 41.9793C87.1363 41.9664 86.6298 41.907 86.1203 41.9237C85.4379 41.9237 84.7556 41.9109 84.0732 41.9237C83.0915 41.9237 82.1096 41.9066 81.1289 41.8583C79.7789 41.7904 78.431 41.6877 77.0794 41.6535C75.6718 41.5697 74.2675 41.4394 72.8598 41.3552C71.4137 41.2513 69.9673 41.1607 68.5283 40.9756C67.2617 40.8268 66.0003 40.605 64.7202 40.6226C63.7971 40.6439 62.8701 40.6481 61.9504 40.7298C61.3499 40.7298 61.3499 41.579 61.9504 41.579V41.5742Z" fill="#BBBBBB"/>
<path d="M63.1901 33.2815C63.982 33.1853 64.7792 33.1353 65.5766 33.149C66.749 33.1874 67.9183 33.2957 69.085 33.4154C70.4924 33.5415 71.8972 33.6935 73.3064 33.8008C74.7243 33.8675 76.1387 33.9741 77.5584 33.9895C78.9604 33.9553 80.3596 34.0108 81.7594 34.0822C82.6153 34.1275 83.4721 34.1489 84.3291 34.1626C84.9648 34.1498 85.6007 34.1626 86.2365 34.1618C86.6572 34.1627 87.0775 34.149 87.498 34.1447C87.8763 34.1447 87.8359 34.2396 87.9248 33.8117C88.2933 33.8117 88.2932 33.2903 87.9246 33.2903C87.8352 32.8624 87.8758 32.9611 87.4975 32.9577C87.0769 32.9449 86.6565 32.9407 86.2357 32.9449C85.6043 32.9449 84.9726 32.9577 84.3413 32.932C83.4973 32.932 82.6534 32.9107 81.8098 32.8825C80.3936 32.8359 78.9768 32.7816 77.5599 32.8385C76.1646 32.8513 74.7763 32.7504 73.3826 32.6923C71.9835 32.6063 70.5905 32.4537 69.1948 32.3267C67.9984 32.2066 66.8003 32.0909 65.5985 32.0447C64.7415 32.0276 63.8827 32.0618 63.0318 32.1716C62.2487 32.2836 62.4071 33.3934 63.1901 33.2815Z" fill="#BBBBBB"/>
<path d="M59.343 25.7581C60.4406 25.7881 61.537 25.7882 62.634 25.8386C64.1794 25.9143 65.7191 26.0668 67.2632 26.1592C68.9006 26.2327 70.5366 26.3318 72.1734 26.4126C73.6163 26.4806 75.0605 26.5156 76.505 26.5225C77.9189 26.5678 79.3311 26.6614 80.7384 26.8059C82.1934 26.9645 83.6291 27.248 85.0845 27.4068C86.0886 27.4927 87.0949 27.5346 88.0993 27.6188C88.8143 27.6786 89.5316 27.7406 90.2488 27.6991C90.8165 27.6346 91.3843 27.5812 91.9549 27.5547C92.0741 27.5334 92.8208 27.5719 92.8571 27.5095C93.0024 27.2325 92.9319 27.3449 93.0546 27.1636C93.2576 27.2722 93.4115 26.9854 93.208 26.8764C93.1234 26.6007 93.174 26.7605 93.0624 26.3975C92.9846 26.3718 92.9081 26.3363 92.8273 26.3192C92.5294 26.2594 92.1936 26.3906 91.8938 26.3534C91.3191 26.3833 90.7457 26.4317 90.1745 26.5039C89.5163 26.5492 88.8547 26.4551 88.1971 26.4291C87.201 26.3487 86.2068 26.2645 85.2084 26.2141C83.7504 26.07 82.3115 25.8037 80.8594 25.6132C79.4137 25.4679 77.9637 25.3786 76.5112 25.335C75.0813 25.3221 73.651 25.335 72.222 25.2854C70.5867 25.2255 68.9528 25.1349 67.3167 25.1157C65.7698 25.0503 64.2244 24.9554 62.6758 24.9349C61.5653 24.8853 60.4542 24.8434 59.343 24.9007C58.7385 24.9007 58.7385 25.7581 59.343 25.7581Z" fill="#BBBBBB"/>
<path d="M34.8918 40.1637C34.7935 41.166 34.7486 42.1722 34.6742 43.1762C34.5725 44.423 34.4854 45.6719 34.4457 46.9224C34.42 48.1108 34.403 49.2993 34.3867 50.488C34.4295 51.7659 34.503 53.0415 34.6103 54.3154C34.7407 55.5274 34.8335 56.7415 35.022 57.9464C35.1682 58.9855 35.4129 60.0096 35.7082 61.0159C36.0091 62.0565 36.4276 63.0507 36.9219 64.0124C37.4413 65.0406 38.2018 65.8773 39.0532 66.6372C39.9301 67.4037 40.9526 67.9763 42.0343 68.3961C43.087 68.7906 44.1733 68.8469 45.2792 68.7398C46.3686 68.5923 47.3224 68.1205 48.1932 67.471C49.0758 66.7387 49.7191 65.8069 50.2434 64.7983C50.7375 63.7477 51.0842 62.6413 51.3303 61.5091C51.6163 60.2585 51.8141 58.9903 51.9849 57.7195C52.2094 56.2104 52.2351 54.6858 52.2761 53.164C52.3291 51.659 52.3304 50.1535 52.327 48.6479C52.3013 47.2477 52.3937 45.8505 52.4475 44.4522C52.5347 43.0286 52.6121 41.6054 52.6698 40.1803C52.6826 39.8832 52.7343 39.2683 52.5928 38.9736C52.5317 38.8462 51.6752 37.8169 51.5918 37.7154C51.6383 37.1101 50.7818 37.0451 50.7357 37.65C50.5737 37.7706 49.6126 38.4683 49.5077 38.6092C49.2674 38.9315 49.2293 39.5404 49.1776 39.9139C49.0203 41.3722 48.944 42.8404 48.9094 44.3064C48.8461 45.7537 48.7498 47.2008 48.7951 48.6504C48.7951 50.1338 48.808 51.6171 48.8165 53.1003C48.8037 54.4829 48.7464 55.8672 48.5955 57.2422C48.4216 58.4201 48.2176 59.5944 47.9641 60.7579C47.7709 61.5921 47.5026 62.4067 47.1553 63.1901C46.8651 63.7462 46.5802 64.3045 46.0976 64.7239C45.7416 65.0098 45.3463 65.228 44.8946 65.3254C44.3352 65.4066 43.7702 65.3913 43.2254 65.2271C42.5126 64.9745 41.859 64.6146 41.2756 64.1287C40.7162 63.6377 40.2116 63.112 39.8446 62.4549C39.4261 61.7029 39.0878 60.9159 38.8539 60.0853C38.594 59.2162 38.3677 58.3349 38.233 57.4369C38.0517 56.3115 37.8951 55.1818 37.7529 54.0507C37.6533 52.8654 37.5819 51.678 37.5327 50.4896C37.5156 49.3257 37.4985 48.1614 37.5199 46.9975C37.5413 45.7835 37.5586 44.5697 37.6462 43.3581C37.6936 42.4139 37.659 41.464 37.7834 40.5253C38.039 38.4798 35.1475 38.1181 34.8918 40.1637Z" fill="#666666"/>
<path d="M53.7858 21.7397C53.743 21.2394 54.0118 20.7494 53.9947 20.2547C53.9947 20.1833 53.9563 20.1162 53.9384 20.0469C53.42 19.5745 53.68 19.8131 53.1575 19.3316C53.2823 18.8263 52.568 18.6497 52.4431 19.1551C51.7542 19.3056 52.0986 19.2176 51.4107 19.4232C51.3475 19.5365 51.2684 19.6424 51.2192 19.7625C51.0342 20.213 51.0669 20.904 50.9677 21.3878C50.7185 23.3806 53.5367 23.7325 53.7858 21.7397Z" fill="#666666"/>
<path d="M54.598 15.1997C54.8134 14.4662 54.9433 13.7184 55.0454 12.9617C55.0711 11.9155 55.0625 10.8656 55.024 9.81976C54.9984 8.71468 54.7342 7.63508 54.4117 6.5839C54.0227 5.4277 53.4536 4.42044 52.7007 3.46715C52.0013 2.61222 51.1919 1.83524 50.2437 1.25808C50.0129 1.11744 49.7683 0.999896 49.5307 0.870375C48.0956 0.183867 46.5269 0.0286401 44.9594 0C43.4424 0.0645472 42.0853 0.449712 40.7064 1.05718C39.7162 1.5624 38.7851 2.16752 37.8688 2.79389C37.053 3.29026 36.3086 3.86938 35.6326 4.54246C34.8469 5.32015 34.2515 6.24183 33.6649 7.17015C33.3541 7.73227 32.5797 8.87218 32.7212 9.54138C32.7639 9.741 32.8734 9.92008 32.9495 10.1092C33.1239 10.3054 33.2982 10.5021 33.4729 10.6985C33.1723 11.2408 33.9392 11.6661 34.2399 11.1238C34.5199 11.1366 34.7998 11.1366 35.0798 11.1452C35.2674 11.1024 35.4696 11.1066 35.6423 11.0237C36.2151 10.7467 36.5419 9.70666 36.893 9.20494C37.3201 8.52416 37.7252 7.83246 38.3058 7.26552C38.83 6.76051 39.4084 6.33204 40.0304 5.95134C40.7781 5.438 41.5404 4.95262 42.3191 4.48754C43.1465 4.05687 44.0365 3.77436 44.9693 3.68853C45.939 3.6586 46.9265 3.67567 47.8372 4.05953C48.6281 4.46092 49.3317 5.00333 49.8759 5.70792C50.3778 6.33847 50.8358 6.99779 51.1478 7.74662C51.4761 8.49058 51.6753 9.28705 51.7713 10.0944C51.8987 10.9561 51.9234 11.8293 51.9683 12.6984C51.9469 13.4042 51.8758 14.1035 51.8193 14.8052C51.5385 16.7703 54.3172 17.1646 54.598 15.1997Z" fill="#666666"/>
<path d="M31.9847 13.4472C31.6402 14.1085 31.373 14.8062 31.1315 15.5105C31.0251 15.8554 30.7839 16.311 31.1015 16.6355C32.0139 17.5639 31.4948 16.6483 31.8125 17.2633C31.7424 17.7978 32.4976 17.8976 32.5681 17.363C32.9596 16.9937 32.4969 17.3629 33.4095 17.118C33.7523 17.024 33.7643 16.7158 33.8491 16.4344C34.0449 15.8512 34.2743 15.28 34.599 14.7549C35.5238 12.9054 32.9094 11.5977 31.9847 13.4472Z" fill="#666666"/>
<path d="M29.6345 33.7089C29.4477 34.8894 29.3241 36.0773 29.2215 37.2679C29.0317 39.3464 28.7945 41.42 28.6595 43.503C28.4702 45.6865 28.3443 47.8716 28.3532 50.0637C28.3319 52.2614 28.5182 54.4477 28.7383 56.6316C28.9559 58.4298 29.2395 60.2204 29.5443 62.0057C29.8243 63.5329 30.2071 65.0404 30.6304 66.5339C30.9715 67.849 31.5126 69.0883 32.0876 70.314C32.6232 71.4508 33.05 72.6332 33.5494 73.7857C34.0611 75.0826 34.6713 76.3262 35.3517 77.5416C36.014 78.802 36.9691 79.8523 38.0015 80.817C38.9756 81.7811 40.1142 82.5229 41.3233 83.1528C42.4987 83.727 43.751 84.1069 45.0271 84.378C45.8634 84.5152 46.6988 84.6917 47.5492 84.7118C48.007 84.7246 48.363 84.6905 48.8138 84.6597C50.1281 84.5512 51.3206 84.0196 52.4568 83.3869C53.4185 82.8491 54.2986 82.1917 55.0421 81.3794C55.8172 80.517 56.2659 79.4785 56.6342 78.3957C56.9744 77.3417 57.1389 76.2519 57.241 75.1529C57.3056 74.1937 57.4851 73.2493 57.5945 72.2953C57.7318 71.2593 57.8287 70.2204 57.8638 69.1759C57.8937 67.7736 57.7835 66.372 57.7344 64.9708C57.6754 63.2223 57.6312 61.4732 57.671 59.7241C57.6966 57.7369 57.8648 55.7587 58.1075 53.7875C58.2635 52.1076 58.6854 50.4789 59.155 48.8648C59.541 47.5286 60.0889 46.2549 60.7345 45.0261C61.0953 44.3185 61.5103 43.7213 62.0954 43.1918C62.1381 43.1619 62.2138 43.1576 62.2172 43.1059C62.2301 42.9986 62.1513 42.9015 62.121 42.7989C61.9153 42.1322 61.9628 42.4258 61.9248 41.8748C62.5866 41.7295 62.3806 40.7933 61.7186 40.9389C61.1787 40.6282 60.6113 40.1414 59.939 40.3689C59.7962 40.4176 59.7129 40.5677 59.5996 40.6673C58.808 41.4939 58.1773 42.425 57.6652 43.4501C56.9435 44.8857 56.3047 46.3583 55.8901 47.9159C55.3682 49.716 54.917 51.5352 54.7577 53.4092C54.5444 55.4845 54.3533 57.5628 54.3061 59.6498C54.2676 61.4586 54.2805 63.2692 54.3061 65.0781C54.3403 66.3941 54.424 67.7112 54.3872 69.0274C54.3364 69.9914 54.2643 70.9539 54.1091 71.9077C54.0048 72.8887 53.8419 73.8627 53.7564 74.846C53.6884 75.6772 53.565 76.4975 53.3277 77.2993C53.1298 77.9205 52.8998 78.5477 52.4772 79.0545C52.0004 79.5918 51.4146 80.0084 50.7949 80.3681C50.0834 80.7537 49.3591 81.1343 48.5378 81.2056C48.3283 81.227 47.9543 81.2677 47.7366 81.2702C47.0445 81.283 46.3606 81.124 45.6817 81.0124C44.7053 80.8466 43.7553 80.5745 42.866 80.1302C41.9247 79.664 41.0563 79.0726 40.2956 78.3448C39.4966 77.6101 38.7206 76.8482 38.1841 75.8919C37.5217 74.8032 36.9593 73.665 36.4525 72.4955C35.9185 71.3287 35.4895 70.1179 34.939 68.9582C34.4254 67.8943 33.9697 66.8082 33.6444 65.67C33.2391 64.274 32.894 62.863 32.5786 61.4439C32.2366 59.7433 31.9459 58.03 31.7379 56.3079C31.4981 54.2347 31.2996 52.1531 31.3077 50.0635C31.3205 47.9308 31.4131 45.7998 31.5383 43.6711C31.6435 41.6068 31.7951 39.5458 31.9618 37.4858C32.043 36.3507 32.149 35.2172 32.2597 34.0849C32.5248 32.2282 29.8997 31.852 29.6345 33.7089Z" fill="#666666"/>
<path d="M24.5044 16.6532C24.8575 16.0599 25.3143 15.5915 25.8681 15.1864C26.6702 14.5675 27.5535 14.0852 28.4485 13.6181C29.4088 13.09 30.4632 12.8037 31.5363 12.6209C32.4271 12.4585 33.3229 12.4896 34.2199 12.552C34.9758 12.6324 35.7195 12.7888 36.4527 12.9855C36.6695 13.024 36.9148 13.0942 37.14 13.0399C37.2862 13.0057 37.4097 12.8873 37.5598 12.8736C37.6504 12.8608 37.726 12.9437 37.8089 12.9801C38.0346 13.175 38.3104 12.856 38.0847 12.6611C37.7889 12.2309 37.9269 12.497 37.7507 11.826C37.5678 11.5088 37.2464 11.4058 36.9453 11.2612C36.0965 11.0069 35.2237 10.8414 34.3423 10.7482C33.2926 10.6781 32.2426 10.6636 31.2028 10.8602C29.9608 11.115 28.7512 11.4995 27.641 12.1249C26.6753 12.6643 25.7255 13.2305 24.8626 13.9277C24.2237 14.4719 23.6495 15.0708 23.2137 15.7939C22.6053 16.7064 23.896 17.5658 24.5044 16.6532Z" fill="#666666"/>
<path d="M24.975 16.439C25.6486 15.7631 26.4956 15.3527 27.3685 14.9992C28.5193 14.5706 29.7007 14.2574 30.9191 14.1079C32.1099 13.9732 33.3077 13.9582 34.5014 14.048C35.3529 14.1519 36.1748 14.4075 37.0086 14.5985C37.7037 14.7827 37.8905 14.9525 38.3121 14.2523C38.5327 14.3792 38.7122 14.0676 38.4916 13.9406C38.4339 13.7273 38.4394 13.4914 38.3351 13.2971C38.1701 12.991 37.6605 13.003 37.3901 12.9004C36.4627 12.6969 35.5411 12.442 34.5885 12.3867C33.2847 12.3439 31.9835 12.425 30.6906 12.6042C29.3614 12.8405 28.0704 13.2141 26.8331 13.7618C25.8305 14.2197 24.8655 14.7553 24.0923 15.5572C23.4682 16.1814 24.3508 17.0631 24.975 16.439Z" fill="#666666"/>
<path d="M36.6871 13.2759C36.8927 13.3447 37.6872 14.1312 37.7917 14.1455C37.917 14.1626 38.0392 14.0946 38.1627 14.0685C38.2252 14.0685 38.2875 14.0557 38.3503 14.0557C38.5401 14.3182 38.911 14.0429 38.7213 13.7873C38.7213 13.7 38.7213 13.612 38.7341 13.5244C38.7555 13.391 38.8236 13.2559 38.7941 13.1247C38.7728 13.0229 38.6642 12.9606 38.5906 12.8862C38.2692 12.5613 37.8786 12.3155 37.5097 12.0503C36.6439 11.4731 35.8275 12.6975 36.6933 13.2747L36.6871 13.2759Z" fill="#666666"/>
<path d="M51.6057 18.3631C52.3203 17.8878 53.1252 17.6402 53.9601 17.4841C55.1001 17.3204 56.1543 17.6889 57.1956 18.1026C58.5742 18.6761 59.6379 19.7201 60.6638 20.7705C61.407 21.5776 62.0801 22.4447 62.6993 23.3497C62.8365 23.5502 62.9358 23.781 63.1043 23.9558C63.2667 24.1242 63.4859 24.2268 63.6769 24.3623C63.8107 24.4756 63.9445 24.5884 64.0787 24.7012C64.151 24.8744 64.396 24.7714 64.3237 24.5983C64.3365 24.4089 64.3366 24.2195 64.3451 24.0302C64.3451 23.7733 64.3947 23.5098 64.3323 23.2603C64.2691 22.9969 64.1096 22.766 63.9814 22.5273C63.4084 21.4585 62.6367 20.5192 61.819 19.63C60.6246 18.4252 59.3889 17.2379 57.7763 16.6145C56.3629 16.0663 55.182 15.7171 53.6462 15.9587C52.5941 16.1879 51.6014 16.5443 50.74 17.2119C49.9266 17.8219 50.7925 18.9732 51.6057 18.3631Z" fill="#666666"/>
<path d="M52.0333 19.5172C52.6508 19.2727 53.304 19.1309 53.9606 19.0399C55.0303 18.8954 56.0999 18.9347 57.1621 19.1066C58.5686 19.3938 59.4549 20.2029 60.431 21.1912C60.9653 21.7612 60.9395 21.7217 61.4482 22.3127C61.603 22.4922 61.7284 22.7 61.9067 22.8559C62.1473 23.067 62.7149 23.3337 63.0056 23.4807C63.1274 23.6881 63.4207 23.5149 63.2988 23.3084C63.286 22.7861 63.3288 22.4025 63.0818 21.9075C62.9676 21.6788 62.7739 21.4993 62.6121 21.3014C62.2095 20.8094 61.965 20.5598 61.533 20.0934C60.3104 18.8752 59.149 17.9129 57.4029 17.577C56.1775 17.3898 54.9479 17.3453 53.7195 17.5513C52.9239 17.6958 52.1254 17.8852 51.3925 18.2361C50.4859 18.6894 51.1267 19.9706 52.0333 19.5172Z" fill="#666666"/>
<path d="M51.9901 18.7046C52.5422 18.5187 53.0884 18.2883 53.6711 18.2153C54.0301 18.17 54.1992 18.1938 54.5613 18.2024C55.6039 18.2195 56.3671 18.5024 57.2199 19.0763C57.9323 19.6518 58.559 20.3212 59.214 20.9591C59.9507 21.6865 60.7198 22.3781 61.5099 23.0468C62.2393 23.6984 62.9348 24.3836 63.5585 25.1367C64.0457 25.6737 63.5586 25.235 64.2815 25.5535C64.3755 25.5962 64.4452 25.6743 64.5273 25.735C64.629 25.9967 64.9995 25.8523 64.897 25.5902C64.9098 25.4616 64.9097 25.3324 64.9225 25.2046C65.0153 24.439 65.115 24.8634 64.7931 24.2026C64.1612 23.3046 63.3669 22.551 62.5504 21.8207C61.7893 21.1749 61.0592 20.4971 60.3489 19.7957C59.6188 19.0841 58.8926 18.3602 58.0691 17.7558C57.6205 17.478 57.4683 17.3575 56.9738 17.1572C56.2117 16.8486 55.396 16.745 54.5795 16.7263C54.3726 16.7263 54.1648 16.7136 53.9583 16.7392C53.1012 16.8003 52.3058 17.1243 51.5136 17.4311C50.6125 17.7693 51.0889 19.0425 51.9901 18.7046Z" fill="#666666"/>
<path d="M28.7793 17.679C27.9557 17.6619 27.1382 17.8146 26.3454 18.0249C25.5875 18.2719 24.8547 18.595 24.1491 18.9652C23.3548 19.3849 22.7376 20.023 22.1886 20.7208C21.5986 21.4918 21.2446 22.3827 21.0294 23.321C20.8217 24.2944 20.8641 25.2724 21.0167 26.2471C21.2364 27.4683 21.8004 28.4747 22.5299 29.4573C23.2692 30.442 24.1629 31.2695 25.1802 31.9562C26.258 32.6465 27.4183 33.1629 28.6382 33.5398C29.8837 33.9018 31.1583 34.018 32.4484 34.0415C33.8184 34.0629 35.1068 33.6368 36.3575 33.1238C37.4443 32.7087 38.3116 31.9932 39.0435 31.107C39.6949 30.2863 40.0992 29.3367 40.3632 28.3317C40.6077 27.2633 40.508 26.167 40.3637 25.0929C40.1436 23.9884 39.636 23.0075 38.9718 22.1105C38.1457 21.2349 37.227 20.4435 36.3129 19.66C35.397 18.8467 34.3127 18.3081 33.1557 17.9363C31.9089 17.5627 30.6234 17.7063 29.3515 17.8171C28.7984 17.8748 28.2452 17.8837 27.7931 18.2529C27.5576 18.4453 27.3751 18.6956 27.1547 18.9053C26.8614 18.9835 26.9713 19.3977 27.2645 19.32C28.2638 19.6226 26.8124 19.1571 28.0011 19.6461C28.5036 19.853 28.9955 19.7422 29.5203 19.7149C30.5459 19.6221 31.5856 19.4879 32.5979 19.7534C33.5253 20.0201 34.3891 20.4544 35.1425 21.0634C35.977 21.7391 36.7724 22.4659 37.5452 23.2102C38.0625 23.8444 38.4396 24.564 38.647 25.3594C38.7991 26.2017 38.8913 27.0684 38.7049 27.9136C38.5211 28.6858 38.2294 29.4106 37.7333 30.0401C37.1886 30.7226 36.5385 31.2663 35.7162 31.5913C34.6808 32.0349 33.6134 32.3891 32.4719 32.3724C31.3364 32.3595 30.2118 32.2843 29.1133 31.9689C28.0337 31.6508 27.012 31.2093 26.0511 30.6183C25.1598 30.0658 24.3939 29.3504 23.7275 28.5411C23.1218 27.7774 22.6234 26.9691 22.443 25.9933C22.2887 25.2073 22.245 24.4259 22.413 23.6352C22.5755 22.9021 22.8482 22.2044 23.3069 21.6016C23.7288 21.0591 24.2055 20.5702 24.8175 20.2403C25.4312 19.912 26.0729 19.6349 26.7239 19.3904C27.3865 19.1895 28.0778 19.0412 28.7728 19.0442C29.7382 19.0442 29.7382 17.6792 28.7728 17.6792L28.7793 17.679Z" fill="#666666"/>
<path d="M27.3258 22.5949C26.641 22.9322 26.2158 23.377 25.9036 24.0685C25.6728 24.6914 25.6332 25.3309 25.7473 25.9796C25.9427 26.7322 26.3382 27.291 26.9122 27.8006C27.5321 28.2939 28.3325 28.4484 29.0944 28.5862C29.8705 28.7435 30.6413 28.7109 31.4045 28.5173C32.2762 28.2523 32.7483 27.704 33.1617 26.9258C33.4784 26.1807 33.5699 25.3815 33.5327 24.58C33.4523 23.6995 33.0624 23.1367 32.3915 22.5931C31.7715 22.1279 31.0449 21.8434 30.2964 21.6653C29.6192 21.5119 28.9432 21.4904 28.2653 21.6353C27.6424 21.8046 27.1728 22.1709 26.7849 22.6736C26.5263 23.0331 26.3327 23.4218 26.2143 23.8475C26.0968 24.5157 26.3657 25.0881 26.6696 25.6616C27.05 26.3312 27.6817 26.7117 28.3589 27.0258C28.955 27.2276 29.5786 27.4583 30.2197 27.4355C30.3757 27.4226 30.5294 27.4013 30.6844 27.3812C31.6791 27.1115 32.0791 26.6399 32.3176 25.6556C32.4172 25.0876 32.4711 24.4729 32.177 23.9473C32.1069 23.8229 32.0124 23.7148 31.9299 23.5985C31.3616 23.0354 30.6047 22.8202 29.843 22.6624C29.3641 22.6367 28.8205 22.5606 28.3529 22.7243C28.2371 22.7671 28.131 22.8283 28.0203 22.8809C27.4563 23.2664 27.2616 23.8559 27.2201 24.5067C27.3107 25.4112 27.6284 25.8767 28.4325 26.3034C29.1125 26.5954 29.7781 26.4846 30.4342 26.2016C30.5851 26.1508 31.2451 25.6599 31.2307 25.4799C31.2179 25.3546 31.1393 25.2455 31.0927 25.1284C31.0307 25.0267 30.9675 24.9258 30.9051 24.8245C30.9393 24.5445 30.5413 24.4988 30.5088 24.7792C30.4374 24.7578 30.3656 24.7339 30.2938 24.7112C29.9382 24.4949 30.0684 24.5766 29.773 24.7369C29.5713 24.8374 29.3733 24.9087 29.1513 24.8215C28.9666 24.7625 28.9197 24.7528 28.8633 24.533C28.8167 24.4642 28.9335 24.3457 28.8463 24.3119C28.5334 24.3551 29.4677 24.209 29.5161 24.2646C29.9029 24.3415 30.2749 24.4478 30.6319 24.6163C30.8641 24.7261 30.72 25.0837 30.7076 25.2713C30.6567 25.4965 30.6862 25.6393 30.4365 25.7303C29.9811 25.8628 29.485 25.5996 29.0514 25.4906C28.718 25.3461 28.3693 25.188 28.1588 24.8781C28.0832 24.7327 27.9932 24.5852 27.9402 24.4293C27.9188 24.3648 27.9402 24.2887 27.906 24.2297C27.8932 24.2169 27.8887 24.2597 27.8802 24.2759C27.9187 24.0571 28.0578 23.8774 28.1672 23.6888C28.2847 23.4981 28.4419 23.3823 28.6509 23.299C29.0698 23.1788 29.5016 23.2537 29.9244 23.3204C30.4442 23.4255 30.9506 23.5935 31.3828 23.9114C31.6688 24.1017 31.8656 24.3214 31.9132 24.6773C31.956 25.1928 31.9346 25.7068 31.7392 26.1945C31.5708 26.5459 31.3818 26.849 31.0009 26.9909C30.4627 27.1422 29.9099 27.1601 29.3582 27.0622C28.8647 26.9806 28.3295 26.9135 27.8971 26.6498C27.562 26.3779 27.3172 26.0828 27.1692 25.6678C27.056 25.3319 27.1261 24.9602 27.212 24.6241C27.3454 24.2603 27.6062 24.0261 27.9598 23.862C28.8565 23.4137 28.2224 22.1465 27.3258 22.5949Z" fill="#666666"/>
<path d="M52.2896 22.552C51.6493 22.4537 51.001 22.4888 50.3615 22.5692C49.7409 22.6791 49.139 22.8453 48.56 23.0934C47.9197 23.334 47.315 23.6506 46.723 23.99C46.0324 24.4046 45.5049 25.0203 44.966 25.6067C44.4419 26.1854 44.2007 26.8311 43.9832 27.5641C43.7964 28.2399 43.7367 28.9384 43.7051 29.6359C43.7051 30.4166 43.873 31.1771 44.0568 31.9304C44.3231 32.8601 44.8798 33.6438 45.5424 34.3315C46.1757 34.956 46.8945 35.4848 47.6405 35.9656C48.4516 36.4865 49.3024 36.927 50.1945 37.2889C51.118 37.6894 52.0946 37.9328 53.0718 38.1596C54.1272 38.3913 55.2085 38.4431 56.2848 38.4016C56.8974 38.3674 57.5272 38.3361 58.1156 38.1433C58.5298 38.0078 58.6938 37.9058 59.0747 37.7106C59.8304 37.302 60.4655 36.7286 61.0515 36.1088C61.6024 35.507 62.0194 34.7961 62.3665 34.0618C62.7033 33.3274 62.9093 32.569 62.9681 31.7646C63.0224 30.8479 62.7363 30.0077 62.3232 29.2062C61.8657 28.3847 61.2528 27.6732 60.6333 26.9722C60.0305 26.2353 59.3008 25.6328 58.5688 25.0317C57.8912 24.3826 57.0594 23.9667 56.1964 23.6242C55.3556 23.3126 54.4952 23.0504 53.6215 22.8486C52.872 22.758 51.974 22.4601 51.2209 22.6507C51.0465 22.6948 50.8897 22.7897 50.7236 22.8593C50.2165 23.3998 50.4931 23.2223 49.943 23.4618C49.7002 23.5105 49.7691 23.8537 50.0119 23.805C50.5497 23.8221 50.2879 23.7361 50.7651 24.1435C50.8788 24.2033 50.9868 24.2761 51.1056 24.3248C51.7625 24.5933 52.5027 24.5881 53.1855 24.7501C53.9654 24.9275 54.7429 25.1267 55.4909 25.4128C56.1753 25.6804 56.8363 25.9863 57.3785 26.4953C58.0383 27.0266 58.7087 27.5457 59.2581 28.1973C59.7871 28.786 60.2899 29.396 60.703 30.0736C60.9817 30.5644 61.1728 31.0868 61.1423 31.6605C61.1252 32.2341 60.9281 32.7647 60.7152 33.2921C60.4604 33.8498 60.1421 34.392 59.7186 34.8386C59.272 35.3022 58.7709 35.7159 58.2197 36.05C57.551 36.3971 56.9642 36.5011 56.2091 36.5219C55.2966 36.5604 54.383 36.5347 53.4871 36.3325C52.599 36.1355 51.7067 35.9346 50.8648 35.5809C50.0733 35.2821 49.3157 34.9154 48.596 34.4675C47.9578 34.0656 47.3312 33.639 46.7772 33.1243C46.3209 32.668 45.9032 32.1555 45.7224 31.5243C45.5775 30.93 45.4363 30.3304 45.4273 29.7152C45.453 29.153 45.4863 28.5881 45.6449 28.0445C45.7774 27.5729 45.9298 27.1424 46.2499 26.7563C46.6565 26.2898 47.0563 25.8044 47.5834 25.468C48.1153 25.1534 48.6489 24.8407 49.225 24.6114C49.6707 24.4101 50.1318 24.2707 50.6039 24.1435C51.0882 24.0529 51.5819 23.9841 52.0736 24.0644C53.1427 24.2175 53.3588 22.7047 52.2896 22.552Z" fill="#666666"/>
<path d="M51.0933 26.9978C50.5337 27.2675 50.0359 27.6111 49.6015 28.054C49.1352 28.5647 48.9496 29.1819 48.8485 29.8494C48.7647 30.6709 49.1093 31.3628 49.5955 31.995C50.155 32.6836 50.9345 33.0823 51.7409 33.4079C52.6408 33.7926 53.5912 33.8451 54.5542 33.8435C55.6486 33.7947 56.2783 33.5241 56.9222 32.6372C57.3995 31.7319 57.269 30.9472 56.8637 30.0548C56.4816 29.3101 55.8503 28.7536 55.248 28.1913C54.6839 27.6355 54.0324 27.1965 53.2907 26.9222C52.5348 26.6807 51.9455 26.6624 51.1888 26.9094C50.5436 27.192 50.0115 27.6478 49.5788 28.1962C49.2389 28.7164 49.0523 29.3248 49.1895 29.9486C49.2237 30.1076 49.2912 30.2581 49.3416 30.4127C49.7229 31.2529 50.4694 31.7679 51.2433 32.213C51.978 32.599 52.7925 32.7369 53.6097 32.8055C54.3158 32.8311 55.0239 32.614 55.4037 31.9689C55.4794 31.8402 55.5218 31.694 55.5803 31.5568C55.7308 30.5387 55.3483 29.9553 54.6693 29.2514C54.1344 28.7122 53.5646 28.2094 52.8946 27.8478C52.3623 27.5986 51.7894 27.4626 51.224 27.7045C51.0967 27.7588 50.9882 27.85 50.8703 27.9227C50.1784 28.6105 50.1212 29.3404 50.3117 30.2572C50.5527 31.0593 51.0102 31.5836 51.6905 32.0449C52.1452 32.348 52.6779 32.4634 53.1881 32.6316C53.7732 32.803 54.0075 32.8304 54.22 32.1116C54.5214 32.0188 54.3891 31.5924 54.0877 31.6858C53.9377 31.1474 54.0451 31.7444 54.1511 31.1516C54.1639 31.0794 53.759 30.9883 53.7026 30.9729C53.3444 30.869 52.9665 30.8161 52.6407 30.6246C52.3227 30.416 52.1018 30.2257 51.9679 29.8507C51.9294 29.7387 51.8642 29.5909 51.8766 29.4669C51.8894 29.408 51.9567 29.3399 51.9191 29.2963C51.9063 29.2835 51.8807 29.3092 51.8627 29.3092C51.531 29.2391 52.094 29.275 52.1385 29.3391C52.6627 29.5734 53.0649 30.0131 53.4777 30.4003C53.5773 30.5042 53.6959 30.5901 53.7861 30.7021C53.8289 30.7542 53.8877 30.9719 53.9463 31.0099C53.9591 31.0228 53.9678 30.9971 53.9763 30.9885C54.0601 30.9629 53.9634 31.0142 54.034 31.0394C54.0596 31.0522 54.137 31.0522 54.1122 31.0565C54.0648 31.0736 53.8047 31.0779 53.7603 31.0779C53.1894 31.027 52.6153 30.9534 52.0928 30.7004C51.6679 30.47 51.218 30.2261 50.9639 29.7971C50.8357 29.6154 50.8711 29.4316 50.9767 29.2426C51.1763 28.9429 51.4753 28.7249 51.7834 28.5452C52.0925 28.4033 52.4108 28.4435 52.7336 28.5324C53.2695 28.7012 53.7257 29.0189 54.1255 29.4125C54.5776 29.8251 55.0773 30.2144 55.3901 30.7495C55.5415 31.0496 55.6865 31.3705 55.5728 31.7085C55.3526 32.0996 55.0025 32.2252 54.5521 32.2286C53.7907 32.2414 53.0469 32.203 52.3316 31.9072C51.7775 31.7024 51.2301 31.4455 50.8288 30.9985C50.5902 30.7317 50.3773 30.4292 50.3602 30.0595C50.4068 29.6897 50.4653 29.3482 50.7085 29.0511C50.9799 28.7035 51.3554 28.4788 51.7411 28.2751C52.6464 27.8225 52.0062 26.5422 51.1012 26.9949L51.0933 26.9978Z" fill="#666666"/>
<path d="M37.4994 39.0522C38.1323 38.0967 38.8199 37.179 39.4857 36.2463C40.2126 35.1837 40.9989 34.1693 41.8631 33.2158C42.2196 32.742 43.0911 32.0106 43.1931 31.4298C43.2188 31.2908 43.1931 31.1472 43.1931 31.0062C43.2316 30.9087 43.27 30.8108 43.3085 30.7129C43.3965 30.5727 43.1987 30.4475 43.1102 30.5877C43.0422 30.6591 42.9735 30.7305 42.9051 30.8019C42.7734 30.8446 42.6331 30.8664 42.5096 30.9279C42.2475 31.0596 42.1416 31.2422 41.9622 31.4643C41.6749 31.8191 41.3798 32.1668 41.0837 32.5145C40.2062 33.5099 39.3985 34.559 38.6686 35.6684C38.0181 36.6092 37.3474 37.5345 36.6883 38.4691C36.2762 39.0462 37.0921 39.6292 37.5044 39.0521L37.4994 39.0522Z" fill="#666666"/>
</svg>
