<svg width="97" height="53" viewBox="0 0 97 53" fill="none" xmlns="http://www.w3.org/2000/svg">
<path d="M46.9243 1.53032C46.8453 2.48666 46.6915 4.50511 46.6258 7.31104C46.5464 10.7035 46.7603 18.0658 47.1515 25.7526C47.6456 35.4562 47.3972 45.6416 46.9301 49.4884C46.8817 49.8863 46.9933 50.287 47.2406 50.6026C47.4878 50.9181 47.8503 51.1227 48.2482 51.171C48.6461 51.2193 49.0471 51.1075 49.3626 50.8603C49.6782 50.613 49.8825 50.2506 49.9308 49.8526C50.4171 45.8475 50.6656 35.3257 50.1705 25.5987C49.7781 17.8934 49.5706 10.6839 49.6477 7.38139C49.7116 4.6539 49.8604 2.69856 49.9368 1.779C49.9694 1.37974 49.8423 0.983922 49.5832 0.678407C49.324 0.372892 48.9542 0.182687 48.555 0.149679C48.1558 0.116671 47.7599 0.243352 47.4542 0.502164C47.1484 0.760977 46.9577 1.13112 46.9243 1.53032Z" fill="white"/>
<path d="M1.56904 3.53301C2.36996 3.50655 5.18042 3.41211 7.95115 3.32631C15.4369 3.09538 40.4352 2.92466 46.8729 3.17475C47.2761 3.18851 47.6682 3.04207 47.9638 2.76737C48.2593 2.49266 48.4341 2.11216 48.4498 1.70899C48.4655 1.30582 48.3208 0.912842 48.0475 0.616006C47.7742 0.31917 47.3945 0.142504 46.9914 0.12488C40.4948 -0.127593 15.3575 0.0439788 7.85818 0.275286C5.08307 0.361081 2.26912 0.455606 1.46824 0.48244C1.06499 0.497783 0.684128 0.672216 0.409165 0.967569C0.134201 1.26292 -0.0126379 1.65517 0.000853922 2.05847C0.0143458 2.46178 0.18705 2.8433 0.481138 3.11962C0.775226 3.39594 1.16568 3.54465 1.56904 3.53301Z" fill="white"/>
<path d="M11.7745 35.999C12.4145 35.4439 13.7388 34.2923 15.6357 32.6093C18.3936 30.1623 25.0145 24.0998 31.6929 18.1996C39.3196 11.4615 44.2727 7.53319 48.1342 4.64715C48.4412 4.41772 48.6446 4.07578 48.6994 3.6965C48.7542 3.31721 48.6561 2.9317 48.4267 2.62474C48.1973 2.31778 47.8551 2.11462 47.4758 2.05979C47.0966 2.00497 46.711 2.10303 46.4041 2.33246C42.4738 5.27014 37.46 9.24832 29.7796 16.0337C23.0634 21.9676 16.4617 28.0129 13.7178 30.4473C11.8314 32.1211 10.5155 33.2651 9.88103 33.8153C9.73767 33.9396 9.62033 34.0908 9.53547 34.2605C9.4506 34.4302 9.3999 34.615 9.38644 34.8042C9.37298 34.9935 9.39703 35.1836 9.45703 35.3637C9.51703 35.5437 9.61184 35.7103 9.73616 35.8536C9.86048 35.997 10.0119 36.1143 10.1816 36.1992C10.3513 36.2841 10.5361 36.3348 10.7253 36.3482C10.9146 36.3617 11.1047 36.3376 11.2847 36.2776C11.4648 36.2176 11.6311 36.1233 11.7745 35.999Z" fill="white"/>
<path d="M0.471717 2.51259C1.10687 3.07404 2.44206 4.3083 3.85008 6.23306C4.40069 6.98568 5.09565 8.02389 5.81044 9.35814C7.02249 11.6207 8.11181 14.4 8.85339 17.7384C10.5823 25.5212 9.60294 32.388 8.96666 35.5424C8.92105 35.7719 8.96841 36.01 9.09815 36.2047C9.22789 36.3994 9.42959 36.5349 9.65894 36.5812C9.88829 36.6274 10.1266 36.5807 10.3217 36.4515C10.5168 36.3223 10.6526 36.1211 10.6996 35.8919C11.3618 32.6097 12.3822 25.4717 10.5794 17.3548C9.80317 13.8604 8.6581 10.9289 7.36917 8.52283C6.60896 7.10373 5.86742 5.99568 5.2771 5.18876C3.76672 3.12404 2.33054 1.79544 1.64267 1.18731C1.46689 1.033 1.2371 0.954761 1.00367 0.969544C0.770245 0.984327 0.552342 1.09095 0.397437 1.2662C0.242531 1.44145 0.163377 1.67103 0.177364 1.90451C0.191351 2.13799 0.296998 2.35709 0.471717 2.51259Z" fill="white"/>
<path d="M11.0173 37.0571C12.2326 37.0114 14.6165 36.9827 17.6972 37.4924C18.5568 37.6345 19.6109 37.8414 20.8301 38.1517C23.5895 38.8538 26.6322 39.941 30.1136 41.6115C36.6971 44.7707 45.4159 50.6537 47.5332 52.02C47.7302 52.1471 47.9698 52.1905 48.199 52.1411C48.4281 52.0917 48.6281 51.9533 48.7551 51.7563C48.8822 51.5593 48.9259 51.3199 48.8765 51.0908C48.827 50.8616 48.6885 50.6615 48.4915 50.5344C46.4575 49.2223 37.5934 43.2404 30.8783 40.018C27.3026 38.3022 24.1503 37.1725 21.2661 36.4387C19.9923 36.1144 18.8884 35.8981 17.9858 35.7487C14.7478 35.2128 12.236 35.2426 10.9506 35.291C10.7174 35.3012 10.4978 35.4033 10.3395 35.575C10.1813 35.7467 10.0973 35.974 10.1061 36.2073C10.1149 36.4406 10.2157 36.6609 10.3864 36.8202C10.5571 36.9795 10.7839 37.0645 11.0173 37.0571Z" fill="white"/>
<path d="M15.0631 32.5594C15.6038 32.4449 16.9304 32.1782 18.6793 32.0763C19.8312 32.0094 21.6345 31.9823 23.8907 32.2994C26.52 32.6691 29.4208 33.456 32.4795 34.8296C39.8454 38.1371 44.5896 43.1809 46.691 45.7351C46.8405 45.9147 47.0548 46.0276 47.2874 46.0496C47.5199 46.0715 47.7515 46.0007 47.9319 45.8523C48.1123 45.7039 48.2265 45.49 48.2498 45.2576C48.273 45.0252 48.2034 44.7931 48.056 44.6119C45.8596 41.9424 40.9105 36.6772 33.2036 33.2166C29.9933 31.7751 26.9316 30.9413 24.1366 30.5485C21.7363 30.2114 19.812 30.2393 18.5764 30.3111C16.7022 30.4204 15.2787 30.7063 14.6968 30.8295C14.5832 30.8535 14.4755 30.8999 14.3798 30.9656C14.2841 31.0313 14.2023 31.1151 14.139 31.2124C14.0757 31.3097 14.0322 31.4185 14.011 31.5326C13.9897 31.6467 13.9913 31.7639 14.0153 31.8775C14.0394 31.9911 14.0855 32.0987 14.1512 32.1945C14.2169 32.2902 14.3007 32.372 14.398 32.4353C14.4953 32.4986 14.6041 32.5421 14.7182 32.5633C14.8324 32.5846 14.9496 32.5834 15.0631 32.5594Z" fill="white"/>
<path d="M21.3374 28.6296C21.7276 28.4841 22.6879 28.1402 24.0182 27.9221C24.9106 27.7758 26.3321 27.6224 28.1912 27.7751C30.3304 27.9509 32.7537 28.5084 35.3385 29.5872C37.7588 30.5973 39.975 31.9213 41.8648 33.3602C44.5151 35.3783 46.0782 37.2751 46.8432 38.3031C46.9832 38.4911 47.1921 38.6158 47.424 38.6498C47.656 38.6838 47.8918 38.6244 48.0799 38.4844C48.2679 38.3444 48.3928 38.1355 48.4268 37.9035C48.4608 37.6716 48.4012 37.4355 48.2612 37.2475C47.4226 36.1209 45.7474 34.0949 42.9359 31.954C40.9354 30.4308 38.5894 29.0283 36.0197 27.956C33.2733 26.8098 30.6694 26.2055 28.3363 26.0136C26.3031 25.8466 24.7339 26.0135 23.7321 26.1776C22.2433 26.4218 21.1633 26.8076 20.7194 26.9733C20.4997 27.0552 20.3217 27.2212 20.2243 27.4344C20.127 27.6477 20.1184 27.8909 20.2003 28.1105C20.2823 28.3302 20.4482 28.5083 20.6615 28.6056C20.8747 28.7029 21.1177 28.7115 21.3374 28.6296Z" fill="white"/>
<path d="M25.8697 22.0909C26.2558 22.0361 27.1108 21.9386 28.5514 21.9998C28.7695 22.0074 28.9998 22.0224 29.2428 22.039C29.8952 22.0848 30.8013 22.1726 31.9337 22.3479C33.9847 22.6654 36.6536 23.2558 39.3352 24.2153C40.5234 24.6405 41.6494 25.1161 42.661 25.6336C43.7075 26.1689 44.5796 26.7225 45.2688 27.279C46.0473 27.9075 46.531 28.4898 46.8149 29.0018C46.9842 29.3072 47.0787 29.5808 47.1286 29.8198C47.1955 30.1395 47.1846 30.4104 47.1551 30.6203C47.1212 30.8522 47.1808 31.0881 47.3208 31.2761C47.4608 31.4641 47.6699 31.5889 47.9019 31.6228C48.1338 31.6567 48.3697 31.5972 48.5577 31.4572C48.7457 31.3172 48.8705 31.108 48.9044 30.8761C48.9589 30.5038 48.9775 30.0196 48.8604 29.4588C48.7734 29.0412 48.6152 28.6009 48.3621 28.1446C47.9424 27.3877 47.2902 26.6382 46.3805 25.9037C45.5749 25.2532 44.5941 24.6363 43.4672 24.0598C42.3758 23.5016 41.1779 22.9968 39.932 22.5509C37.1259 21.5469 34.345 20.9321 32.2054 20.601C31.0196 20.4173 30.0644 20.3247 29.368 20.2759C29.1091 20.257 28.8624 20.2456 28.6278 20.2339C27.0651 20.1674 26.0958 20.274 25.6236 20.3405C25.3914 20.3733 25.1818 20.4971 25.0409 20.6845C24.8999 20.8718 24.8392 21.1075 24.872 21.3396C24.9048 21.5717 25.0286 21.7812 25.2159 21.9221C25.4033 22.063 25.6376 22.1238 25.8697 22.0909Z" fill="white"/>
<path d="M32.3343 17.593C32.4107 17.4815 32.5468 17.3113 32.7814 17.1687C32.9337 17.0761 33.1435 16.9852 33.4368 16.9281C33.4557 16.9244 33.4779 16.9204 33.4991 16.9166C33.7009 16.8826 33.9796 16.857 34.351 16.8767C34.6639 16.8918 35.0365 16.9412 35.4767 17.0379C36.2166 17.2005 37.0904 17.4891 38.0864 17.9282C38.9674 18.3165 39.884 18.7966 40.7836 19.3363C41.6525 19.8575 42.4639 20.4093 43.1585 20.9388C43.51 21.2068 43.8253 21.4643 44.1002 21.7051C44.3851 21.955 44.6206 22.1816 44.8067 22.3804C45.0063 22.5931 45.1356 22.7597 45.212 22.8796C45.2521 22.9423 45.2712 22.9819 45.2787 23.0004C45.2863 23.0193 45.2749 23.0024 45.2711 22.9425C45.2689 22.9123 45.2696 22.8674 45.2787 22.8152C45.2901 22.7596 45.3089 22.6999 45.3398 22.6406C45.3739 22.5782 45.4147 22.5257 45.4582 22.4837C45.5035 22.4402 45.5473 22.412 45.5802 22.3947C45.6547 22.3554 45.6763 22.3605 45.6623 22.3605C45.6359 22.3635 45.5863 22.3644 45.5073 22.3589C45.2736 22.3404 45.0421 22.4153 44.8637 22.5674C44.6854 22.7196 44.5748 22.9363 44.5562 23.17C44.5377 23.4037 44.6129 23.6352 44.765 23.8136C44.9171 23.992 45.1338 24.1026 45.3675 24.1211C45.5085 24.1324 45.6883 24.1399 45.8743 24.1172C46.0202 24.0983 46.2149 24.0594 46.4079 23.9573C46.4975 23.9097 46.5919 23.8464 46.6804 23.7617C46.765 23.6808 46.8406 23.5837 46.9007 23.471C46.9577 23.3637 46.9959 23.2507 47.0167 23.1365C47.0356 23.0284 47.0394 22.9229 47.0356 22.8247C47.0243 22.6414 46.9741 22.4735 46.9147 22.3291C46.858 22.1908 46.7847 22.0572 46.7027 21.9287C46.5489 21.6883 46.3437 21.4352 46.0981 21.173C45.8642 20.9231 45.5853 20.6564 45.2663 20.3769C44.9575 20.1066 44.6106 19.8234 44.2312 19.5342C43.4822 18.9633 42.6165 18.3749 41.6941 17.8216C40.7391 17.2487 39.7567 16.7331 38.8004 16.3115C37.7209 15.8357 36.7346 15.5055 35.8573 15.3127C35.3327 15.1974 34.864 15.1346 34.4451 15.1127C33.9445 15.0862 33.5349 15.1202 33.2026 15.1754C33.1686 15.183 33.1342 15.1868 33.1002 15.1943C32.6077 15.2899 32.2003 15.4554 31.8642 15.6596C31.344 15.9756 31.0391 16.3591 30.8778 16.5939C30.7451 16.7871 30.6947 17.0252 30.7375 17.2557C30.7804 17.4862 30.9129 17.6903 31.1062 17.823C31.2994 17.9557 31.5375 18.006 31.768 17.9632C31.9985 17.9204 32.2016 17.7862 32.3343 17.593Z" fill="white"/>
<path d="M38.0427 12.4153C38.0858 12.3299 38.1393 12.2554 38.2104 12.207C38.2523 12.1768 38.3254 12.142 38.4588 12.1265C38.497 12.1227 38.5407 12.1189 38.591 12.1189C38.6821 12.1189 38.8076 12.1264 38.9737 12.1604C39.1676 12.1986 39.4123 12.2678 39.7165 12.3876C40.2227 12.5872 40.8338 12.9039 41.556 13.3609C42.1884 13.7611 42.8481 14.2322 43.5053 14.7392C44.1356 15.2255 44.7277 15.717 45.2366 16.1563C45.7579 16.6063 46.1815 16.9926 46.4571 17.2495C46.6064 17.3886 46.7166 17.4945 46.7847 17.5602C46.8036 17.5791 46.8187 17.5906 46.8297 17.6045L46.8562 17.6308C46.8486 17.6233 46.8372 17.6159 46.8297 17.6045C46.8259 17.6008 46.8222 17.5893 46.8147 17.5817C46.8071 17.5741 46.7919 17.5515 46.7734 17.5254C46.7658 17.5103 46.7508 17.4877 46.733 17.459C46.7179 17.4363 46.6883 17.3754 46.6633 17.2945C46.652 17.2529 46.6331 17.1837 46.6255 17.0968C46.6179 17.0121 46.6218 16.8702 46.6853 16.7097C46.7193 16.6266 46.7666 16.5415 46.8343 16.4617C46.9023 16.3816 46.9815 16.3176 47.0654 16.2689C47.1486 16.2209 47.2295 16.1922 47.3009 16.1752C47.3716 16.1601 47.4348 16.1526 47.4862 16.1526C47.5852 16.1503 47.6645 16.1639 47.7113 16.1752C47.7612 16.1866 47.8015 16.2017 47.8283 16.2131C47.8804 16.2319 47.9194 16.2542 47.939 16.2652C47.9795 16.2879 48.0085 16.3081 48.0191 16.3157C48.0455 16.3346 48.0614 16.3498 48.0659 16.3498C48.0765 16.3583 48.0848 16.365 48.0659 16.3498C48.0432 16.3272 48.0059 16.2911 47.9586 16.2453C47.8316 16.1225 47.6687 15.962 47.5012 15.7957C47.3349 15.6305 47.1098 15.538 46.8753 15.5388C46.6409 15.5395 46.4163 15.6332 46.2511 15.7994C46.0859 15.9657 45.9936 16.1909 45.9944 16.4253C45.9951 16.6597 46.0887 16.8843 46.255 17.0495C46.4251 17.2185 46.5945 17.3851 46.7295 17.516C46.7798 17.5647 46.8226 17.6056 46.8555 17.6366C46.8706 17.6517 46.8857 17.6631 46.8982 17.6763C46.9057 17.6801 46.9132 17.6913 46.9208 17.6989L46.9397 17.7178C46.9473 17.7216 46.9663 17.7368 46.9904 17.7568C47.0018 17.7643 47.0308 17.7871 47.0716 17.8082C47.0905 17.8196 47.1304 17.8383 47.1826 17.8606C47.2091 17.8719 47.2497 17.8871 47.2996 17.8984C47.3468 17.9098 47.4257 17.925 47.5247 17.9213C47.5761 17.9201 47.6393 17.9135 47.71 17.8984C47.7814 17.8795 47.8623 17.8524 47.9455 17.8048C48.0298 17.7564 48.1086 17.6921 48.1766 17.6124C48.2443 17.5326 48.2928 17.4475 48.3256 17.3644C48.3891 17.2038 48.3915 17.0617 48.3859 16.9771C48.3783 16.8898 48.3631 16.821 48.348 16.7794C48.3216 16.6981 48.2916 16.6392 48.2784 16.6147C48.2632 16.5844 48.2481 16.5614 48.2375 16.5478C48.2186 16.5213 48.2035 16.4998 48.1955 16.4903C48.188 16.479 48.1805 16.4714 48.1729 16.4638C48.1616 16.4525 48.1541 16.4448 48.1503 16.4373C48.139 16.4259 48.1313 16.4185 48.1275 16.411L48.1088 16.3921C48.0975 16.3807 48.0821 16.3657 48.0659 16.3498C48.0508 16.3347 48.0319 16.3156 48.0115 16.2963C47.934 16.2211 47.8154 16.1077 47.6585 15.9618C47.369 15.692 46.9286 15.2906 46.3877 14.8236C45.86 14.3682 45.2425 13.8552 44.5812 13.345C43.8927 12.8137 43.1875 12.3092 42.4974 11.8725C41.7127 11.3759 41.0004 11.0005 40.361 10.7484C39.9728 10.5953 39.6245 10.4929 39.3096 10.431C39.0371 10.3777 38.7981 10.3564 38.5878 10.3564C38.4733 10.3564 38.3613 10.364 38.2517 10.3754C37.8472 10.4222 37.5026 10.5541 37.2168 10.7472C36.7923 11.0341 36.5734 11.3999 36.4606 11.6234C36.356 11.8325 36.3385 12.0747 36.412 12.2967C36.4855 12.5188 36.644 12.7028 36.8528 12.8082C37.0616 12.9136 37.3036 12.9319 37.5259 12.8591C37.7482 12.7864 37.9326 12.6284 38.0388 12.4199L38.0427 12.4153Z" fill="white"/>
<path d="M7.08864 2.77717C7.48655 3.11544 8.39693 3.91176 9.41117 5.11746C9.93165 5.73617 10.6521 6.66542 11.3994 7.90851C12.4291 9.62132 13.3823 11.7186 14.0585 14.1972C15.6902 20.1779 14.9094 25.2101 14.2745 27.7658C14.2179 27.9933 14.2541 28.2339 14.375 28.4348C14.4959 28.6356 14.6917 28.7801 14.9192 28.8366C15.1467 28.8932 15.3874 28.857 15.5882 28.7361C15.789 28.6152 15.9335 28.4194 15.99 28.1919C16.6722 25.4463 17.4991 20.0917 15.764 13.7319C15.0432 11.0901 14.0243 8.84346 12.9146 6.99754C12.1088 5.65713 11.3297 4.6518 10.7639 3.97927C9.66156 2.66883 8.67007 1.80136 8.23399 1.43044C8.05542 1.27856 7.82381 1.20373 7.59015 1.22259C7.35649 1.24146 7.13972 1.35245 6.98783 1.53102C6.83595 1.70958 6.76135 1.94119 6.78022 2.17486C6.79909 2.40852 6.91008 2.62529 7.08864 2.77717Z" fill="white"/>
<path d="M16.2324 3.00348C16.3609 3.02615 16.5998 3.08236 16.9252 3.29552C17.1572 3.44746 17.4346 3.67822 17.751 4.03002C18.112 4.43122 18.4978 4.96086 18.9019 5.6402C19.0758 5.93198 19.2668 6.27526 19.4722 6.67781C19.9578 7.62991 20.4849 8.8394 21.0198 10.3367C21.468 11.591 21.8878 12.954 22.2551 14.3499C22.6021 15.6681 22.8838 16.9468 23.0856 18.0838C23.1865 18.6534 23.2657 19.1769 23.3232 19.6448C23.3825 20.1279 23.4175 20.5419 23.4307 20.8831C23.4383 21.0596 23.4382 21.2126 23.4344 21.3438C23.4306 21.4802 23.4231 21.5861 23.4118 21.6658C23.4004 21.7471 23.3853 21.7946 23.3853 21.795C23.3851 21.7953 23.389 21.7837 23.4042 21.7565C23.4193 21.73 23.4492 21.6858 23.5006 21.6374C23.5554 21.5857 23.6326 21.532 23.732 21.4953C23.8367 21.4568 23.9396 21.4466 24.0307 21.4538C24.1218 21.4614 24.19 21.4839 24.23 21.5032C24.2716 21.5221 24.2949 21.5373 24.2995 21.5426C24.3146 21.554 24.2731 21.5162 24.2217 21.4568C24.1567 21.3767 24.0834 21.2709 24.0086 21.1507C23.8841 20.952 23.6859 20.8108 23.4575 20.7583C23.229 20.7058 22.989 20.7462 22.7903 20.8706C22.5916 20.9951 22.4504 21.1933 22.3979 21.4218C22.3454 21.6502 22.3858 21.8902 22.5103 22.0889C22.6055 22.2408 22.7215 22.4132 22.8496 22.5713C22.9494 22.6941 23.0802 22.8375 23.2374 22.9558C23.3103 23.0106 23.4008 23.0686 23.5077 23.1166C23.6094 23.1619 23.7375 23.2033 23.8865 23.2158C24.0328 23.2271 24.1893 23.2119 24.3447 23.1537C24.4928 23.0989 24.616 23.0163 24.7147 22.9233C24.808 22.8352 24.8775 22.7396 24.9297 22.6504C24.9803 22.5642 25.0185 22.4768 25.048 22.3948C25.1043 22.2391 25.1391 22.0734 25.1617 21.9108C25.1844 21.7521 25.1957 21.5798 25.2021 21.3959C25.2059 21.2175 25.2058 21.0233 25.1984 20.8148C25.1833 20.4128 25.1429 19.9485 25.0794 19.43C25.0178 18.9262 24.9333 18.3708 24.8275 17.7749C24.6166 16.5863 24.3241 15.2605 23.9661 13.9001C23.5869 12.459 23.1524 11.0476 22.686 9.74222C22.1294 8.18403 21.5731 6.90359 21.0482 5.87457C20.826 5.43883 20.6165 5.06225 20.4228 4.73661C19.9746 3.9832 19.5223 3.3543 19.0666 2.84777C18.6648 2.4011 18.274 2.06473 17.895 1.81661C17.3405 1.45377 16.8635 1.31486 16.5182 1.25858C16.4037 1.2399 16.2866 1.244 16.1736 1.27058C16.0606 1.29715 15.9541 1.34581 15.8599 1.4136C15.7657 1.48139 15.6857 1.56705 15.6246 1.66574C15.5635 1.76443 15.5224 1.87414 15.5037 1.9887C15.485 2.10326 15.4891 2.22035 15.5157 2.33334C15.5423 2.44633 15.5907 2.55308 15.6585 2.6473C15.7263 2.74152 15.8122 2.82126 15.9109 2.88237C16.0095 2.94347 16.1179 2.98479 16.2324 3.00348Z" fill="white"/>
<path d="M23.4516 3.68453C23.5121 3.68385 23.6419 3.68822 23.8313 3.8001C23.9685 3.88022 24.1547 4.02611 24.3748 4.28592C24.4992 4.43294 24.632 4.61312 24.7711 4.83241C24.8377 4.9371 24.909 5.05676 24.985 5.1932C25.1645 5.51522 25.3647 5.92412 25.5776 6.44351C25.9204 7.27954 26.2682 8.33571 26.5924 9.61818C26.8728 10.7281 27.1165 11.9324 27.3068 13.1511C27.489 14.3177 27.6131 15.4405 27.6748 16.4229C27.705 16.918 27.7206 17.3677 27.7195 17.7634C27.7185 18.1737 27.7005 18.514 27.6711 18.784C27.6559 18.9234 27.637 19.0388 27.6185 19.1318C27.5996 19.2293 27.5792 19.2927 27.5652 19.3298C27.5501 19.3717 27.5502 19.3562 27.5804 19.3184C27.5993 19.2958 27.6288 19.2621 27.6768 19.2262C27.7275 19.1884 27.7944 19.1513 27.8764 19.1267C27.9622 19.1003 28.0475 19.0929 28.1257 19.1005C28.2047 19.108 28.2665 19.1268 28.3073 19.1457C28.3492 19.1646 28.3745 19.1834 28.3832 19.1883C28.3916 19.1981 28.3945 19.1959 28.3832 19.1883C28.3567 19.1619 28.3138 19.1083 28.2556 19.0218C28.1857 18.9171 28.1132 18.7902 28.0429 18.6564C27.9334 18.4499 27.7465 18.2954 27.5232 18.2264C27.2999 18.1574 27.0584 18.1796 26.8514 18.2882C26.6445 18.3968 26.489 18.5829 26.4189 18.8059C26.3489 19.0288 26.3701 19.2704 26.4777 19.4778C26.5647 19.6434 26.6689 19.8287 26.7857 20.0038C26.8783 20.1425 26.991 20.2928 27.1218 20.426C27.1819 20.4868 27.2514 20.5499 27.3303 20.6089C27.4052 20.6641 27.4954 20.721 27.6016 20.7671C27.7037 20.8114 27.8259 20.8484 27.9643 20.8613C28.0992 20.8726 28.2405 20.862 28.3806 20.8202C28.5152 20.7801 28.633 20.7169 28.7331 20.6421C28.8291 20.5707 28.9067 20.4902 28.9687 20.4112C29.0854 20.263 29.1644 20.1001 29.2203 19.9512C29.2751 19.8053 29.3176 19.6486 29.3509 19.4866C29.3849 19.329 29.4091 19.1581 29.4291 18.9761C29.4677 18.6261 29.4868 18.2196 29.4879 17.7657C29.489 17.3252 29.4728 16.8369 29.4399 16.3106C29.3746 15.2674 29.2434 14.0899 29.054 12.8764C28.856 11.6079 28.6018 10.3499 28.3068 9.18311C27.9663 7.83605 27.5941 6.69852 27.2141 5.77129C26.9771 5.19333 26.7468 4.71996 26.5299 4.33067C26.4376 4.16551 26.3493 4.01753 26.265 3.8843C26.0885 3.60612 25.9084 3.35882 25.7248 3.14173C25.3971 2.7547 25.0628 2.46951 24.7227 2.27112C24.2043 1.96876 23.7458 1.91178 23.4332 1.91518C23.1988 1.91768 22.975 2.01317 22.811 2.1807C22.647 2.34822 22.5561 2.57398 22.5586 2.80839C22.5612 3.0428 22.6569 3.26656 22.8244 3.43054C22.9919 3.59452 23.2172 3.68703 23.4516 3.68453Z" fill="white"/>
<path d="M30.4069 3.34382C30.4182 3.34148 30.4259 3.34076 30.4334 3.34152C30.441 3.34208 30.456 3.34405 30.4821 3.35282C30.5267 3.37172 30.6197 3.41869 30.755 3.55098C30.8737 3.66701 31.0123 3.8363 31.1661 4.07532C31.2515 4.20836 31.339 4.35831 31.4274 4.52631C31.483 4.63214 31.5422 4.75075 31.6041 4.88341C31.8521 5.41334 32.1289 6.13298 32.3977 7.06637C32.6192 7.83543 32.8188 8.6943 32.9742 9.5829C33.1204 10.4188 33.219 11.2353 33.2602 11.959C33.2791 12.3207 33.2867 12.6492 33.2791 12.9396C33.2716 13.2401 33.249 13.4865 33.215 13.6805C33.181 13.8907 33.1381 14.0058 33.1135 14.0561C33.1022 14.0788 33.1022 14.0751 33.1211 14.0524C33.1438 14.026 33.1923 13.9836 33.269 13.9507C33.354 13.9129 33.4386 13.9049 33.5066 13.9105C33.5761 13.9181 33.6067 13.9334 33.6079 13.9334C33.6091 13.9339 33.5778 13.9143 33.5336 13.8792C33.4773 13.8323 33.4136 13.7685 33.3467 13.6937C33.1907 13.5192 32.9719 13.4136 32.7382 13.4003C32.5045 13.3869 32.275 13.467 32.1001 13.6226C31.9253 13.7783 31.8194 13.9968 31.8055 14.2305C31.7917 14.4642 31.871 14.6938 32.0263 14.869C32.128 14.9832 32.2547 15.1144 32.3991 15.2354C32.5144 15.3317 32.6561 15.4345 32.8208 15.5166C32.9648 15.5884 33.1466 15.6536 33.3564 15.6713C33.5537 15.6865 33.7638 15.66 33.9687 15.5731C34.1569 15.4918 34.3109 15.3718 34.433 15.2365C34.5468 15.1107 34.6336 14.9712 34.7009 14.833C34.826 14.5768 34.9054 14.2816 34.9571 13.9756C35.007 13.68 35.0354 13.3487 35.0453 12.9903C35.0566 12.6411 35.0477 12.261 35.0263 11.8588C34.9802 11.0558 34.8724 10.1708 34.7163 9.27955C34.5504 8.33044 34.3369 7.40958 34.0974 6.57801C33.8067 5.56918 33.499 4.76111 33.2062 4.1353C33.1325 3.97807 33.0611 3.8345 32.9919 3.70346C32.8827 3.49634 32.7701 3.30109 32.6533 3.11983C32.4458 2.79744 32.2265 2.5181 31.9926 2.2889C31.7216 2.0232 31.4329 1.82701 31.1262 1.70712C30.9391 1.63417 30.7572 1.59429 30.5845 1.57955C30.3536 1.56065 30.1576 1.58712 30.0104 1.62038C29.7819 1.67289 29.5834 1.81387 29.459 2.01255C29.3346 2.21122 29.2942 2.45122 29.3467 2.67968C29.3992 2.90815 29.5404 3.10637 29.7391 3.23079C29.9377 3.35521 30.1784 3.39633 30.4069 3.34382Z" fill="white"/>
<path d="M36.1503 4.21276C36.1125 4.2117 36.0736 4.20541 36.0373 4.19407C36.0146 4.18651 36.0031 4.17885 36.0031 4.17885C36.0051 4.1801 36.026 4.19389 36.0603 4.22752C36.0755 4.24264 36.0943 4.26155 36.1155 4.28612C36.2111 4.39534 36.3748 4.61764 36.587 5.04253C36.7457 5.36039 36.9158 5.76089 37.0839 6.23632C37.2347 6.66223 37.3744 7.12244 37.492 7.58305C37.6065 8.03202 37.6938 8.45804 37.7478 8.82598C37.7743 9.01269 37.7933 9.17768 37.8027 9.31964C37.814 9.46818 37.814 9.58062 37.8064 9.66036C37.8026 9.74125 37.7838 9.77592 37.8027 9.73511C37.8103 9.71621 37.8291 9.66711 37.8768 9.60777C37.9285 9.54125 38.0113 9.46364 38.1319 9.40846C38.263 9.34836 38.392 9.33704 38.4929 9.34686C38.5957 9.3582 38.6644 9.38822 38.6897 9.40107C38.7237 9.41997 38.7238 9.42363 38.7162 9.41607C38.7011 9.40473 38.6774 9.38212 38.6456 9.34848C38.4846 9.17855 38.2626 9.07933 38.0285 9.07281C37.7945 9.0663 37.5674 9.15294 37.3972 9.31365C37.2269 9.47435 37.1275 9.69602 37.1206 9.93003C37.1136 10.164 37.1997 10.3913 37.36 10.5619C37.4235 10.6292 37.5058 10.7105 37.6011 10.7879C37.6763 10.8492 37.7762 10.9214 37.8957 10.9815C37.9988 11.0333 38.1435 11.0898 38.3194 11.1072C38.4869 11.1223 38.6782 11.1039 38.8678 11.017C39.0424 10.9373 39.1751 10.8188 39.2717 10.6952C39.3605 10.5814 39.4182 10.4629 39.4579 10.3582C39.53 10.1666 39.56 9.96405 39.5725 9.78078C39.5838 9.60163 39.5799 9.40699 39.5686 9.20384C39.5572 9.00655 39.5309 8.79375 39.4992 8.57015C39.4345 8.13082 39.334 7.6434 39.2073 7.14752C39.0769 6.6363 38.9217 6.12486 38.7529 5.64784C38.5647 5.11652 38.3675 4.648 38.1711 4.25451C37.9092 3.72957 37.6662 3.37188 37.4474 3.12232C37.3957 3.06335 37.3468 3.01196 37.3007 2.9666C37.1858 2.85397 37.0691 2.76053 36.9496 2.68494C36.8359 2.61313 36.7236 2.56033 36.614 2.52254C36.4492 2.46584 36.3068 2.44967 36.202 2.44664C35.9677 2.44003 35.7403 2.52669 35.5699 2.68771C35.3995 2.84872 35.2999 3.07069 35.2933 3.30502C35.2867 3.53935 35.3736 3.76672 35.5346 3.93709C35.6956 4.10747 35.916 4.20614 36.1503 4.21276Z" fill="white"/>
<path d="M94.8538 0.982631C94.0532 0.956175 91.2389 0.861272 88.4636 0.775477C80.9643 0.543792 55.8267 0.372372 49.3304 0.625071C48.9273 0.642695 48.5476 0.819131 48.2743 1.11597C48.0011 1.4128 47.8566 1.80578 47.8722 2.20895C47.8879 2.61212 48.0626 2.99285 48.3581 3.26756C48.6536 3.54226 49.046 3.6887 49.4492 3.67494C55.8861 3.42474 80.8842 3.5952 88.3707 3.8265C91.1413 3.91192 93.9519 4.00636 94.7528 4.0332C95.1562 4.04484 95.5478 3.89613 95.8418 3.61981C96.1359 3.34349 96.3086 2.96197 96.3221 2.55866C96.3356 2.15536 96.1888 1.76311 95.9138 1.46776C95.6389 1.17241 95.2571 0.997974 94.8538 0.982631Z" fill="white"/>
<path d="M86.4268 34.3182C85.7923 33.768 84.4767 32.624 82.5902 30.9502C79.8464 28.5158 73.2446 22.4701 66.5284 16.5366C58.848 9.75126 53.834 5.77284 49.9037 2.83539C49.5967 2.60596 49.2112 2.5079 48.8319 2.56272C48.4527 2.61755 48.1107 2.82071 47.8813 3.12767C47.6519 3.43463 47.5538 3.82014 47.6086 4.19943C47.6634 4.57871 47.8666 4.92088 48.1736 5.15031C52.0351 8.03647 56.9882 11.9644 64.6149 18.7025C71.2933 24.6028 77.9144 30.665 80.6723 33.1122C82.5692 34.7952 83.8935 35.9469 84.5335 36.5019C84.823 36.753 85.2004 36.8788 85.5827 36.8516C85.9649 36.8244 86.3208 36.6465 86.5719 36.357C86.8229 36.0675 86.9487 35.6901 86.9216 35.3079C86.8944 34.9256 86.7163 34.5693 86.4268 34.3182Z" fill="white"/>
<path d="M94.7037 1.70052C94.0159 2.30853 92.5799 3.63713 91.0696 5.70196C90.4792 6.50889 89.7377 7.61694 88.9775 9.03604C87.6885 11.4421 86.5435 14.3735 85.7673 17.868C83.9643 25.9845 84.9847 33.1229 85.6471 36.4051C85.694 36.6343 85.8299 36.8355 86.025 36.9647C86.22 37.0939 86.4584 37.1404 86.6877 37.0941C86.9171 37.0479 87.1188 36.9126 87.2485 36.7179C87.3782 36.5232 87.4254 36.2849 87.3798 36.0554C86.7433 32.9009 85.7642 26.0344 87.4933 18.2516C88.2348 14.9131 89.3239 12.1338 90.536 9.87134C91.2508 8.5371 91.946 7.49865 92.4966 6.74604C93.9046 4.82128 95.2398 3.58701 95.8749 3.02557C96.0497 2.87006 96.1555 2.65165 96.1695 2.41817C96.1835 2.1847 96.1043 1.95512 95.9494 1.77987C95.7945 1.60462 95.5766 1.49799 95.3432 1.48321C95.1098 1.46843 94.8795 1.54621 94.7037 1.70052Z" fill="white"/>
<path d="M85.3676 35.7539C84.0821 35.7055 81.5703 35.6756 78.3324 36.2116C77.4298 36.3608 76.3259 36.5774 75.0521 36.9015C72.1682 37.6354 69.0158 38.765 65.4399 40.4808C58.7245 43.7031 49.8605 49.6854 47.8268 50.9972C47.6298 51.1243 47.4912 51.3245 47.4417 51.5537C47.3923 51.7828 47.436 52.0222 47.5631 52.2192C47.6902 52.4162 47.8903 52.5545 48.1195 52.604C48.3486 52.6534 48.588 52.6099 48.785 52.4829C50.9026 51.1169 59.6213 45.2337 66.2049 42.0744C69.6863 40.4039 72.7286 39.3167 75.4881 38.6146C76.7073 38.3043 77.7615 38.0976 78.621 37.9553C81.7018 37.4454 84.0858 37.4742 85.3009 37.52C85.5343 37.5274 85.7611 37.4421 85.9318 37.2829C86.1026 37.1236 86.2033 36.9032 86.2121 36.6699C86.2209 36.4366 86.1369 36.2093 85.9787 36.0376C85.8204 35.8659 85.6008 35.7641 85.3676 35.7539Z" fill="white"/>
<path d="M81.6277 31.2946C81.0458 31.1714 79.6223 30.8854 77.7481 30.7763C76.5123 30.7041 74.588 30.6761 72.1879 31.0136C69.3927 31.4064 66.3312 32.2402 63.1208 33.6817C55.4144 37.1422 50.4648 42.4072 48.2685 45.0771C48.1211 45.2582 48.0514 45.4903 48.0747 45.7227C48.098 45.9551 48.2122 46.169 48.3926 46.3174C48.573 46.4658 48.8046 46.5366 49.0371 46.5147C49.2696 46.4927 49.484 46.3798 49.6334 46.2003C51.735 43.646 56.479 38.6021 63.845 35.2947C66.9039 33.9211 69.8048 33.134 72.4338 32.7645C74.6902 32.4474 76.4936 32.4746 77.6452 32.5414C79.394 32.6435 80.7206 32.9102 81.2614 33.0245C81.4907 33.0731 81.7299 33.0287 81.9264 32.9009C82.1229 32.773 82.2606 32.5724 82.3091 32.3431C82.3577 32.1137 82.3133 31.8745 82.1855 31.678C82.0577 31.4815 81.857 31.3432 81.6277 31.2946Z" fill="white"/>
<path d="M75.6189 27.4395C75.175 27.274 74.095 26.8879 72.6062 26.6437C71.6046 26.4793 70.0354 26.3122 68.002 26.4797C65.6689 26.6717 63.0652 27.2758 60.3186 28.422C57.7489 29.4945 55.4029 30.897 53.4024 32.42C50.5907 34.5609 48.9154 36.5871 48.0771 37.7137C47.9371 37.9018 47.8777 38.1376 47.9117 38.3696C47.9457 38.6015 48.0704 38.8105 48.2584 38.9504C48.4465 39.0904 48.6825 39.1501 48.9145 39.1161C49.1464 39.0821 49.3554 38.9572 49.4953 38.7691C50.2604 37.7413 51.8234 35.8445 54.4737 33.8263C56.3635 32.3874 58.5794 31.0633 60.9998 30.0532C63.5846 28.9744 66.0081 28.4171 68.1473 28.2412C70.0065 28.0885 71.4277 28.2418 72.3202 28.3883C73.6504 28.6064 74.6107 28.95 75.0009 29.0956C75.1097 29.1362 75.2254 29.1551 75.3414 29.151C75.4574 29.1469 75.5715 29.1198 75.6771 29.0716C75.7827 29.0234 75.8775 28.955 75.9567 28.87C76.0358 28.7851 76.0974 28.6853 76.138 28.5766C76.1786 28.4678 76.1975 28.3523 76.1933 28.2363C76.1892 28.1203 76.1622 28.0063 76.114 27.9007C76.0658 27.7951 75.9973 27.7 75.9124 27.6209C75.8274 27.5417 75.7277 27.4801 75.6189 27.4395Z" fill="white"/>
<path d="M70.7025 20.8249C70.2303 20.758 69.261 20.6518 67.6983 20.7184C67.4636 20.7297 67.2171 20.7411 66.9581 20.7603C66.2617 20.8091 65.3065 20.9021 64.1207 21.0854C61.9808 21.4165 59.2001 22.031 56.3941 23.0351C55.1483 23.4809 53.9503 23.9857 52.8589 24.544C51.732 25.1205 50.7512 25.7374 49.9456 26.3879C49.0359 27.1224 48.3837 27.8719 47.964 28.6287C47.7108 29.0851 47.5526 29.5257 47.4655 29.9432C47.3483 30.504 47.3673 30.9881 47.4217 31.3605C47.4556 31.5925 47.5804 31.8013 47.7684 31.9414C47.9564 32.0814 48.1923 32.1412 48.4242 32.1072C48.6562 32.0733 48.8651 31.9485 49.0051 31.7605C49.1451 31.5725 49.2049 31.3366 49.171 31.1047C49.1407 30.8949 49.1292 30.6236 49.1973 30.304C49.2471 30.0651 49.3417 29.7914 49.511 29.486C49.7948 28.9739 50.2788 28.3917 51.0573 27.7632C51.7465 27.2067 52.6186 26.6531 53.6651 26.1177C54.6767 25.6003 55.8027 25.1247 56.9909 24.6995C59.6724 23.74 62.3413 23.1496 64.3924 22.8321C65.5248 22.6567 66.4307 22.5692 67.0831 22.5235C67.3261 22.5046 67.5566 22.4931 67.7747 22.484C69.2153 22.4228 70.0701 22.5218 70.4562 22.5751C70.6883 22.608 70.924 22.5472 71.1113 22.4063C71.2987 22.2654 71.4224 22.0559 71.4553 21.8238C71.4881 21.5917 71.4273 21.356 71.2864 21.1686C71.1455 20.9813 70.9347 20.8578 70.7025 20.8249Z" fill="white"/>
<path d="M65.4502 17.0833C65.2888 16.8486 64.984 16.4651 64.4638 16.1491C64.1278 15.945 63.7206 15.7795 63.228 15.6838C63.194 15.6762 63.16 15.6724 63.1256 15.6649C62.7934 15.6082 62.3835 15.5757 61.8829 15.6021C61.464 15.6248 60.9953 15.6866 60.4707 15.8019C59.5934 15.9946 58.6071 16.3251 57.5276 16.801C56.5713 17.2225 55.5889 17.7379 54.6339 18.3108C53.7115 18.8642 52.846 19.4525 52.0971 20.0234C51.7176 20.3125 51.3704 20.5957 51.0618 20.8661C50.7428 21.1458 50.464 21.4127 50.2301 21.6624C49.9845 21.9247 49.7792 22.1775 49.6255 22.4179C49.5435 22.5464 49.47 22.6803 49.4133 22.8186C49.3539 22.963 49.3049 23.1309 49.2924 23.3141C49.2848 23.4124 49.2897 23.5173 49.3113 23.6258C49.334 23.7399 49.3703 23.8529 49.4274 23.9603C49.4875 24.0729 49.563 24.17 49.6477 24.2509C49.7365 24.3356 49.8308 24.3995 49.9203 24.4468C50.1135 24.5492 50.3076 24.5893 50.4537 24.6066C50.6396 24.6293 50.8197 24.6217 50.9607 24.6103C51.1944 24.5918 51.4111 24.4812 51.5633 24.3028C51.7154 24.1245 51.7903 23.8931 51.7718 23.6594C51.7533 23.4258 51.6427 23.209 51.4643 23.0569C51.2859 22.9048 51.0544 22.8296 50.8207 22.8481C50.7417 22.8557 50.6908 22.852 50.6659 22.85C50.6508 22.8483 50.6733 22.8423 50.7478 22.8839C50.7818 22.9028 50.8245 22.9297 50.8698 22.9732C50.9137 23.0151 50.9553 23.0677 50.9882 23.13C51.0184 23.1897 51.0393 23.2495 51.0495 23.3047C51.0609 23.3568 51.0607 23.4006 51.0569 23.432C51.0531 23.4917 51.042 23.5069 51.0495 23.4899C51.0571 23.471 51.0759 23.4319 51.116 23.3688C51.1927 23.249 51.3216 23.0828 51.5213 22.8698C51.7076 22.671 51.9428 22.4445 52.2279 22.1946C52.5026 21.9538 52.8182 21.6962 53.1697 21.4283C53.8643 20.8988 54.6755 20.3469 55.5444 19.8257C56.444 19.286 57.3606 18.8057 58.2416 18.4174C59.2376 17.9783 60.1115 17.69 60.8513 17.5274C61.2915 17.4306 61.6641 17.3826 61.977 17.3659C62.3486 17.347 62.6269 17.3698 62.8289 17.4061C62.8516 17.4097 62.8711 17.4136 62.8915 17.4174C63.1848 17.4744 63.3946 17.5656 63.5468 17.6582C63.7812 17.8007 63.917 17.9706 63.9937 18.0822C64.1264 18.2754 64.3304 18.4082 64.5609 18.4511C64.7914 18.4939 65.0295 18.4433 65.2228 18.3106C65.416 18.1779 65.5486 17.9738 65.5914 17.7433C65.6342 17.5128 65.5829 17.2766 65.4502 17.0833Z" fill="white"/>
<path d="M59.8577 12.0941C59.7451 11.8707 59.5262 11.5049 59.1015 11.2179C58.8158 11.0248 58.4712 10.8926 58.0667 10.8461C57.9571 10.8347 57.8451 10.8271 57.7306 10.8271C57.5201 10.8272 57.281 10.8499 57.0085 10.9017C56.6937 10.9633 56.3455 11.066 55.9573 11.2191C55.318 11.4712 54.6057 11.8464 53.8209 12.343C53.1309 12.7797 52.4257 13.2844 51.7372 13.8157C51.0758 14.3259 50.4581 14.8386 49.9305 15.2941C49.3895 15.7611 48.9493 16.1628 48.6599 16.4325C48.503 16.5784 48.3842 16.6922 48.3067 16.767C48.2878 16.7859 48.2677 16.8048 48.2522 16.8203C48.2371 16.8354 48.222 16.8504 48.2096 16.8625L48.1906 16.8815C48.1831 16.889 48.1756 16.8966 48.168 16.908C48.1643 16.9118 48.1568 16.9232 48.1454 16.9345C48.1417 16.9421 48.1339 16.9495 48.1226 16.9608C48.115 16.9721 48.0999 16.991 48.0806 17.0182C48.073 17.0334 48.0581 17.056 48.04 17.0851C48.0249 17.1078 47.9953 17.1688 47.9703 17.2501C47.959 17.292 47.9401 17.3609 47.9325 17.4478C47.9249 17.5324 47.9288 17.6745 47.9923 17.8351C48.0263 17.9182 48.0736 18.0031 48.1413 18.0829C48.2093 18.163 48.2885 18.227 48.3724 18.2757C48.4556 18.3237 48.5365 18.3524 48.608 18.3694C48.6786 18.3845 48.7418 18.3922 48.7932 18.3922C48.8922 18.3945 48.9715 18.3807 49.0183 18.3694C49.0682 18.358 49.1085 18.3429 49.1353 18.3315C49.1875 18.3126 49.2266 18.2901 49.2463 18.2792C49.2867 18.2565 49.3167 18.2357 49.3277 18.2277C49.3541 18.2088 49.3722 18.1937 49.3782 18.1887L49.3971 18.1698C49.4085 18.1623 49.4159 18.1548 49.4197 18.1472C49.4348 18.1359 49.4462 18.1208 49.4624 18.1075C49.4964 18.0773 49.5381 18.0356 49.5884 17.9869C49.7237 17.8561 49.8931 17.6895 50.0629 17.5204C50.2292 17.3552 50.3228 17.1306 50.3235 16.8962C50.3243 16.6618 50.232 16.4366 50.0668 16.2704C49.9016 16.1041 49.677 16.0104 49.4426 16.0097C49.2081 16.009 48.983 16.1014 48.8167 16.2667C48.6493 16.433 48.4863 16.5935 48.3593 16.7163C48.312 16.762 48.2764 16.7976 48.2522 16.8203L48.2324 16.8388C48.2589 16.8161 48.2754 16.8009 48.3 16.785C48.3113 16.7775 48.3396 16.7587 48.38 16.7345C48.3989 16.7232 48.4386 16.7041 48.4908 16.6821C48.5172 16.6708 48.5578 16.6559 48.6077 16.6445C48.6546 16.6332 48.7338 16.6179 48.8329 16.6217C48.8843 16.6229 48.9474 16.6294 49.0181 16.6445C49.0895 16.6634 49.1705 16.6906 49.2536 16.7382C49.3379 16.7866 49.4167 16.8508 49.4848 16.9306C49.5524 17.01 49.6009 17.0953 49.6338 17.1781C49.6973 17.3387 49.6997 17.4809 49.694 17.5654C49.6865 17.6524 49.6713 17.7212 49.6562 17.7631C49.6297 17.8444 49.5997 17.9032 49.5865 17.9274C49.5714 17.9576 49.5563 17.9804 49.5461 17.994C49.5272 18.0205 49.512 18.0413 49.5049 18.0503C49.4973 18.0617 49.4897 18.0692 49.4859 18.0729C49.4784 18.0843 49.4708 18.092 49.467 18.0958C49.4671 18.0962 49.4747 18.0882 49.4899 18.0769C49.5012 18.0655 49.5163 18.0503 49.5348 18.0326C49.6029 17.9668 49.7131 17.8609 49.8624 17.7218C50.1379 17.4648 50.5617 17.0787 51.083 16.6286C51.5918 16.1893 52.1839 15.6978 52.8142 15.2115C53.4714 14.7045 54.1309 14.2334 54.7633 13.8332C55.4855 13.3762 56.0968 13.0595 56.603 12.8599C56.9073 12.7401 57.1518 12.6709 57.3458 12.6327C57.5121 12.5987 57.6376 12.5912 57.7285 12.5912C57.7788 12.5912 57.8225 12.5939 57.8607 12.5988C57.9937 12.6139 58.0668 12.651 58.1091 12.6793C58.1802 12.7273 58.2338 12.8022 58.2768 12.8876C58.383 13.0961 58.5674 13.2539 58.7897 13.3266C59.012 13.3993 59.254 13.381 59.4628 13.2756C59.6716 13.1702 59.8301 12.9865 59.9036 12.7644C59.9771 12.5424 59.9596 12.3002 59.855 12.0911L59.8577 12.0941Z" fill="white"/>
<path d="M88.0902 1.92729C87.6541 2.29806 86.6626 3.16568 85.5603 4.47611C84.9945 5.14864 84.2154 6.15398 83.4096 7.49438C82.2999 9.34038 81.281 11.5869 80.5602 14.2287C78.8252 20.5886 79.6521 25.9431 80.3342 28.6889C80.3907 28.9164 80.5352 29.112 80.736 29.2329C80.9368 29.3538 81.1775 29.39 81.405 29.3335C81.6325 29.2769 81.8283 29.1325 81.9492 28.9316C82.0701 28.7308 82.1063 28.4901 82.0498 28.2626C81.4148 25.7071 80.6338 20.6748 82.2654 14.694C82.9417 12.2153 83.8951 10.1179 84.9248 8.40536C85.6721 7.16227 86.3926 6.23302 86.913 5.61431C87.9273 4.4086 88.8377 3.61244 89.2356 3.27402C89.4141 3.12214 89.5251 2.9056 89.544 2.67193C89.5629 2.43827 89.488 2.20666 89.3361 2.02809C89.1843 1.84953 88.9677 1.73854 88.7341 1.71967C88.5004 1.7008 88.2688 1.7754 88.0902 1.92729Z" fill="white"/>
<path d="M79.8128 1.73854C79.4677 1.79486 78.9908 1.93343 78.4363 2.29634C78.0573 2.54465 77.6665 2.88106 77.2647 3.32773C76.809 3.83426 76.3566 4.46292 75.9085 5.21634C75.7146 5.54213 75.5054 5.91879 75.2831 6.35453C74.7582 7.38339 74.2019 8.66384 73.6452 10.2222C73.1788 11.5276 72.7444 12.9391 72.3652 14.38C72.0072 15.7404 71.7148 17.0662 71.5038 18.2548C71.398 18.8508 71.3135 19.4059 71.2519 19.9098C71.1884 20.4282 71.1483 20.8925 71.1328 21.2946C71.1253 21.5032 71.1216 21.6972 71.1291 21.8756C71.1329 22.0593 71.148 22.2322 71.1695 22.3908C71.1922 22.5537 71.2273 22.7193 71.2832 22.8747C71.3135 22.9568 71.3513 23.0439 71.4016 23.1301C71.4537 23.2189 71.5232 23.3146 71.6166 23.403C71.7152 23.4964 71.8384 23.579 71.9866 23.6335C72.1419 23.6909 72.2985 23.7076 72.4447 23.6955C72.594 23.6842 72.7221 23.6423 72.8235 23.5965C72.9305 23.5485 73.0209 23.4903 73.0939 23.4355C73.2511 23.3172 73.3817 23.1739 73.4814 23.051C73.6099 22.893 73.7261 22.7209 73.821 22.5689C73.9454 22.3702 73.9858 22.1302 73.9333 21.9017C73.8808 21.6732 73.7396 21.475 73.541 21.3506C73.3423 21.2262 73.1023 21.1858 72.8738 21.2383C72.6453 21.2908 72.4471 21.4318 72.3227 21.6304C72.2475 21.7502 72.1746 21.8564 72.1096 21.9365C72.0597 21.9978 72.0175 22.0333 72.0318 22.0224C72.0356 22.019 72.0582 22.0036 72.1013 21.9831C72.1409 21.9642 72.209 21.9411 72.3001 21.9335C72.3908 21.926 72.4944 21.9364 72.5991 21.9748C72.6985 22.0126 72.775 22.0652 72.8302 22.1169C72.8816 22.1653 72.9115 22.2099 72.9266 22.236C72.9418 22.2624 72.9456 22.2749 72.9456 22.2745C72.9453 22.2739 72.9304 22.2266 72.919 22.1453C72.9077 22.0656 72.9002 21.9597 72.8964 21.8233C72.8926 21.6921 72.8937 21.5389 72.9003 21.3624C72.9155 21.0211 72.9483 20.6074 73.0076 20.1243C73.0651 19.6564 73.1439 19.1326 73.2452 18.563C73.447 17.426 73.7288 16.1475 74.0757 14.8294C74.443 13.4336 74.8629 12.0706 75.311 10.8162C75.8459 9.31889 76.3732 8.10941 76.8589 7.15731C77.0641 6.75475 77.2552 6.41163 77.4289 6.11969C77.833 5.44036 78.2191 4.91072 78.58 4.50952C78.8964 4.15765 79.1736 3.92692 79.4056 3.77502C79.731 3.56186 79.9697 3.50353 80.0984 3.48275C80.3297 3.445 80.5368 3.31708 80.6737 3.1268C80.8106 2.93652 80.8662 2.69956 80.8285 2.4682C80.7908 2.23683 80.6626 2.03001 80.4723 1.8931C80.282 1.75619 80.0442 1.7008 79.8128 1.73854Z" fill="white"/>
<path d="M72.8949 2.41811C72.7199 2.41622 72.4866 2.43305 72.2171 2.51015C72.0225 2.56571 71.8172 2.65084 71.6054 2.77405C71.2652 2.97248 70.9307 3.25763 70.6031 3.64465C70.4194 3.8616 70.2395 4.10882 70.063 4.387C69.9787 4.52003 69.8898 4.66825 69.798 4.8336C69.581 5.22289 69.3508 5.69626 69.114 6.27422C68.734 7.20145 68.3616 8.33898 68.021 9.68604C67.7262 10.8528 67.4719 12.1108 67.2738 13.3793C67.0845 14.5928 66.9533 15.7703 66.8879 16.8135C66.8539 17.3398 66.8388 17.8282 66.8399 18.2686C66.841 18.7225 66.8589 19.1291 66.899 19.479C66.9179 19.6612 66.9447 19.8321 66.9772 19.9895C67.0112 20.1513 67.0527 20.3084 67.1075 20.4541C67.1634 20.6031 67.2424 20.766 67.3592 20.9141C67.4215 20.9931 67.4991 21.0736 67.5947 21.145C67.6949 21.2199 67.8129 21.2831 67.9474 21.3231C68.0876 21.3647 68.2285 21.3763 68.3638 21.3642C68.5021 21.3529 68.6242 21.3147 68.7262 21.2701C68.8324 21.224 68.9229 21.1674 68.9977 21.1118C69.0771 21.0532 69.1465 20.9897 69.2063 20.9289C69.3374 20.7955 69.4498 20.6449 69.5424 20.5065C69.6592 20.3315 69.7638 20.146 69.8503 19.9808C69.958 19.7733 69.979 19.5318 69.9089 19.3088C69.8389 19.0858 69.6836 18.8995 69.4766 18.7909C69.2697 18.6823 69.0282 18.6601 68.8049 18.7291C68.5816 18.7981 68.3947 18.9529 68.2851 19.1593C68.2148 19.2931 68.1421 19.4196 68.0722 19.5247C68.0144 19.6116 67.9709 19.6639 67.9456 19.6892C67.9342 19.7005 67.9351 19.6946 67.9456 19.6892C67.9531 19.6816 67.9788 19.6686 68.0208 19.6486C68.0616 19.6297 68.1227 19.6103 68.2021 19.6031C68.2803 19.5956 68.3659 19.6027 68.4517 19.6297C68.5337 19.6524 68.6006 19.6913 68.6512 19.7291C68.6992 19.7631 68.7303 19.7991 68.7477 19.8214C68.7779 19.8603 68.7778 19.8743 68.7627 19.8327C68.7475 19.7949 68.7286 19.732 68.7094 19.6345C68.6905 19.5415 68.6715 19.4263 68.6568 19.2869C68.6265 19.017 68.6097 18.6766 68.6086 18.2663C68.6076 17.8706 68.6236 17.4209 68.6531 16.9258C68.7147 15.9435 68.8391 14.8204 69.0213 13.6538C69.2117 12.4351 69.4551 11.231 69.7357 10.1211C70.06 8.83864 70.4078 7.78243 70.7505 6.94644C70.9632 6.42701 71.1637 6.01784 71.3431 5.6959C71.4191 5.55946 71.4908 5.43965 71.5569 5.33534C71.696 5.11613 71.8286 4.93587 71.953 4.78885C72.173 4.52919 72.3595 4.38308 72.4967 4.30303C72.5814 4.25351 72.6509 4.22656 72.7046 4.21144C72.7775 4.18877 72.8358 4.18884 72.8762 4.18884C73.1106 4.19134 73.3364 4.10068 73.5039 3.9367C73.6714 3.77272 73.7669 3.54895 73.7694 3.31455C73.7719 3.08014 73.6813 2.85415 73.5173 2.68662C73.3533 2.5191 73.1293 2.42061 72.8949 2.41811Z" fill="white"/>
<path d="M66.3216 2.0788C66.1742 2.04478 65.978 2.01831 65.7472 2.03797C65.5745 2.05308 65.3926 2.09282 65.2055 2.16576C64.8986 2.28558 64.6102 2.48215 64.3391 2.74755C64.1051 2.97659 63.8858 3.25589 63.6784 3.57824C63.562 3.75966 63.449 3.95468 63.3398 4.16187C63.2706 4.29302 63.1992 4.43645 63.1255 4.59394C62.8326 5.21976 62.5249 6.02783 62.2343 7.03666C61.9947 7.86823 61.7813 8.78885 61.6154 9.73797C61.4597 10.6292 61.3515 11.5144 61.3054 12.3175C61.2827 12.7196 61.2751 13.0994 61.2865 13.4488C61.2978 13.8071 61.3247 14.1386 61.3746 14.434C61.4264 14.7401 61.5054 15.0352 61.6309 15.2915C61.6985 15.4298 61.7849 15.5689 61.8987 15.6949C62.0208 15.8302 62.1748 15.9505 62.3631 16.0317C62.5679 16.1202 62.7779 16.1466 62.9753 16.13C63.1854 16.1111 63.3669 16.0464 63.5109 15.975C63.6754 15.8933 63.8175 15.7901 63.9326 15.6938C64.077 15.5728 64.2037 15.4418 64.3054 15.3277C64.4607 15.1525 64.54 14.9228 64.5262 14.6891C64.5123 14.4555 64.4064 14.2367 64.2316 14.0811C64.0567 13.9254 63.8272 13.8456 63.5935 13.8589C63.3598 13.8722 63.141 13.9778 62.985 14.1523C62.9181 14.2276 62.8544 14.2909 62.7981 14.3378C62.7554 14.3718 62.7227 14.3922 62.7238 14.3918C62.7249 14.3913 62.7541 14.373 62.8251 14.3692C62.8931 14.3616 62.9777 14.3725 63.0627 14.4093C63.1394 14.4433 63.1875 14.4855 63.2106 14.5108C63.2295 14.5335 63.2295 14.5412 63.2182 14.5147C63.1917 14.4645 63.1525 14.3491 63.1169 14.139C63.0829 13.9451 63.0609 13.6985 63.0526 13.3982C63.045 13.108 63.0502 12.779 63.0715 12.4174C63.1127 11.6937 63.2116 10.8774 63.3575 10.0415C63.5129 9.15294 63.7125 8.29407 63.934 7.52502C64.2027 6.59162 64.4797 5.87198 64.7276 5.34205C64.7896 5.20939 64.8489 5.09078 64.9045 4.98495C64.9929 4.81714 65.0802 4.66659 65.1656 4.53374C65.3195 4.29487 65.4581 4.1255 65.5767 4.00939C65.712 3.87711 65.805 3.82885 65.8496 3.81146C65.8761 3.80013 65.8919 3.80016 65.8983 3.80016C65.9059 3.7994 65.9173 3.80012 65.9248 3.80247C66.1533 3.85497 66.3933 3.81455 66.592 3.69012C66.7906 3.5657 66.9316 3.36749 66.9841 3.13902C67.0366 2.91055 66.9964 2.67056 66.872 2.47188C66.7476 2.27321 66.5501 2.1313 66.3216 2.0788Z" fill="white"/>
<path d="M60.1208 2.94733C60.0161 2.95032 59.8735 2.96639 59.7086 3.02346C59.5986 3.06125 59.4866 3.11443 59.3732 3.18586C59.2538 3.26107 59.1368 3.3549 59.0219 3.46753C58.9757 3.51288 58.9268 3.56428 58.8754 3.62324C58.6565 3.87269 58.4137 4.2305 58.1517 4.75543C57.9552 5.14892 57.758 5.61744 57.5699 6.14877C57.401 6.62578 57.2455 7.13722 57.1153 7.64844C56.9886 8.14432 56.8881 8.63174 56.8234 9.07107C56.7894 9.29482 56.7669 9.50739 56.754 9.70476C56.7389 9.9081 56.739 10.1024 56.7503 10.2817C56.7616 10.465 56.7925 10.6674 56.8647 10.8591C56.904 10.9638 56.9623 11.0824 57.0511 11.1961C57.1475 11.3201 57.2804 11.4382 57.4548 11.5179C57.6446 11.6045 57.8358 11.6244 58.0032 11.6081C58.1789 11.5892 58.3238 11.5342 58.4272 11.4824C58.5466 11.4223 58.6463 11.3501 58.7215 11.2889C58.8167 11.2114 58.8991 11.1301 58.9626 11.0628C59.1229 10.8922 59.2092 10.665 59.2023 10.431C59.1953 10.1969 59.0957 9.97527 58.9254 9.81457C58.7552 9.65386 58.5281 9.56722 58.294 9.57373C58.06 9.58025 57.8382 9.67947 57.6772 9.8494C57.647 9.88342 57.6216 9.9049 57.6068 9.91699C57.5955 9.92455 57.5994 9.9207 57.6334 9.902C57.6598 9.89066 57.727 9.85799 57.8301 9.84779C57.9314 9.83645 58.06 9.84917 58.1912 9.90938C58.3114 9.96456 58.3945 10.0425 58.4463 10.1087C58.4924 10.168 58.5132 10.2171 58.5203 10.236C58.5355 10.2768 58.5204 10.2434 58.5167 10.1611C58.5129 10.0817 58.5128 9.96948 58.5203 9.82056C58.5279 9.67845 58.5469 9.51346 58.5753 9.3269C58.6293 8.95915 58.7166 8.53295 58.8311 8.08397C58.9486 7.62336 59.0884 7.16316 59.2392 6.73724C59.4073 6.26181 59.5774 5.86142 59.7361 5.54345C59.9481 5.11871 60.1118 4.89627 60.2076 4.78704C60.2302 4.76058 60.2483 4.74243 60.2627 4.72844C60.3005 4.69443 60.318 4.6809 60.3199 4.67977C60.3218 4.67856 60.3085 4.68721 60.2858 4.69476C60.248 4.7061 60.2098 4.71368 60.1727 4.71368C60.4071 4.70706 60.6293 4.6077 60.7903 4.43732C60.9513 4.26695 61.038 4.03958 61.0313 3.80525C61.0247 3.57092 60.9254 3.34895 60.755 3.18794C60.5846 3.02692 60.3552 2.94072 60.1208 2.94733Z" fill="white"/>
</svg>
