<?xml version="1.0" encoding="UTF-8" standalone="no"?><!DOCTYPE svg PUBLIC "-//W3C//DTD SVG 1.1//EN" "http://www.w3.org/Graphics/SVG/1.1/DTD/svg11.dtd"><svg width="100%" height="100%" viewBox="0 0 6844 3979" version="1.1" xmlns="http://www.w3.org/2000/svg" xmlns:xlink="http://www.w3.org/1999/xlink" xml:space="preserve" xmlns:serif="http://www.serif.com/" style="fill-rule:evenodd;clip-rule:evenodd;stroke-linecap:round;stroke-miterlimit:1;"><rect x="3.935" y="2.946" width="6835.08" height="3972.14" style="fill:#74b9ff;stroke:#fff;stroke-width:4.17px;"/><path id="Unknown" d="M1083.19,4.194c-0.302,92.988 25.614,45.302 74.118,44.154c16.427,-0.389 25.338,26.631 40.501,38.416c23.654,18.384 31.358,44.508 56.243,44.374c15.772,-0.085 92.065,-38.31 80.154,-1.459c-4.046,12.517 -20.366,10.395 -29.03,18.889c-7.835,7.682 -8.235,27.198 -12.423,30.143c-5.907,4.154 -100.968,-28.688 -127.146,-18.727c-13.778,5.243 -1.564,39.791 -15.007,37.962c-10.884,-1.48 -35.899,-49.965 -34.359,15.107c0.786,33.236 -30.04,19.911 -59.065,37.646c-12.98,7.93 -68.507,43.479 -75.995,54.008c-6.707,9.432 20.18,11.355 30.505,16.583c58.606,29.674 33.496,-42.761 126.693,-30.828c29.618,3.792 27.446,32.735 59.387,27.174c31.151,-5.424 34.022,-57.528 71.236,-55.942c30.392,1.295 79.618,34.157 136.219,30.79c23.065,-1.373 34.962,-23.179 59.534,-23.179c57.551,-0 122.114,21.056 180.325,16.144c16.451,-1.388 60.948,-18.437 77.655,-23.919c63.341,-20.784 19.829,-50.912 -42.695,-77.29c-2.116,-0.892 52.483,-32.736 54.67,-36.964c4.513,-8.726 0.63,-27.121 6.15,-33.05c18.003,-19.332 53.24,-14.702 62.487,-47.026c3.811,-13.323 21.016,-63.006 21.016,-63.006l-741.173,0" style="fill:#dfe6e9;stroke:#fff;stroke-width:4.17px;"/><path id="Creta" d="M4522.28,2798.97c-4.797,14.883 -14.716,56.225 1.984,66.602c6.493,4.035 15.064,-3.257 20.643,-5.853c11.366,-5.287 21.711,-7.912 34.171,-5.197c16.802,3.661 35.055,10.056 52.296,9.992c8.122,-0.03 17.134,-0.77 25.259,-1.954c3.397,-0.495 6.5,-2.761 10.037,-2.093c17.663,3.336 28.404,21.72 45.254,25.816c11.364,2.762 21.124,-4.771 31.798,-7.051c25.649,-5.478 48.282,-6.022 72.253,-18.287c7.127,-3.646 15.537,-4.28 22.931,-7.274c9.058,-3.668 17.832,-9.376 27.178,-12.176c7.722,-2.313 15.363,-1.598 22.766,-5.62c7.143,-3.88 17.435,-8.819 17.827,-17.848c0.189,-4.351 -0.538,-8.486 -1.413,-12.724c-1.009,-4.886 -1.262,-15.138 -6.701,-17.625c-4.27,-1.953 -9.844,2.42 -12.815,5.015c-11.604,10.133 -20.839,17.081 -34.443,24.227c-4.797,2.52 -11.809,6.931 -17.475,4.525c-7.156,-3.039 -6.534,-14.717 -6.662,-20.964c-0.03,-1.462 0.881,-7.877 -1.223,-8.524c-4.154,-1.278 -10.243,3.177 -13.789,4.792c-10.134,4.612 -21.81,10.907 -32.964,12.314c-10.098,1.274 -20.334,-1.046 -30.454,-0.821c-5.377,0.12 -11.272,2.864 -16.65,1.681c-11.675,-2.569 -17.438,-11.347 -31.039,-9.827c-13.283,1.486 -27.026,3.76 -39.41,8.917c-9.35,3.892 -21.566,12.601 -32.111,12.162c-16.655,-0.695 -16.589,-27.013 -31.746,-31.077c-9.375,-2.514 -14.369,13.007 -21.984,15.825c-7.326,2.71 -18.847,3.195 -25.669,-1.37c-2.321,-1.553 -7.449,-7.948 -9.976,-8.182c-4.64,-0.43 -8.024,18.635 -15.786,7.295c-0.974,-1.422 -1.492,-3.099 -2.087,-4.696Z" style="fill:#a29bfe;stroke:#fff;stroke-width:4.17px;"/><path id="Gallia" d="M2057.38,161.811c56.968,0 211.549,-11.792 247.83,34.636c31.108,39.81 31.122,99.184 48.628,144.862c9.497,24.783 28.283,46.201 42.149,68.683c19.793,32.09 37.64,68.862 58.633,99.957c14.304,21.188 48.394,6.466 41.247,78.831c-7.524,76.184 -49.616,158.476 -78.395,228.766c-7.221,17.638 -37.925,61.297 -29.603,82.129c12.936,32.382 222.056,-23.786 236.826,17.159c3.976,11.023 -31.192,132.493 -41.412,136.72c-21.987,9.094 -43.411,1.435 -65.59,7.495c-14.368,3.925 -41.739,-3.786 -45.486,22.778c-14.02,2.098 -28.434,8.231 -38.744,12.441c-25.578,10.442 -67.88,39.367 -92.992,41.721c-31.087,2.915 -71.555,-19.927 -100.044,-11.024c-39.53,12.353 -54.851,65.876 -91.844,81.829c-37.51,16.176 -64.837,-22.803 -116.609,17.967c-17.939,14.127 -58.925,147.518 -126.121,187.206c-31.973,18.884 -155.755,59.489 -191.806,66.768c-19.31,3.9 -60.466,-11.777 -74.951,1.154c-41.636,37.167 -65.486,78.156 -79.953,136.996c-4.728,19.231 -8.446,34.606 -8.446,54.269c-0,9.079 -3.902,28.306 -3.902,28.306c-9.565,-2.93 -18.479,-6.625 -26.03,-12c-91.773,-65.335 -200.856,-59.969 -254.948,-169.148c-4.298,-8.674 -25.872,-32.583 -25.872,-32.583c11.283,-9.568 23.527,-23.481 37.188,-43.042c33.005,-47.256 14.898,-132.22 19.353,-186.514c4.991,-60.831 51.361,-108.624 55.352,-167.002c0.924,-13.509 -33.438,-38.28 -39.279,-54.961c-24.399,-69.676 -40,-160.186 -87.908,-219.264c-42.773,-52.746 -105.852,-72.63 -161.3,-109.736c-9.876,-6.608 -54.83,-26.218 -57.157,-38.654c-4.016,-21.461 23.82,-22.871 33.212,-34.757c6.261,-7.924 -27.504,-9.723 -17.549,-23.132c20.146,-27.138 54.846,-12.708 82.823,-12.708c27.296,-0 53.376,-20.861 80.528,-15.407c30.035,6.034 140.18,63.02 167.532,48.019c25.039,-13.733 -38.371,-166.513 -20.582,-184.024c8.994,-8.854 41.303,24.579 46.003,29.406c26.338,27.046 36.559,36.632 75.772,40.615c14.65,1.488 127.138,4.525 144.08,-3.621c12.905,-6.205 5.037,-13.993 12.136,-21.979c22.012,-24.764 65.55,-29.947 95.206,-39.024c12.561,-3.844 78.399,-84.559 81.921,-97.766c3.639,-13.647 -6.213,-28.833 6.151,-39.069c12.649,-10.474 128.973,-64.544 192.192,-112.834c30.751,-23.489 77.254,17.719 78.127,-1.341c0.378,-8.242 -3.375,-23.655 -6.366,-39.123" style="fill:#ffeaa7;stroke:#fff;stroke-width:4.17px;"/><path id="Narbonensis" d="M2537.93,1130.38c-30.927,1.003 -52.548,28.714 -82.003,28.714c-27.272,-0 -44.696,-13.563 -72.163,-0.808c-19.437,9.027 -92.379,33.276 -101.93,49.933c-17.838,31.104 16.305,60.17 19.598,88.425c4.265,36.583 -9.844,73.039 -4.92,109.044c2.768,20.243 28.255,21.311 37.804,35.979c28.269,43.423 -3.635,76.724 -21.484,114.047c-25.756,20.283 -73.269,85.545 -104.116,89.326c-93.01,11.403 -174.288,-56.805 -258.229,-83.459c-10.42,-3.309 -54.393,-4.79 -63.88,0.546c-38.606,21.716 -91.366,74.218 -93.935,120.099c-1.402,25.036 10.413,69.643 12.129,109.316c-42.098,0 -93.205,-24.035 -138.403,-24.035c-10.861,0 -19.822,-0.997 -27.758,-2.705c0,0 11.277,-18.025 -10.674,-35.665c-21.375,-17.178 -53.92,-19.325 -81.176,-27.676c-0,0 3.902,-19.227 3.902,-28.306c-0,-19.663 3.718,-35.038 8.446,-54.269c14.467,-58.84 38.317,-99.829 79.953,-136.996c14.485,-12.931 55.641,2.746 74.951,-1.154c36.051,-7.279 159.833,-47.884 191.806,-66.768c67.196,-39.688 108.182,-173.079 126.121,-187.206c51.772,-40.77 79.099,-1.791 116.609,-17.967c36.993,-15.953 52.314,-69.476 91.844,-81.829c28.489,-8.903 68.957,13.939 100.044,11.024c25.112,-2.354 67.414,-31.279 92.992,-41.721c10.31,-4.21 24.724,-10.343 38.744,-12.441c12.132,-1.815 23.969,-0.608 32.599,7.482c12.558,11.774 33.129,39.07 33.129,39.07" style="fill:#a29bfe;stroke:#fff;stroke-width:4.17px;"/><path id="Cantabri" d="M1638.64,1764.8c-24.527,-5.278 -39.253,-17.342 -69.99,-27.715c-32.887,-11.1 -63.764,-3.24 -96.928,-6.827c-32.175,-3.481 -55.994,-22.893 -85.119,-33.627c-55.02,-20.277 -120.281,30.587 -177.947,9.502c-56.64,-20.708 -89.345,-68.83 -143.834,-94.537c-38.743,-18.278 -73.267,10.134 -113.493,2.053c-57.54,-11.559 -143.285,-63.593 -188.116,-66.93c-53.629,-3.993 -77.71,58.998 -131.041,56.113c-35.481,-1.919 -96.313,-78.294 -80.445,-115.271c5.715,-13.318 21.073,-18.849 25.913,-33.142c5.934,-17.524 11.304,-37.913 14.514,-56.229c0.831,-4.738 11.481,-35.794 11.481,-35.794c15.072,5.299 35.437,-2.959 51.334,-0.046c38.85,7.118 75.034,23.458 113.902,30.974c30.284,5.855 62.157,2.869 92.09,10.54c79.378,20.34 135.414,59.906 218.293,63.701c69.83,3.197 102.465,69.536 160.686,20.163c0,0 21.574,23.909 25.872,32.583c54.092,109.179 163.175,103.813 254.948,169.148c7.551,5.375 16.465,9.07 26.03,12c27.256,8.351 59.801,10.498 81.176,27.676c21.951,17.64 10.674,35.665 10.674,35.665" style="fill:#81ecec;stroke:#fff;stroke-width:4.17px;"/><path id="Hispania" d="M1747.5,1871.75c-71.456,0 -65.233,33.214 -115.133,49.725c-48.284,15.976 -103.464,13.484 -152.28,33.857c-48.702,20.325 -162.527,162.597 -178.768,216.104c-12.416,40.907 37.626,127.453 28.784,144.862c-7.552,14.867 -44.278,30.944 -57.403,45.389c-27.886,30.69 -40.046,86.604 -72.245,111.027c-31.812,24.13 -70.83,13.804 -102.094,33.788c-41.139,26.296 -67.84,100.648 -122.431,105.562c-18.864,1.697 -35.035,-13.983 -52.892,-18.336c-60.974,-14.862 -172.692,-41.941 -233.464,-36.094c-35.699,3.435 -78.544,11.454 -109.474,30.743c-30.883,19.26 -36.048,56.323 -75.853,43.406c-8.159,-2.648 -85.471,-116.14 -89.712,-131.646c-2.825,-10.329 25.756,-13.679 30.939,-20.769c2.508,-3.431 7.109,-31.473 3.017,-32.624c-31.381,-8.826 -68.653,-28.6 -100.083,-44.114c-33.746,-16.658 -87.054,32.191 -113.418,5.399c-20.368,-20.699 -141.767,-38.61 -141.767,-38.61c-0,-0 54.472,-123.232 56.775,-152.363c3.095,-39.163 15.125,-84.171 -27.592,-89.538c-16.215,-2.038 -35.042,-51.739 -31.784,-67.132c3.257,-15.391 18.913,-28.354 24.273,-43.429c6.314,-17.758 3.726,-40.933 13.12,-56.989c42.341,-72.367 108.934,-74.4 134.322,-174.913c27.934,-110.598 28.8,-222.666 39.853,-335.62c1.9,-19.408 -24.171,-55.976 -19.516,-67.945c19.755,-50.799 97.407,-37.716 136.453,-44.305c16,-2.699 18.475,-28.561 44.118,-29.913c65.22,-3.439 88.443,36.859 140.39,55.122c-0,-0 -10.65,31.056 -11.481,35.794c-3.21,18.316 -8.58,38.705 -14.514,56.229c-4.84,14.293 -20.198,19.824 -25.913,33.142c-15.868,36.977 44.964,113.352 80.445,115.271c53.331,2.885 77.412,-60.106 131.041,-56.113c44.831,3.337 130.576,55.371 188.116,66.93c40.226,8.081 74.75,-20.331 113.493,-2.053c54.489,25.707 87.194,73.829 143.834,94.537c57.666,21.085 122.927,-29.779 177.947,-9.502c29.125,10.734 52.944,30.146 85.119,33.627c33.164,3.587 64.041,-4.273 96.928,6.827c30.737,10.373 45.463,22.437 69.99,27.715c7.936,1.708 16.897,2.705 27.758,2.705c45.198,0 96.305,24.035 138.403,24.035c1.794,41.507 -7.467,77.613 -54.483,80.258" style="fill:#fd79a8;stroke:#fff;stroke-width:4.17px;"/><path id="GalliaCisalpina" d="M3244.06,1231.42c0,0 -47.519,24.564 -60.503,39.993c-10.572,12.564 -17.813,52.7 -17.4,52.584c-20.833,21.193 -26.278,85.759 -59.751,34.503c-30.035,-45.991 -14.997,-66.747 -11.91,-117.388c0.054,-0.879 -1.838,-21.383 -12.124,-23.345c-25.342,-4.835 -76.741,21.404 -85.982,26.715c-84.338,48.471 -64.089,85.857 -61.794,195.619c0.338,16.178 9.35,34.462 22.591,52.761c0,0 -90.029,2.19 -141.48,-6.854c-24.741,-4.349 -124.783,-26.873 -146.267,-17.205c-8.265,3.719 -39.183,34.117 -39.183,34.117c-0,-0 -24.539,-29.611 -29.32,-31.34c-17.339,-6.27 -81.051,-30.48 -97.338,-24.678c-44.266,15.77 -66.994,80.828 -110.294,104.247c-27.515,14.882 -58.238,-12.946 -80.474,4.565c17.849,-37.323 49.753,-70.624 21.484,-114.047c-9.549,-14.668 -35.036,-15.736 -37.804,-35.979c-4.924,-36.005 9.185,-72.461 4.92,-109.044c-3.293,-28.255 -37.436,-57.321 -19.598,-88.425c9.551,-16.657 82.493,-40.906 101.93,-49.933c27.467,-12.755 44.891,0.808 72.163,0.808c29.455,-0 51.076,-27.711 82.003,-28.714c93.508,-3.035 181.178,48.084 275.285,40.983c14.493,-1.093 27.587,-16.535 41.412,-21.356c41.077,-14.326 127.698,-42.587 170.813,-34.503c35.305,6.619 135.711,36.193 166.467,52.953c13.947,7.601 39.978,49.836 52.154,62.963" style="fill:#ffeaa7;stroke:#fff;stroke-width:4.17px;"/><path id="Italia" d="M2630.26,1502.92c-0,-0 30.918,-30.398 39.183,-34.117c21.484,-9.668 121.526,12.856 146.267,17.205c51.451,9.044 141.48,6.854 141.48,6.854c33.097,45.738 92.621,91.569 109.202,104.852c14.274,11.436 33.935,15.889 46.987,28.737c40.033,39.407 30.432,115.455 69.047,156.001c34.585,36.314 110.822,65.591 156.217,81.161c20.778,7.126 51.102,5.868 69.785,19.004c14.582,10.253 -15.679,26.944 2.214,41.745c56.338,46.603 131.546,62.966 198.366,90.086c57.027,23.144 145.458,76.695 138.766,135.979c-1.338,11.854 0.702,23.965 -11.752,31.105c-4.205,2.411 -30.311,-1.804 -34.964,-1.804c-37.395,-0 -12.618,-45.36 -37.163,-62.822c-20.205,-14.373 -61.481,-11.316 -81.866,-23.42c-7.972,-4.733 -5.303,-24.121 -21.157,-20.157c-2.052,0.512 -37.17,37.154 -43.615,52.835c-14.278,34.743 -24.655,68.857 -26.536,75.56c-3.821,13.612 35.461,28.6 43.733,34.533c39.866,28.591 34.688,29.711 45.043,65.777c2.991,10.42 4.768,27.893 0.154,40.007c-5.577,14.639 -44.995,15.292 -55.61,28.875c-5.591,7.156 2.39,42.034 -8.574,68.236c-8.338,19.926 -33.849,12.852 -40.07,33.446c-13.811,45.722 -41.215,63.325 -62.11,51.06c-39.66,-23.278 12.594,-45.248 20.726,-62.172c8.839,-18.397 -10.383,-43.492 -1.558,-60.864c6.688,-13.169 21.557,-19.087 28.291,-31.712c4.889,-9.168 -61.435,-178.996 -71.015,-195.371c-12.854,-21.969 -36.892,-4.902 -54.942,-10.886c-13.788,-4.57 -31.7,-23.533 -45.348,-31.758c-22.027,-13.275 -6.865,-58.312 -31.572,-72.788c-18.926,-11.09 -51.847,12.527 -73.803,2.029c-1.021,-0.488 -1.702,-1.36 -2.05,-2.468c-10.705,-34.123 -39.122,-61.089 -69.867,-80.03c-29.205,-17.992 -69.528,4.413 -97.994,-10.932c-27.055,-14.585 -29.695,-51.787 -51.662,-71.127c-18.273,-16.089 -47.775,-13.173 -66.996,-29.798c-24.244,-20.971 -37.866,-55.695 -65.521,-73.411c-18.965,-12.15 -37.444,-17.218 -38.316,-36.736c-0.708,-15.842 -22.336,-15.347 -26.5,-26.765c-8.678,-23.795 -44.04,-17.301 -43.527,-42.869c1.027,-51.241 -24.164,-112.836 -36.118,-139.224c-7.789,-17.193 -55.255,-43.856 -55.255,-43.856" style="fill:#a29bfe;stroke:#fff;stroke-width:4.17px;"/><path id="Sicilia" d="M3378.36,2469.54c-5.696,-12.82 -57.227,14.784 -64.909,14.784c-14.637,0 -25.591,9.246 -39.231,10.581c-11.431,1.118 -22.049,-7.438 -33.696,-3.658c-15.483,5.025 -26.837,18.338 -44.23,20.45c-17.884,2.172 -38.968,10.099 -57.181,6.968c-4.593,-0.789 -24.752,-26.407 -37.942,-30.804c-26.362,-8.787 -24.712,3.302 -48.475,8.691c-51.813,11.752 -68.503,7.138 -71.584,72.99c-1.957,41.834 61.674,28.134 86.471,33.162c42.972,8.713 61.235,52.16 98.293,71.085c20.543,10.491 42.707,0.446 63.039,15.886c15.474,11.75 59.242,58.139 75.776,46.402c12.981,-9.214 52.45,-53.849 59.868,-69.498c3.714,-7.833 -19.613,-44.484 -23.001,-53.038c-5.558,-14.034 4.581,-37.824 6.073,-52.297c2.837,-27.534 36.426,-78.884 30.729,-91.704Z" style="fill:#81ecec;stroke:#fff;stroke-width:4.17px;"/><path id="Corsica" d="M2580.82,1686.18c-3.322,7.266 -6.008,21.09 -9.167,28.492c-8.992,21.075 -12.177,37.892 -29.181,54.535c-10.4,10.178 -23.942,10.407 -37.136,3.975c-1.031,-0.503 -6.587,-2.934 -7.47,-1.361c-4.373,7.79 -9.329,100.397 -5.105,107.981c5.975,10.729 21.42,15.486 27.3,28.915c5.544,12.661 30.602,51.041 32.407,51.194c20.904,1.763 15.414,-61.645 16.498,-69.151c3.76,-26.03 19.986,-56.909 21.712,-80.365c3.169,-43.074 -9.858,-83.237 -9.858,-124.215Z" style="fill:#ffeaa7;stroke:#fff;stroke-width:4.17px;"/><path id="Sardinia" d="M2432.95,2026.72c4.694,-2.708 4.616,11.273 14.457,12.138c13.318,1.17 38.134,-6.088 51.215,-9.946c17.238,-5.085 14.57,-20.808 26.549,-30.623c31.252,-25.604 57.002,-3.744 83.192,19.771c7.99,7.173 6.234,29.61 6.234,39.434c0,15.94 6.62,32.154 4.837,47.703c-1.673,14.585 -14.957,27.99 -16.391,43.001c-1.671,17.474 5.865,30.047 7.523,46.992c3.188,32.576 -7.087,69.177 -11.93,101.285c-1.356,8.986 1.448,38.802 -7.739,45.405c-22.025,15.83 -37.89,-20.993 -51.753,-13.195c-19.366,10.893 -5.259,36.262 -29.128,41.808c-39.232,9.114 -63.307,-27.965 -67.715,-59.991c-6.224,-45.222 15.689,-93.733 7.846,-137.848c-3.054,-17.179 -1.074,-36.287 -4.836,-53.219c-4.702,-21.157 -23.55,-42.637 -26.065,-64.329c-1.518,-13.09 9.011,-25.678 13.704,-28.386Z" style="fill:#fd79a8;stroke:#fff;stroke-width:4.17px;"/><path id="Illyricum" d="M3244.06,1231.42c0,0 82.271,115.447 86.022,128.395c7.67,26.477 -5.269,55.383 10.824,81.091c8.156,13.03 113.738,99.273 122.431,103.093c13.119,5.766 31.877,1.259 45.922,5.674c23.238,7.305 51.334,30.068 74.787,40.292c34.818,15.178 52.702,52.719 82.413,75.002c41.088,30.816 94.898,36.188 139.242,60.565c23.873,13.123 48.777,43.678 74.541,50.924c-17.511,9.075 -38.83,20.794 -52.124,34.987c-7.271,-11.141 -36.579,-24.708 -45.676,-34.641c-34.418,-37.582 -93.324,-32.192 -128.253,-63.909c-33.206,-30.152 -73.145,-64.112 -110.771,-86.788c-16.074,-9.687 -61.19,-2.041 -82.265,-7.657c-30.521,-8.132 -40.658,-33.845 -67.325,-47.095c-22.134,-10.998 -32.949,-26.484 -54.579,-34.649c-17.529,-6.616 -56.145,-41.131 -62.22,-58.42c-5.098,-14.505 -24.135,-21.804 -28.183,-35.464c-8.585,-28.975 -16.465,-79.692 -40.146,-99.426c-4.614,-3.845 -42.543,-19.397 -42.543,-19.397c-0.413,0.116 6.828,-40.02 17.4,-52.584c12.984,-15.429 60.503,-39.993 60.503,-39.993" style="fill:#fd79a8;stroke:#fff;stroke-width:4.17px;"/><path id="Macedonia" d="M5044.18,1723.05c14.547,6.253 22.441,16.499 12.927,34.336c-15.39,28.858 -81.979,11.578 -108.818,26.316c-52.922,29.059 -133.107,106.419 -146.008,107.368c-5.497,0.405 -38.04,0.945 -45.142,0.638c-18.755,-0.812 -30.863,26.469 -49.151,21.325c-9.858,-2.772 2.6,-27.822 -5.459,-32.78c-15.843,-9.748 -121.917,-12.997 -159.485,-3.052c-28.367,7.508 -49.179,28.696 -76.033,41.284c-16.46,7.715 -39.031,1.013 -52.154,6.55c-6.309,2.661 5.07,12.75 8.282,18.796c7.308,13.754 17.953,23.691 22.879,39.393c4.008,12.775 -32.828,56.445 -43.626,59.988c-6.851,2.248 -96.594,-47.114 -106.686,-59.758c-2.744,-3.437 -9.589,-7.601 -13.695,-3.921c-42.698,38.279 17.237,115.383 38.952,143.57c11.694,15.18 17.018,38.494 32.063,50.463c6.758,5.376 21.62,8.36 25.995,15.568c0.116,0.191 0.298,0.337 0.41,0.531c9.685,16.683 3.06,43.438 16.893,57.704c38.901,40.117 168.908,56.089 157.939,131.162c-1.94,13.274 -27.153,9.062 -32.556,21.218c-9.405,21.163 10.848,47.332 -13.858,58.19c-13.41,5.892 -51.395,-31.329 -63.389,-38.862c-27.597,-17.335 -28.347,1.822 -53.548,1.822c-0.322,-0 -0.771,0.073 -1.066,-0.093c-17.933,-10.087 -14.532,-47.796 -57.485,-55.744c-64.665,-11.965 -144.378,34.038 -207.878,5.973c-26.591,-11.752 -26.445,-76.466 -53.63,-89.209c-9.274,-4.347 -58.762,-35.791 -92.09,-68.129c-33.295,-32.307 -22.311,-65.687 -42.068,-103.348c-15.929,-30.364 -60.72,-38.692 -74.131,-68.867c-18.349,-41.286 7.172,-94.925 3.28,-136.513c-3.265,-34.893 -28.834,-79.903 -37.721,-93.522c13.294,-14.193 34.613,-25.912 52.124,-34.987c10.632,2.99 29.959,-23.202 50.35,-14.599c18.067,7.622 21.923,49.848 31.243,52.469c139.276,39.171 163.719,7.553 293.245,-6.458c23.858,-2.581 44.202,-26.083 67.57,-28.137c31.548,-2.773 57.563,29.209 85.53,37.293c33.521,9.69 76.36,15.578 110.622,21.772c35.604,6.438 68.892,-6.085 106,-3.998c32.909,1.851 165.412,23.218 191.591,14.723c20.995,-6.814 54.597,-24.311 62.896,-45.435c3.092,-7.87 39.045,-31.585 79.274,-44.309c48.379,-15.302 96.917,8.883 85.57,-36.749" style="fill:#a29bfe;stroke:#fff;stroke-width:4.17px;"/><path id="Achania" d="M4151.44,2467.1c0,1.503 -9.856,-4.536 -7.352,-13.435c1.651,-5.868 11.59,-8.081 14.792,-14.215c1.638,-3.136 1.673,-16.262 3.566,-17.681c14.956,-11.217 37.61,-6.191 54.283,-11.899c7.125,-2.44 13.133,-10.098 20.736,-12.915c23.791,-8.813 18.308,13.46 38.743,15.465c9.219,0.905 19.169,-4.558 27.867,-2.352c27.296,6.921 52.009,28.483 79.334,36.168c9.91,2.787 27.696,-5.393 36.101,-0.075c8.691,5.5 3.606,19.292 7.572,27.786c7.827,16.764 37.077,33.842 9.641,48.736c-15.196,8.249 -34.514,-28.778 -53.886,-29.383c-1.638,-0.051 -19.14,-1.669 -19.636,1.399c-3.906,24.173 15.642,36.129 25.535,55.026c13.132,25.085 18.79,54.749 24.786,81.474c1.083,4.828 15.75,31.677 12.767,36.23c-3.691,5.637 -13.655,-1.206 -16.069,-4.705c-12.431,-18.02 -16.147,-24.09 -34.824,-34.905c-2.921,-1.692 -7.295,-10.532 -11.49,-7.627c-9.379,6.493 -10.805,44.966 -14.308,55.93c-0.135,0.42 -2.4,16.409 -4.051,16.641c-3.843,0.54 -10.133,-24.391 -11.931,-27.983c-12.136,-24.246 -18.721,-50.666 -46.974,-60.883c-41.274,-14.925 -9.693,56.468 -33.019,48.377c-9.044,-3.137 -12.228,-22.486 -15.849,-29.841c-6.285,-12.766 -22.083,-28.356 -25.579,-40.812c-4.65,-16.565 12.565,-27.238 3.346,-46.036c-19.253,-39.257 -64.101,-39.414 -64.101,-68.485Z" style="fill:#a29bfe;stroke:#fff;stroke-width:4.17px;"/><path id="Lycia" d="M5424.2,2415.11c-0,-0 -100.208,-42.743 -130.186,-37.262c-21.587,3.946 -58.888,45.951 -69.129,63.793c-2.634,4.589 -16.825,32.842 -15.417,32.842c0,2.252 6.383,5.126 9.349,9.087c9.19,12.277 18.158,54.953 29.521,60.888c24.423,12.757 58.769,-2.324 83.808,8.879c11.289,5.052 29.52,-26.246 42.395,-33.617c17.58,-10.066 55.212,9.613 53.333,-11.78c-1.285,-14.639 -5.871,-78.71 -3.674,-92.83" style="fill:#ffeaa7;stroke:#fff;stroke-width:4.17px;"/><path id="Commagene" d="M6395.32,2185.42c24.123,4.799 72.873,23.34 73.548,52.464c0.321,13.878 -11.443,33.562 -5.291,47.139c8.961,19.774 25.11,35.603 35.662,54.703c25.285,-8.141 88.707,-30.087 113.7,-40.549c8.44,-3.533 18.993,1.161 26.714,-2.096c5.4,-2.278 2.306,-48.861 1.784,-53.655c-5.914,-54.262 12.279,-116.793 -1.679,-166.957c-8.54,-30.689 9.589,-51.578 12.175,-80.312c0.857,-9.52 4.514,-18.745 4.514,-28.326c-0,-2.647 -2.624,-12.458 -2.624,-12.458c-0,0 -13.085,-6.904 -20.258,-8.104c-15.687,-2.622 -42.58,-8.126 -54.349,-8.126c-14.471,-0 -67.851,-16.091 -67.851,-16.091c-2.245,14.87 -9.094,30.682 -13.729,38.993c-11.768,21.099 -31.706,36.336 -45.397,56.4c-8.506,12.465 -8.452,30.813 -19.156,42.186c-12.513,13.295 -29.886,20.476 -40.044,35.588c-13.902,20.682 1.048,66.569 2.281,89.201" style="fill:#fd79a8;stroke:#fff;stroke-width:4.17px;"/><path id="Cilicia" d="M6276.13,2187.14c-23.82,-0.872 -41.43,11.737 -52.755,16.122c-20.292,7.857 -47.932,13.163 -63.809,28.779c-1.74,-7.983 -4.421,-13.738 -8.372,-16.307c-51.362,-33.406 -46.314,64.874 -75.361,70.32c-34.063,6.387 -72.609,-34.013 -105.702,-18.589c-68.296,31.831 -46.885,120.39 -107.835,155.194c-23.649,13.504 -161.359,36.516 -190.002,28.783c-19.045,-5.142 -32.589,-29.044 -50.412,-37.403c0,0 4.489,-15.161 5.422,-20.822c2.886,-17.5 8.963,-35.873 20.153,-49.701c9.831,-12.149 26.201,-11.962 38.333,-21.268c29.655,-22.746 58.865,-55.554 92.746,-71.039c4.314,-1.972 36.908,-32.5 54.876,-39.193c12.239,-4.559 25.911,1.147 38.291,-1.582c17.691,-3.9 33.619,-14.818 51.306,-19.165c16.085,-3.954 32.101,-0.944 47.906,-4.322c11.336,-2.423 21.068,-9.726 32.287,-11.88c19.825,-3.805 41.56,-1.713 61.173,-6.388c28.079,-6.692 49.935,-17.305 79.815,-18.905c15.073,-0.808 28.591,9.855 42.993,9.21c27.915,-1.249 55.505,-21.18 85.19,-18.397c18.215,1.707 -15.382,39.852 3.757,46.553" style="fill:#81ecec;stroke:#fff;stroke-width:4.17px;"/><path id="Syria" d="M6522.57,2464.03c0,-0 -11.818,63.204 -17.844,78.681c-2.152,5.53 -7.035,23.164 -7.035,23.164c-9.841,34.467 -47.375,21.976 -69.979,49.361c-18.203,22.053 -4.73,68.664 -24.436,89.447c-25.615,27.016 -63.759,23.235 -85.032,53.151c-24.484,34.431 -12.907,85.015 -23.134,114.736c-0.941,2.736 -9.255,-0.51 -11.073,0.768c-6.971,4.901 -9.916,78.52 -19.944,95.442c-7.474,12.614 -19.763,24.029 -30.702,33.698c-3.125,2.763 -24.27,16.785 -24.27,16.785c-4.807,-38.645 -14.547,-78.356 -9.458,-116.044c3.645,-26.996 20.481,-50.928 23.125,-78.762c4.754,-50.046 -15.294,-84.723 -19.025,-132.638c-3.042,-39.073 15.836,-76.642 12.711,-117.37c-4.397,-57.297 -42.074,-115.812 -59.125,-167.879c-6.846,-20.904 11.719,-130.932 2.222,-174.519c15.877,-15.616 43.517,-20.922 63.809,-28.779c11.325,-4.385 28.935,-16.994 52.755,-16.122c31.134,10.901 86.3,-8.269 119.188,-1.727c24.123,4.799 72.873,23.34 73.548,52.464c0.321,13.878 -11.443,33.562 -5.291,47.139c11.902,26.264 36.483,45.568 43.792,74.819c10.235,40.967 15.198,104.185 15.198,104.185" style="fill:#a29bfe;stroke:#fff;stroke-width:4.17px;"/><path id="Judia" d="M6522.75,2463.96c0,0 50.483,40.526 70.137,50.674c27.936,14.424 57.448,22.822 87.173,31.646c6.157,1.828 28.248,9.165 30.964,16.296c0.29,0.761 -18.386,15.609 -19.366,16.502c-24.949,22.736 -56.717,31.054 -83.656,50.6c-31.551,22.891 -70.945,35.269 -101.133,58.525c-37.035,28.531 -70.647,90.968 -87.698,134.292c-29.605,75.225 -51.751,160.722 -44.82,241.823c3.383,39.578 16.836,79.657 7.243,118.971c-2.489,10.201 5.489,28.317 -4.619,31.16c-18.793,5.285 -98.513,-8.325 -118.206,-9.418c-44.784,-2.486 -90.274,-4.439 -90.274,-4.439c-0,-53.058 38.473,-80.587 42.575,-133.076c1.23,-15.74 0.079,-31.905 -1.956,-48.26c0,0 21.145,-14.022 24.27,-16.785c10.939,-9.669 23.228,-21.084 30.702,-33.698c10.028,-16.922 12.973,-90.541 19.944,-95.442c1.818,-1.278 10.132,1.968 11.073,-0.768c10.227,-29.721 -1.35,-80.305 23.134,-114.736c21.273,-29.916 59.417,-26.135 85.032,-53.151c19.706,-20.783 6.233,-67.394 24.436,-89.447c22.604,-27.385 60.138,-14.894 69.979,-49.361c0,-0 4.883,-17.634 7.035,-23.164c6.026,-15.477 17.844,-78.681 17.844,-78.681" style="fill:#fd79a8;stroke:#fff;stroke-width:4.17px;"/><path id="Aegyptus" d="M5345.21,3975.03l1010.34,0c-0,0 -122.954,-149.766 -133.348,-176.543c-14.51,-37.379 -80.937,-50.909 -109.77,-77.94c-7.222,-6.77 -143.627,-189.767 -145.029,-194.949c-13.79,-50.976 41.406,-24.259 41.406,-24.259c0,0 43.015,-52.689 64.608,-72.757c24.4,-22.676 83.669,-98.356 87.782,-129.594c2.925,-22.209 7.297,-98.391 7.297,-98.391c-0,0 -95.543,59.034 -113.739,67.184c-42.134,18.872 -91.816,-3.442 -135.141,-5.051c-48.491,-1.801 -88.177,15.274 -134.978,19.304c-36.213,3.118 -76.405,-6.511 -111.935,1.084c-48.484,10.363 -33.257,53.912 -63.552,74.287c-15.703,10.561 -36.291,7.728 -53.384,15.107c-53.917,23.275 -100.74,61.13 -159.169,78.208c-34.487,10.08 -120.432,-6.047 -161.367,-6.466c-78.599,-0.804 -193.037,-36.942 -273.63,-29.551c-23.958,2.198 -84.299,44.443 -84.299,44.443c-0,13.819 -0.071,28.158 0.964,41.807c0.59,7.787 1.217,15.583 1.731,23.429c0.118,1.801 1.266,19.486 1.266,19.486c0,0 19.939,3.222 29.965,7.205c19.207,7.631 36.584,19.586 56.049,26.977c18.794,7.136 41.714,7.402 54.564,27.28c6.153,9.518 5.475,25.078 8.255,35.753c5.198,19.96 12.951,38.307 16.647,58.792c2.231,12.363 0.386,25.962 3.164,37.974c2.007,8.676 8.17,14.825 11.419,22.876c3.297,8.168 4.736,17.425 9.025,25.128c5.703,10.239 15.748,15.545 22.949,24.392c12.825,15.758 23.673,32.098 37.421,47.416c14.907,16.609 31.443,23.839 48.868,37.317c9.232,7.14 14.466,16.801 25.259,21.9c10.324,4.878 23.133,4.193 33.735,9.148c18.232,8.521 22.754,22.247 44.135,21.336c13.767,-0.587 32.16,-3.365 45.071,3.072c5.658,2.821 17.5,24.588 17.5,24.588" style="fill:#81ecec;stroke:#fff;stroke-width:4.17px;"/><path id="Cyrene" d="M4881.27,3543.87c0,0 -19.218,-2.379 -25.855,0.273c-12.804,5.118 -43.254,27.558 -55.747,32.243c-54.219,20.333 -116.147,42.524 -174.94,50.073c-23.249,2.985 -46.572,12.585 -69.779,13.869c-21.164,1.171 -40.583,-8.739 -61.781,-5.913c-27.339,3.646 -52.529,16.664 -79.409,20.798c-23.597,3.63 -48.488,-2.078 -71.455,5.829c-51.061,17.58 -111.385,50.421 -152.196,85.429c-25.626,21.982 -46.434,51.736 -70.638,75.635c-19.216,18.973 -54.291,45.025 -79.538,53.784c-5.382,1.868 -34.352,11.076 -34.352,11.076c0,0 -1.179,-22.739 -1.719,-27.376c-2.371,-20.334 -3.893,-47.97 -3.893,-68.481c0,0 20.077,-7.151 29.559,-11.11c191.819,-80.09 21.934,-199.737 51.006,-298.879c21.981,-74.96 232.142,-203.544 308.005,-190.643c24.765,4.212 100.311,9.888 119.603,22.909c24.251,16.37 174.908,82.837 201.3,80.077c40.475,-4.233 78.596,-11.66 98.661,-4.898c14.815,4.992 69.207,70.583 69.207,70.583c-0,13.819 -0.071,28.158 0.964,41.807c0.59,7.787 1.217,15.583 1.731,23.429c0.118,1.801 1.266,19.486 1.266,19.486" style="fill:#a29bfe;stroke:#fff;stroke-width:4.17px;"/><path id="Africa" d="M4005.58,3886.96c0,0 -51.458,-12.834 -63.367,-16.662c-25.482,-8.191 -56.176,-5.929 -80.054,-14.68c-16.637,-6.097 -28.492,-20.606 -44.412,-27.714c-17.415,-7.776 -36.125,-9.706 -53.613,-17.207c-16.118,-6.913 -27.811,-17.591 -46.046,-21.27c-16.255,-3.279 -34.301,1.289 -50.861,0.387c-26.384,-1.436 -52.533,-8.521 -78.893,-9.262c-44.936,-1.264 -102.892,18.162 -143.297,0.508c-36.839,-16.097 -81.127,-31.205 -115.394,-52.201c-21.033,-12.887 -33.857,-32.516 -52.581,-47.642c-21.189,-17.117 -45.543,-31.401 -65.565,-49.758c-32.998,-30.256 -52.375,-77.999 -92.306,-100.919c-11.555,-6.632 -30.561,-19.43 -43.811,-21.802c-9.858,-1.764 -20.438,3.863 -30.052,0.859c-25.101,-7.844 -49.157,-19.729 -75.41,-25.611c-17.3,-3.876 -35.309,0.014 -52.624,-2.89c-40.85,-6.849 -89.571,-21.442 -127.304,-38.585c-17.708,-8.045 -29.604,-21.728 -46.088,-31.415c-19.054,-11.195 -45.616,-20.078 -60.32,-37.339c-16.394,-19.245 -27.693,-43.72 -45.96,-61.209c-16.265,-15.573 -44.407,-25.124 -56.794,-43.773c-8.569,-12.9 -18.13,-27.614 -22.142,-42.66c-5.199,-19.496 -4.168,-42.41 -20.035,-57.497c-14.466,-13.756 -55.382,-16.493 -74.378,-19.528c-3.068,-0.491 -22.314,0.241 -22.314,0.241c0,0 -0.39,-18.858 -1.462,-30.093c-0.838,-8.79 -0.563,-31.606 0.817,-52.434c2.712,-40.935 5.75,-80.77 2.279,-122.055c-2.905,-34.545 -11.596,-68.641 -13.285,-103.313c-0.928,-19.053 -14.227,-19.345 -23.044,-32.032c-6.922,-9.957 -9.515,-22.563 -17.112,-32.454c-10.151,-13.218 -21.7,-23.666 -35.254,-33.12c-10.89,-7.595 -7.775,-37.815 -7.775,-37.815c19.164,2.505 38.722,4.713 55.457,2.265c26.946,-3.94 63.455,-27.993 90.368,-36.97c22.169,-7.395 121.394,-15.434 147.934,-13.239c22.338,1.848 39.151,57.437 63.717,65.8c19.203,6.538 69.783,-31.414 82.987,-12.846c21.482,30.209 -65.596,100.589 -61.174,139.557c3.407,30.024 35.48,49.688 47.89,75.671c10.685,22.372 5.984,48.237 10.004,71.981c2.14,12.637 10.408,34.216 2.706,45.989c-17.818,27.236 -43.225,34.476 -63.389,56.782c-17.745,19.631 -44.257,26.706 -62.916,44.782c-15.156,14.682 -32.049,22.369 -18.267,53.976c35.642,81.736 99.361,9.954 143.471,33.165c35.326,18.589 -4.469,82.03 49.428,109.82c39.971,20.611 120.78,54.739 164.503,65.546c51.689,12.775 91.662,-13.06 148.426,-6.556c43.076,4.936 115.336,39.101 159.357,55.02c51.92,18.774 62.628,-1.544 102.05,38.648c12.292,12.532 28.185,82.057 39.545,96.365c25.019,31.512 57.592,69.733 111.084,60.173c41.502,-7.416 93.816,21.273 134.731,24.102c132.786,9.179 205.618,91.931 260.607,115.156c14.094,5.952 44.326,-0.099 44.326,-0.099c0,20.511 1.522,48.147 3.893,68.481c0.54,4.637 1.719,27.376 1.719,27.376" style="fill:#81ecec;stroke:#fff;stroke-width:4.17px;"/><path id="Numidia" d="M2441.95,3149.33c0,0 -5.033,-0.45 -12.704,-1.299c-18.645,-2.062 -56.932,-3.792 -72.422,-4.14c-17.443,-0.391 -66.707,1.694 -104.735,-4.464c-20.942,-3.391 -40.584,-16.789 -61.137,-22.467c-15.964,-4.409 -31.692,-2.712 -46.734,-10.616c-19.255,-10.119 -33.516,-29.124 -54.988,-36.082c-6.33,-2.051 -20.035,-0.049 -20.035,-0.049c-0,0 -1.332,-14.481 -1.505,-15.792c-2.447,-18.582 -3.224,-38.157 -3.224,-57.11c-0,-70.247 37.751,-126.9 68.187,-187.847c6.187,-12.389 21.313,-18.047 25.151,-32.298c4.663,-17.311 -1.169,-40.736 -4.862,-54.587c-2.125,-7.971 -32.544,-19.074 -32.544,-19.074c-0,0 9.609,-9.669 15.088,-13.676c12.815,-9.371 25.667,-25.301 42.642,-25.301c9.151,0 94.555,35.368 131.616,37.34c11.61,0.618 24.4,2.45 37.37,4.146c-0,-0 -3.115,30.22 7.775,37.815c13.554,9.454 25.103,19.902 35.254,33.12c7.597,9.891 10.19,22.497 17.112,32.454c8.817,12.687 22.116,12.979 23.044,32.032c1.689,34.672 10.38,68.768 13.285,103.313c3.471,41.285 0.433,81.12 -2.279,122.055c-1.38,20.828 -1.655,43.644 -0.817,52.434c1.072,11.235 1.462,30.093 1.462,30.093" style="fill:#ffeaa7;stroke:#fff;stroke-width:4.17px;"/><path id="Mauretania" d="M2069.2,3070.22c-0,0 -45.371,-9.703 -56.978,-14.665c-29.973,-12.814 -64.536,-11.03 -95.578,-11.03c-28.404,-0 -55.916,1.743 -84.224,-2.95c-12.392,-2.055 -23.746,-13.618 -36.372,-14.1c-21.966,-0.837 -72.795,15.667 -99.788,17.921c-32.083,2.678 -64.646,-9.456 -97.079,-9.456c-40.128,-0 -73.716,10.2 -112.901,14.873c-18.716,2.232 -38.246,-1.562 -57.181,-0.315c-21.5,1.417 -41.532,7.351 -62.598,9.746c-25.473,2.897 -51.25,-0.839 -76.786,0.532c-31.117,1.672 -61.246,8.918 -92.565,10.315c-45.018,2.007 -90.23,-2.05 -135.128,0.556c-23.159,1.344 -43.495,18.422 -67.113,20.508c-36.968,3.264 -68.895,-10.883 -104.517,-10.448c-18.186,0.223 -35.466,7.29 -53.526,8.574c-48.914,3.477 -103.652,1.319 -152.67,-3.567c-25.457,-2.538 -50.85,-12.681 -76.356,-12.503c-38.728,0.268 -76.976,11.91 -115.867,7.134c-32.85,-4.034 -61.58,-24.888 -93.21,-28.634c-21.557,-2.553 -43.328,5.761 -64.662,2.261c-29.741,-4.879 -21.573,-56.682 -37.791,-75.888c-6.328,-7.494 -12.475,-14.789 -19.132,-22.032c-3.24,-3.525 -23.145,-18.523 -23.145,-18.523c-0,-0 118.664,-114.594 147.237,-166.194c6.509,-11.755 42.115,-91.462 53.137,-98.282c10.962,-6.783 65.061,-1.229 77.942,1.488c6.164,1.3 9.733,35.585 10.052,40.156c2.029,29.106 9.317,66.757 36.855,81.849c46.785,25.642 80.623,17.914 131.843,21.773c27.473,2.069 53.745,10.134 81.763,10.134c13.848,-0 27.186,-23.418 43.145,-18.929c14.317,4.026 25.2,41.758 34.327,52.224c13.67,15.675 72.553,20.794 91.697,22.302c85.034,6.696 138.516,-73.504 212.196,-94.745c30.752,-8.865 65.879,-1.056 96.87,-10.861c17.711,-5.604 34.49,-26.47 51.667,-34.982c29.034,-14.387 76.112,-27.429 108.391,-34.336c41.093,-8.794 82.602,-0.928 121.674,-4.133c17.056,-1.399 32.578,-10.003 50.198,-10.283c12.788,-0.204 23.089,8.032 36.561,6.993c25.592,-1.974 47.422,-22.207 72.888,-26.567c39.696,-6.796 85.611,10.123 126.259,11.804c25.657,1.061 54.599,-10.302 80.059,-3.141c29.987,8.434 53.981,43.647 86.994,37.147c29.742,-5.855 54.581,-14.236 85.003,-18.846c10.517,-1.593 29.612,0.412 29.612,0.412c-0,0 30.419,11.103 32.544,19.074c3.693,13.851 9.525,37.276 4.862,54.587c-3.838,14.251 -18.964,19.909 -25.151,32.298c-30.436,60.947 -68.187,117.6 -68.187,187.847c-0,18.953 0.777,38.528 3.224,57.11c0.173,1.311 1.505,15.792 1.505,15.792" style="fill:#fd79a8;stroke:#fff;stroke-width:4.17px;"/><path id="Unknown1" serif:id="Unknown" d="M2.946,3020.13l0,954.9l5342.27,0l0.08,-0.008c-0,-0 -11.842,-21.767 -17.5,-24.588c-12.911,-6.437 -31.304,-3.659 -45.071,-3.072c-21.381,0.911 -25.903,-12.815 -44.135,-21.336c-10.602,-4.955 -23.411,-4.27 -33.735,-9.148c-10.793,-5.099 -16.027,-14.76 -25.259,-21.9c-17.425,-13.478 -33.961,-20.708 -48.868,-37.317c-13.748,-15.318 -24.596,-31.658 -37.421,-47.416c-7.201,-8.847 -17.246,-14.153 -22.949,-24.392c-4.289,-7.703 -5.728,-16.96 -9.025,-25.128c-3.249,-8.051 -9.412,-14.2 -11.419,-22.876c-2.778,-12.012 -0.933,-25.611 -3.164,-37.974c-3.696,-20.485 -11.449,-38.832 -16.647,-58.792c-2.78,-10.675 -2.102,-26.235 -8.255,-35.753c-12.85,-19.878 -35.77,-20.144 -54.564,-27.28c-19.465,-7.391 -36.842,-19.346 -56.049,-26.977c-10.026,-3.983 -29.965,-7.205 -29.965,-7.205c0,0 -19.218,-2.379 -25.855,0.273c-12.804,5.118 -43.254,27.558 -55.747,32.243c-54.219,20.333 -116.147,42.524 -174.94,50.073c-23.249,2.985 -46.572,12.585 -69.779,13.869c-21.164,1.171 -40.583,-8.739 -61.781,-5.913c-27.339,3.646 -52.529,16.664 -79.409,20.798c-23.597,3.63 -48.488,-2.078 -71.455,5.829c-51.061,17.58 -111.385,50.421 -152.196,85.429c-25.626,21.982 -46.434,51.736 -70.638,75.635c-19.216,18.973 -54.291,45.025 -79.538,53.784c-5.382,1.868 -34.352,11.076 -34.352,11.076c0,0 -51.458,-12.834 -63.367,-16.662c-25.482,-8.191 -56.176,-5.929 -80.054,-14.68c-16.637,-6.097 -28.492,-20.606 -44.412,-27.714c-17.415,-7.776 -36.125,-9.706 -53.613,-17.207c-16.118,-6.913 -27.811,-17.591 -46.046,-21.27c-16.255,-3.279 -34.301,1.289 -50.861,0.387c-26.384,-1.436 -52.533,-8.521 -78.893,-9.262c-44.936,-1.264 -102.892,18.162 -143.297,0.508c-36.839,-16.097 -81.127,-31.205 -115.394,-52.201c-21.033,-12.887 -33.857,-32.516 -52.581,-47.642c-21.189,-17.117 -45.543,-31.401 -65.565,-49.758c-32.998,-30.256 -52.375,-77.999 -92.306,-100.919c-11.555,-6.632 -30.561,-19.43 -43.811,-21.802c-9.858,-1.764 -20.438,3.863 -30.052,0.859c-25.101,-7.844 -49.157,-19.729 -75.41,-25.611c-17.3,-3.876 -35.309,0.014 -52.624,-2.89c-40.85,-6.849 -89.571,-21.442 -127.304,-38.585c-17.708,-8.045 -29.604,-21.728 -46.088,-31.415c-19.054,-11.195 -45.616,-20.078 -60.32,-37.339c-16.394,-19.245 -27.693,-43.72 -45.96,-61.209c-16.265,-15.573 -44.407,-25.124 -56.794,-43.773c-8.569,-12.9 -18.13,-27.614 -22.142,-42.66c-5.199,-19.496 -4.168,-42.41 -20.035,-57.497c-14.466,-13.756 -55.382,-16.493 -74.378,-19.528c-3.068,-0.491 -22.314,0.241 -22.314,0.241c0,0 -5.033,-0.45 -12.704,-1.299c-18.645,-2.062 -56.932,-3.792 -72.422,-4.14c-17.443,-0.391 -66.707,1.694 -104.735,-4.464c-20.942,-3.391 -40.584,-16.789 -61.137,-22.467c-15.964,-4.409 -31.692,-2.712 -46.734,-10.616c-19.255,-10.119 -33.516,-29.124 -54.988,-36.082c-6.33,-2.051 -20.035,-0.049 -20.035,-0.049c-0,0 -45.371,-9.703 -56.978,-14.665c-29.973,-12.814 -64.536,-11.03 -95.578,-11.03c-28.404,-0 -55.916,1.743 -84.224,-2.95c-12.392,-2.055 -23.746,-13.618 -36.372,-14.1c-21.966,-0.837 -72.795,15.667 -99.788,17.921c-32.083,2.678 -64.646,-9.456 -97.079,-9.456c-40.128,-0 -73.716,10.2 -112.901,14.873c-18.716,2.232 -38.246,-1.562 -57.181,-0.315c-21.5,1.417 -41.532,7.351 -62.598,9.746c-25.473,2.897 -51.25,-0.839 -76.786,0.532c-31.117,1.672 -61.246,8.918 -92.565,10.315c-45.018,2.007 -90.23,-2.05 -135.128,0.556c-23.159,1.344 -43.495,18.422 -67.113,20.508c-36.968,3.264 -68.895,-10.883 -104.517,-10.448c-18.186,0.223 -35.466,7.29 -53.526,8.574c-48.914,3.477 -103.652,1.319 -152.67,-3.567c-25.457,-2.538 -50.85,-12.681 -76.356,-12.503c-38.728,0.268 -76.976,11.91 -115.867,7.134c-32.85,-4.034 -61.58,-24.888 -93.21,-28.634c-21.557,-2.553 -43.328,5.761 -64.662,2.261c-29.741,-4.879 -21.573,-56.682 -37.791,-75.888c-6.328,-7.494 -12.475,-14.789 -19.132,-22.032c-3.24,-3.525 -23.145,-18.523 -23.145,-18.523c-0,-0 -52.798,27.519 -116.375,45.461c-37.791,10.666 -98.294,15.714 -114.52,21.064c-7.441,2.454 -20.191,15.078 -20.191,15.078Z" style="fill:#dfe6e9;stroke:#fff;stroke-width:4.17px;"/><path id="Unknown2" serif:id="Unknown" d="M6499.23,2339.71c3.465,6.271 6.328,12.894 8.135,20.126c10.235,40.967 15.198,104.185 15.198,104.185l0.187,-0.063c0,0 50.483,40.526 70.137,50.674c27.936,14.424 57.448,22.822 87.173,31.646c6.157,1.828 28.248,9.165 30.964,16.296c0.29,0.761 -18.386,15.609 -19.366,16.502c-24.949,22.736 -56.717,31.054 -83.656,50.6c-31.551,22.891 -70.945,35.269 -101.133,58.525c-37.035,28.531 -70.647,90.968 -87.698,134.292c-29.605,75.225 -51.751,160.722 -44.82,241.823c3.383,39.578 16.836,79.657 7.243,118.971c-2.489,10.201 5.489,28.317 -4.619,31.16c-18.793,5.285 -98.513,-8.325 -118.206,-9.418c-44.784,-2.486 -90.274,-4.439 -90.274,-4.439c-0,0 -4.372,76.182 -7.297,98.391c-4.113,31.238 -63.382,106.918 -87.782,129.594c-21.593,20.068 -64.608,72.757 -64.608,72.757c0,0 49.301,64.508 57.101,77.671c30.116,50.821 197.418,237.439 260.311,216.213c7.886,-2.662 12.321,-22.135 12.806,-28.547c3.38,-44.682 -3.916,-286.474 24.142,-286.474c13.427,0 10.654,61.159 10.916,70.231c0.534,18.459 2.624,36.746 2.624,55.264c0,21.916 -6.697,90.93 5.248,111.088c2.508,4.232 74.137,-36.54 92.264,-27.159c35.886,18.57 175.192,151.26 210.139,187.43c26.64,27.573 44.672,48.064 71.649,72.993c8.975,8.294 56.067,24.981 56.067,24.981l28.368,0l0,-3970.83l-4736.48,0c-0,0 3.363,38.354 -2.328,53.745c-6.974,18.859 -31.104,44.925 -44.278,61.305c-5.814,7.231 -3.393,24.934 0.017,42.567c56.968,0 211.549,-11.792 247.83,34.636c31.108,39.81 31.122,99.184 48.628,144.862c9.497,24.783 28.283,46.201 42.149,68.683c19.793,32.09 37.64,68.862 58.633,99.957c14.304,21.188 48.394,6.466 41.247,78.831c-7.524,76.184 -49.616,158.476 -78.395,228.766c-7.221,17.638 -37.925,61.297 -29.603,82.129c12.936,32.382 222.056,-23.786 236.826,17.159c3.976,11.023 -31.192,132.493 -41.412,136.72c-21.987,9.094 -43.411,1.435 -65.59,7.495c-14.368,3.925 -41.739,-3.786 -45.486,22.778c-2.182,15.47 -2.182,15.47 65.728,46.552c93.508,-3.035 181.178,48.084 275.285,40.983c14.493,-1.093 27.587,-16.535 41.412,-21.356c41.077,-14.326 127.698,-42.587 170.813,-34.503c35.305,6.619 135.711,36.193 166.467,52.953c13.947,7.601 39.978,49.836 52.154,62.963c0,0 82.271,115.447 86.022,128.395c7.67,26.477 -5.269,55.383 10.824,81.091c8.156,13.03 113.738,99.273 122.431,103.093c13.119,5.766 31.877,1.259 45.922,5.674c23.238,7.305 51.334,30.068 74.787,40.292c34.818,15.178 52.702,52.719 82.413,75.002c41.088,30.816 94.898,36.188 139.242,60.565c23.873,13.123 48.777,43.678 74.541,50.924c10.632,2.99 29.959,-23.202 50.35,-14.599c18.067,7.622 21.923,49.848 31.243,52.469c139.276,39.171 163.719,7.553 293.245,-6.458c23.858,-2.581 44.202,-26.083 67.57,-28.137c31.548,-2.773 57.563,29.209 85.53,37.293c33.521,9.69 76.36,15.578 110.622,21.772c35.604,6.438 68.892,-6.085 106,-3.998c32.909,1.851 165.412,23.218 191.591,14.723c20.995,-6.814 54.597,-24.311 62.896,-45.435c3.092,-7.87 39.045,-31.585 79.274,-44.309c48.379,-15.302 96.917,8.883 85.57,-36.749l0.042,0.018c-25.025,-10.757 -69.74,-9.696 -79.409,-15.135c-34.049,-19.153 -37.617,-69.465 -58.304,-98.25c-14.226,-19.795 -61.103,-25.232 -66.013,-47.326c-0.08,-0.362 30.554,-146.956 33.376,-152.611c12.506,-25.062 29.717,-11.867 38.459,-46.288c14.849,-58.467 -9.783,-125.101 3.198,-183.516c3.077,-13.847 51.759,-38.727 61.175,-72.396c9.243,-33.051 -20.249,-71.437 -11.973,-98.205c9.059,-29.299 42.113,-53.565 55.681,-82.521c14.191,-30.287 20.529,-102.706 42.641,-124.473c6.627,-6.523 40.939,4.079 52.319,-0.899c23.691,-10.365 61.829,-55.937 92.663,-39.831c4.596,2.4 -17.522,29.528 -6.396,42.045c9.271,10.43 78.797,20.482 95.78,22.579c31.945,3.944 106.515,-30.395 113.411,-20.504c35.527,50.96 -114.027,124.575 -108.327,135.798c4.439,8.738 89.277,1.362 115.379,12.939c46.411,20.583 52.513,109.913 102.176,108.582c12.246,-0.328 51.745,-85.802 73.721,-97.996c27.778,-15.414 160.396,-118.899 154.905,-132.8c-12.48,-31.589 -126.508,31.057 -131.78,35.149c-1.053,0.817 -2.092,1.548 -3.444,1.73c-38.224,5.141 -46.505,-42.555 -62.897,-66.607c-11.77,-17.272 -45.882,-12.08 -36.737,-37.479c11.272,-31.306 47.917,-52.166 68.965,-74.979c59.049,-63.999 165.394,-159.867 243.468,-198.461c24.938,-12.327 50.547,-21.232 73.557,-36.601c25.697,-17.166 62.486,-68.572 62.486,-15.476l5.987,-1.343c-12.935,58.932 -125.207,100.589 -135.142,135.982c-10.985,39.135 63.509,28.583 73.475,57.012c5.889,16.798 -12.074,31.145 -16.975,45.09c-8.903,25.336 5.856,58.874 -1.148,85.796c-10.533,40.485 -123.345,48.487 -92.581,85.98c9.313,11.35 40.178,13.517 54.122,17.874c14.105,4.408 17.389,24.686 30.341,27.746c49.536,11.703 102.359,-2.225 151.624,8.902c43.135,9.742 68.985,46.065 109.557,60.519c68.152,24.279 139.592,27.615 208.042,48.387c18.101,5.492 35.188,23.094 52.892,30.859c63.748,27.957 142.276,72.963 156.803,142.02c0,0 12.98,3.06 15.423,3.837c9.012,2.868 18.095,5.145 27.395,6.967c18.949,3.711 65.957,6.472 79.091,22.864c10.527,13.139 7.841,25.171 14.275,39.647c4.627,10.41 20.155,16.546 22.987,25.639c13.635,43.781 -11.581,101.454 -26.923,140.875c-28.819,74.055 -93.226,51.023 -137.241,92.638c-19.545,18.479 1.778,47.575 -8.659,64.77c-3.07,5.056 -24.252,12.499 -30.702,15.351c-17.802,7.867 -38.13,8.226 -56.051,17.417c-16.047,8.23 -29.355,23.26 -46.447,29.152c-20.139,6.943 -53.954,12.23 -60.302,37.226c-8.642,34.028 17.497,29.421 31.489,53.271c5.867,10 10.522,26.99 13.175,42.017c12.429,-7.117 37.965,-17.195 50.958,-23.3c4.405,-2.07 19.958,7.848 22.673,8.871c19.887,7.494 33.875,14.834 55.578,14.155c7.091,-0.221 13.819,-10.14 20.836,-12.059c38.895,-10.635 78.532,-29.268 120.341,-24.635c14.413,1.596 24.179,15.732 37.315,20.856c6.464,2.522 33.715,5.522 36.842,9.3c8.804,10.632 2.081,26.412 7.663,38.658c10.746,23.573 28.44,42.072 13.173,69.005c-11.375,20.068 -58.789,12.056 -76.624,18.23c-12.909,4.468 -25.752,24.773 -28.76,37.462c-1.769,7.463 -2.939,22.82 -2.939,22.82c-0,0 2.624,9.811 2.624,12.458c-0,9.581 -3.657,18.806 -4.514,28.326c-2.586,28.734 -20.715,49.623 -12.175,80.312c13.958,50.164 -4.235,112.695 1.679,166.957c0.522,4.794 3.616,51.377 -1.784,53.655c-7.721,3.257 -18.274,-1.437 -26.714,2.096c-24.993,10.462 -88.421,32.398 -113.705,40.539Z" style="fill:#dfe6e9;stroke:#fff;stroke-width:4.17px;"/><path id="Asia" d="M5460.18,1905.28c0,-5.351 -3.673,10.259 -7.011,14.442c-8.627,10.808 -9.573,19.839 -9.573,33.607c0,33.814 -7.028,89.618 19.901,115.416c8.287,7.938 29.462,6.318 40.307,10.864c16.657,6.981 31.959,17.366 48.829,23.829c8.849,3.391 18.216,1.573 26.913,5.574c10.892,5.01 21.299,14.376 32.959,17.299c14.787,3.707 28.719,-3.459 43.329,-0.72c18.335,3.438 42.45,28.764 58.066,39.251c6.3,4.231 35.017,0.329 35.017,0.329c12.323,30.703 22.733,60.123 22.733,60.123l6.888,25.916c-33.881,15.485 -63.091,48.293 -92.746,71.039c-12.132,9.306 -28.502,9.119 -38.333,21.268c-11.19,13.828 -17.267,32.201 -20.153,49.701c-0.933,5.661 -5.422,20.822 -5.422,20.822c-4.232,-1.985 -8.705,-3.093 -13.55,-2.866c-69.814,3.273 -72.336,-15.967 -135.516,-18.112c-20.483,-0.695 -35.778,1.93 -48.617,22.048c-0,-0 -100.208,-42.743 -130.186,-37.262c-21.587,3.946 -58.888,45.951 -69.129,63.793c-2.634,4.589 -16.825,32.842 -15.417,32.842c-0.034,0 -11.46,20.891 -19.352,22.257c-18.68,3.233 -42.505,-17.448 -60.191,-5.144c-18.229,12.683 -24.635,43.048 -50.514,46.081c-22.57,2.645 -29.513,-40.595 -33.375,-41.376c-22.876,-4.624 -84.753,-6.307 -98.65,-28.022c-5.725,-8.945 15.046,-38.746 17.302,-49.748c4.563,-22.244 -28.013,-33.34 -38.049,-47.856c-6.774,-9.798 7.89,-31.349 1.312,-37.824c-41.322,-40.677 -106.726,35.672 -125.793,-48.341c-4.68,-20.621 50.471,-19.3 63.388,-33.442c16.083,-17.609 -2.3,-59.572 -8.774,-78.508c-3.521,-10.299 -107.435,1.306 -127.105,-30.444c-15.362,-24.796 30.876,-78.26 29.603,-109.597c-0.709,-17.447 -26.981,-48.084 -14.843,-66.861c38.934,-60.226 222.591,-27.473 299.723,-78.67c6.048,-4.014 126.554,-87.914 129.558,-95.202c2.658,-6.446 -60.61,2.586 -88.036,-9.026c-18.269,-7.736 -7.701,-42.046 0.042,-47.49c12.16,-8.55 74.413,-7.191 88.935,-11.756c22.2,-6.978 17.418,-21.336 39.528,-27.989c6.266,-1.885 36.021,9.632 42.323,9.669c-0,-0 -2.261,23.975 -2.261,30.327c0,13.294 7.008,24.333 1.596,37.091c-5.639,13.294 -33.056,56.648 -30.356,74.37c0.677,4.438 8.257,7.785 9.825,12.446c1.995,5.93 0.037,14.422 3.779,19.684c6.068,8.534 32.822,-2.087 40.054,-4.239c12.574,-3.741 24.907,-11.083 38.543,-8.502c10.156,1.923 17.314,10.924 28.298,11.525c12.054,0.659 23.631,-5.077 35.604,-6.117c10.369,-0.9 43.589,-7.462 52.104,-1.735c1.682,1.13 26.493,24.763 26.493,19.98" style="fill:#fd79a8;stroke:#fff;stroke-width:4.17px;"/><path id="Galatia" d="M5461.23,1898.49c0,-17.34 26.139,-36.494 39.425,-44.459c20.082,-12.039 42.599,-35.008 66.505,-39.287c33.664,-6.025 56.683,18.912 86.491,-10.863c12.026,-12.013 9.9,-33.67 21.538,-47.553c4.323,-5.157 15.037,-17.547 15.037,-17.547c-0,-0 35.038,50.836 40.383,57.629c14.402,18.303 9.428,58.294 10.024,77.951c0.705,23.201 -7.793,47.545 -14.673,71.117c-2.517,8.627 -4.818,17.15 -6.372,25.476c-7.127,38.197 -5.162,64.942 -0.682,102.601c1.698,14.276 0.321,27.276 7.137,40.164c7.037,13.304 15.316,32.619 22.874,51.452c0,0 -28.717,3.902 -35.017,-0.329c-15.616,-10.487 -39.731,-35.813 -58.066,-39.251c-14.61,-2.739 -28.542,4.427 -43.329,0.72c-11.66,-2.923 -22.067,-12.289 -32.959,-17.299c-8.697,-4.001 -18.064,-2.183 -26.913,-5.574c-16.87,-6.463 -32.172,-16.848 -48.829,-23.829c-10.845,-4.546 -32.02,-2.926 -40.307,-10.864c-26.929,-25.798 -19.901,-81.602 -19.901,-115.416c0,-13.768 0.946,-22.799 9.573,-33.607c3.338,-4.183 8.061,-21.232 8.061,-21.232Z" style="fill:#a29bfe;stroke:#fff;stroke-width:4.17px;"/><path id="Cappadocia" d="M6395.32,2185.42c-1.233,-22.632 -16.183,-68.519 -2.281,-89.201c10.158,-15.112 27.531,-22.293 40.044,-35.588c10.704,-11.373 10.65,-29.721 19.156,-42.186c13.691,-20.064 33.629,-35.301 45.397,-56.4c4.635,-8.311 11.484,-24.123 13.729,-38.993c1.587,-10.509 0.874,-20.548 -4.545,-27.135c-17.159,-20.855 -72.156,-31.469 -96.724,-31.469c-8.146,-0 -45.991,-1.641 -50.751,-9.137c-11.866,-18.689 16.481,-29.881 31.339,-44.505c-0,-0 -37.802,-2.577 -43.147,-5.534c-24.068,-13.312 -33.575,-3.27 -61.667,-5.151c-71.125,-4.763 -141.303,-33.667 -213.182,-31.47c-46.007,1.407 -44.67,40.257 -66.967,70.423c-23.932,32.378 -81.548,95.767 -115.776,117.199c-26.719,16.731 -67.332,-18.086 -96.2,-16.31c-12.518,0.77 -25.424,-7.102 -37.052,-3.572c-4.234,1.285 -30.733,9.093 -30.733,9.093c-2.517,8.627 -4.818,17.15 -6.372,25.476c-7.127,38.197 -5.162,64.942 -0.682,102.601c1.698,14.276 0.321,27.276 7.137,40.164c7.037,13.304 15.316,32.619 22.874,51.452c12.323,30.703 22.733,60.123 22.733,60.123l6.888,25.916c4.314,-1.972 36.908,-32.5 54.876,-39.193c12.239,-4.559 25.911,1.147 38.291,-1.582c17.691,-3.9 33.619,-14.818 51.306,-19.165c16.085,-3.954 32.101,-0.944 47.906,-4.322c11.336,-2.423 21.068,-9.726 32.287,-11.88c19.825,-3.805 41.56,-1.713 61.173,-6.388c28.079,-6.692 49.935,-17.305 79.815,-18.905c15.073,-0.808 28.591,9.855 42.993,9.21c27.915,-1.249 55.505,-21.18 85.19,-18.397c18.215,1.707 -15.382,39.852 3.757,46.553c31.134,10.901 86.3,-8.269 119.188,-1.727" style="fill:#ffeaa7;stroke:#fff;stroke-width:4.17px;"/><path id="Sophene" d="M6511.36,1923.05c0,0 53.38,16.091 67.851,16.091c11.769,-0 38.662,5.504 54.349,8.126c7.173,1.2 20.258,8.104 20.258,8.104c-0,0 1.17,-15.357 2.939,-22.82c3.008,-12.689 15.851,-32.994 28.76,-37.462c17.835,-6.174 65.249,1.838 76.624,-18.23c15.267,-26.933 -2.427,-45.432 -13.173,-69.005c-5.582,-12.246 1.141,-28.026 -7.663,-38.658c-3.127,-3.778 -30.378,-6.778 -36.842,-9.3c-13.136,-5.124 -22.902,-19.26 -37.315,-20.856c-41.809,-4.633 -81.446,14 -120.341,24.635c-7.017,1.919 -13.745,11.838 -20.836,12.059c-21.703,0.679 -35.691,-6.661 -55.578,-14.155c-2.715,-1.023 -18.268,-10.941 -22.673,-8.871c-12.993,6.105 -38.529,16.183 -50.958,23.3c1.147,6.495 1.92,12.623 2.255,17.661c0.429,6.449 -3.124,12.003 -8.338,17.135c-14.858,14.624 -43.205,25.816 -31.339,44.505c4.76,7.496 42.605,9.137 50.751,9.137c24.568,-0 79.565,10.614 96.724,31.469c5.419,6.587 6.132,16.626 4.545,27.135" style="fill:#81ecec;stroke:#fff;stroke-width:4.17px;"/><path id="Bithynia" d="M5880.78,1430.98c-9.907,1.219 -18.603,16.881 -27.255,21.495c-15.537,8.285 -36.43,7.086 -53.619,6.105c-19.439,-1.111 -31.737,-20.318 -43.302,-33.789c-4.848,-5.648 -10.543,-14.771 -18.599,-16.018c-2.532,-0.392 -1.556,3.431 -1.701,5.315c-0.471,6.108 -2.153,13.779 -6.109,18.547c-9.095,10.961 -28.831,14.085 -41.553,17.765c-14.381,4.16 -29.922,8.799 -44.798,10.617c-10.668,1.303 -21.447,0.118 -32.119,1.762c-8.564,1.319 -16.599,4.727 -25.095,6.326c-13.55,2.55 -28.983,1.016 -41.327,8.151c-17.861,10.323 -29.848,28.849 -47.244,40.05c-14.354,9.243 -29.096,19.129 -44.217,27.038c-7.215,3.774 -17.822,5.613 -23.953,11.071c-4.517,4.021 -5.015,13.338 -6.817,18.758c-2.394,7.198 -7.034,12.075 -12.732,16.914c-19.503,16.561 -42.271,30.106 -63.472,44.368c-4.545,3.057 -10.135,4.587 -14.421,7.997c-8.717,6.932 0.717,21.084 -3.724,30.72c-7.669,16.637 -25.613,34.477 -44.468,36.902c-8.873,1.141 -12.739,-4.916 -27.755,-5.88c-0,-0 -2.261,23.975 -2.261,30.327c0,13.294 7.008,24.333 1.596,37.091c-5.639,13.294 -33.056,56.648 -30.356,74.37c0.677,4.438 8.257,7.785 9.825,12.446c1.995,5.93 0.037,14.422 3.779,19.684c6.068,8.534 32.822,-2.087 40.054,-4.239c12.574,-3.741 24.907,-11.083 38.543,-8.502c10.156,1.923 17.314,10.924 28.298,11.525c12.054,0.659 23.631,-5.077 35.604,-6.117c10.369,-0.9 43.589,-7.462 52.104,-1.735c1.682,1.13 27.543,33.229 27.543,28.446c0,-17.34 26.139,-36.494 39.425,-44.459c20.082,-12.039 42.599,-35.008 66.505,-39.287c33.664,-6.025 56.683,18.912 86.491,-10.863c12.026,-12.013 9.9,-33.67 21.538,-47.553c4.323,-5.157 15.037,-17.547 15.037,-17.547c-0,-0 -0.029,0.087 -0,-0c4.954,-11.38 12.616,-21.172 21.24,-30.404c23,-24.62 55.71,-41.717 62.283,-78.58c2.686,-15.058 -9.487,-29.24 -22.541,-35.203c-1.897,-0.866 -15.867,-3.26 -15.94,-3.432c-0.927,-2.193 0.935,-5.359 2.254,-6.961c19.58,-23.774 68.153,-12.122 94.427,-19.39c39.588,-10.951 48.657,-67.356 48.843,-102.128c0.047,-8.734 2.266,-23.163 -0.011,-31.703Z" style="fill:#ffeaa7;stroke:#fff;stroke-width:4.17px;"/><path id="Pontus" d="M6559.26,1184.34c0,0 12.98,3.06 15.423,3.837c9.012,2.868 18.095,5.145 27.395,6.967c18.949,3.711 65.957,6.472 79.091,22.864c10.527,13.139 7.841,25.171 14.275,39.647c4.627,10.41 20.155,16.546 22.987,25.639c13.635,43.781 -11.581,101.454 -26.923,140.875c-28.819,74.055 -93.226,51.023 -137.241,92.638c-19.545,18.479 1.778,47.575 -8.659,64.77c-3.07,5.056 -24.252,12.499 -30.702,15.351c-17.802,7.867 -38.13,8.226 -56.051,17.417c-16.047,8.23 -29.355,23.26 -46.447,29.152c-20.139,6.943 -53.954,12.23 -60.302,37.226c-8.642,34.028 17.497,29.421 31.489,53.271c5.867,10 10.522,26.99 13.175,42.017c1.147,6.495 1.92,12.623 2.255,17.661c0.429,6.449 -3.124,12.003 -8.338,17.135c-0,-0 -37.802,-2.577 -43.147,-5.534c-24.068,-13.312 -33.575,-3.27 -61.667,-5.151c-71.125,-4.763 -141.303,-33.667 -213.182,-31.47c-46.007,1.407 -44.67,40.257 -66.967,70.423c-23.932,32.378 -81.548,95.767 -115.776,117.199c-26.719,16.731 -67.332,-18.086 -96.2,-16.31c-12.518,0.77 -25.424,-7.102 -37.052,-3.572c-2.64,0.801 -13.937,4.139 -22.068,6.538c-4.909,1.448 -8.665,2.555 -8.665,2.555c6.88,-23.572 15.378,-47.916 14.673,-71.117c-0.596,-19.657 4.378,-59.648 -10.024,-77.951c-5.345,-6.793 -40.383,-57.629 -40.383,-57.629c4.954,-11.38 12.616,-21.172 21.24,-30.404c23,-24.62 55.71,-41.717 62.283,-78.58c2.686,-15.058 -9.487,-29.24 -22.541,-35.203c-1.897,-0.866 -15.867,-3.26 -15.94,-3.432c-0.927,-2.193 0.935,-5.359 2.254,-6.961c19.58,-23.774 68.153,-12.122 94.427,-19.39c39.588,-10.951 48.657,-67.356 48.843,-102.128c0.047,-8.734 2.266,-23.163 -0.011,-31.703c20.904,12.207 28.514,41.866 52.873,49.201c8.428,2.538 23.592,3.566 31.423,-1.146c12.311,-7.408 20.127,-22.959 36.409,-22.324c11.206,0.436 16.78,6.563 26.102,11.503c11.347,6.013 28.097,11.725 41.047,11.348c10.432,-0.303 23.486,1.235 32.25,-5.304c4.834,-3.607 12.732,-19.275 19.469,-18.662c8.244,0.75 13.578,10.677 21.684,12.844c10.491,2.805 21.701,0.363 32.251,-0.556c12.888,-1.123 27.351,-0.641 39.656,-5.082c12.159,-4.389 26.501,-8.918 37.104,-16.461c7.164,-5.096 12.082,-13.003 18.804,-18.708c6.415,-5.445 13.243,-12.136 20.757,-15.972c5.739,-2.931 12.452,-3.689 18.256,-6.619c4.729,-2.387 8.29,-7.18 13.161,-9.047c10.492,-4.021 22.154,1.273 32.87,1.173c12.788,-0.119 24.167,-4.168 36.635,-6.058c9.805,-1.486 20.065,-0.876 29.543,-4.194c12.232,-4.282 23.479,-10.915 35.806,-15.172c5.004,-1.729 12.891,-4.348 15.799,-9.287c5.479,-9.304 -0.184,-25.55 7.322,-33.608c6.692,-7.183 17.584,-8.458 25.567,-13.788c11.307,-7.549 23.499,-21.711 31.736,-32.36c4.347,-5.618 10.451,-13.077 11.712,-20.313c1.993,-11.437 -6.543,-23.197 -4.44,-35.26c1.605,-9.204 9.775,-15.352 13.37,-23.688c2.998,-6.954 0.614,-12.044 1.161,-18.819" style="fill:#fd79a8;stroke:#fff;stroke-width:4.17px;"/><path id="Rhodos" d="M5118.96,2544.12c-17.101,11.266 -47.479,33.712 -50.211,57.176c-0.617,5.3 4.277,11.358 4.781,17.027c0.707,7.954 4.333,13.086 6.091,20.567c0.485,2.061 -0.133,7.153 2.796,7.702c11.493,2.154 15.522,-19.997 18.544,-26.999c2.944,-6.822 10.421,-6.151 13.414,-11.401c3.372,-5.915 0.785,-12.885 2.059,-19.196c3.199,-15.851 8.185,-29.058 2.526,-44.876Z" style="fill:#ffeaa7;stroke:#fff;stroke-width:4.17px;"/><path id="Rhodos1" serif:id="Rhodos" d="M5008.78,2664.8c-6.531,10.877 -3.556,25.234 -5.147,37.369c-0.959,7.312 -4.128,16.922 -2.035,24.334c1.187,4.203 5.553,6.824 7.699,10.57c1.391,2.429 4.198,17.886 6.896,17.514c7.512,-1.036 8.119,-14.281 7.484,-19.808c-2.565,-22.303 -3.224,-44.16 -4.694,-66.671c-0.68,-10.419 -7.741,-7.409 -10.203,-3.308Z" style="fill:#ffeaa7;stroke:#fff;stroke-width:4.17px;"/></svg>